<svg width="47" height="47" viewBox="0 0 47 47" fill="none" xmlns="http://www.w3.org/2000/svg">
<circle cx="23.5" cy="23.5" r="22.5" fill="white" stroke="#FFCB05" stroke-width="2"/>
<path d="M24.888 19.76C24.888 20.6667 24.568 21.4507 23.928 22.112C23.288 22.7627 22.3547 23.232 21.128 23.52C21.7893 23.7013 22.2907 24 22.632 24.416C22.9733 24.8213 23.144 25.2907 23.144 25.824C23.144 26.6667 22.8773 27.3973 22.344 28.016C21.8213 28.6347 21.0533 29.1147 20.04 29.456C19.0267 29.7867 17.8053 29.952 16.376 29.952C15.8427 29.952 15.416 29.936 15.096 29.904C15.0853 30.2027 14.9573 30.4267 14.712 30.576C14.4667 30.7253 14.152 30.8 13.768 30.8C13.384 30.8 13.1173 30.7147 12.968 30.544C12.8293 30.3733 12.7707 30.1227 12.792 29.792C12.888 28.2987 13.0747 26.736 13.352 25.104C13.6293 23.4613 13.9813 21.8773 14.408 20.352C14.4827 20.0853 14.632 19.8987 14.856 19.792C15.08 19.6853 15.3733 19.632 15.736 19.632C16.3867 19.632 16.712 19.8133 16.712 20.176C16.712 20.3253 16.68 20.496 16.616 20.688C16.3387 21.52 16.0613 22.6507 15.784 24.08C15.5067 25.4987 15.3093 26.8533 15.192 28.144C15.704 28.1867 16.12 28.208 16.44 28.208C17.9333 28.208 19.0267 27.9947 19.72 27.568C20.424 27.1307 20.776 26.576 20.776 25.904C20.776 25.4347 20.5733 25.04 20.168 24.72C19.7733 24.4 19.1067 24.224 18.168 24.192C17.9547 24.1813 17.8053 24.128 17.72 24.032C17.6347 23.936 17.592 23.7813 17.592 23.568C17.592 23.2587 17.656 23.008 17.784 22.816C17.912 22.624 18.1467 22.5227 18.488 22.512C19.2453 22.4907 19.928 22.3787 20.536 22.176C21.1547 21.9733 21.64 21.6907 21.992 21.328C22.344 20.9547 22.52 20.5227 22.52 20.032C22.52 19.4133 22.216 18.928 21.608 18.576C21 18.2133 20.0667 18.032 18.808 18.032C17.6667 18.032 16.5627 18.1813 15.496 18.48C14.4293 18.768 13.5227 19.136 12.776 19.584C12.4347 19.7867 12.1467 19.888 11.912 19.888C11.72 19.888 11.5707 19.824 11.464 19.696C11.368 19.5573 11.32 19.3867 11.32 19.184C11.32 18.9173 11.3733 18.688 11.48 18.496C11.5973 18.304 11.8693 18.0853 12.296 17.84C13.192 17.328 14.2427 16.928 15.448 16.64C16.6533 16.352 17.8853 16.208 19.144 16.208C21.0747 16.208 22.5147 16.5333 23.464 17.184C24.4133 17.8347 24.888 18.6933 24.888 19.76ZM31.4824 30.08C30.213 30.08 29.109 29.8507 28.1704 29.392C27.2317 28.9227 26.5117 28.2613 26.0104 27.408C25.509 26.5547 25.2584 25.5627 25.2584 24.432C25.2584 22.864 25.5517 21.472 26.1384 20.256C26.7357 19.04 27.541 18.1013 28.5544 17.44C29.5677 16.768 30.693 16.432 31.9304 16.432C33.0824 16.432 33.957 16.7307 34.5544 17.328C35.1517 17.9147 35.4504 18.6933 35.4504 19.664C35.4504 20.3147 35.333 20.8373 35.0984 21.232C34.8744 21.6267 34.549 21.824 34.1224 21.824C33.8237 21.824 33.589 21.7547 33.4184 21.616C33.2477 21.4773 33.1624 21.2747 33.1624 21.008C33.1624 20.912 33.1837 20.736 33.2264 20.48C33.2904 20.16 33.3224 19.904 33.3224 19.712C33.3224 18.7413 32.805 18.256 31.7704 18.256C31.0664 18.256 30.3944 18.4853 29.7544 18.944C29.1144 19.4027 28.597 20.08 28.2024 20.976C27.8077 21.8613 27.6104 22.9173 27.6104 24.144C27.6104 25.424 27.9677 26.416 28.6824 27.12C29.397 27.8133 30.453 28.16 31.8504 28.16C32.5437 28.16 33.2424 28.0747 33.9464 27.904C34.661 27.7227 35.4504 27.4507 36.3144 27.088C36.4744 27.024 36.6077 26.992 36.7144 26.992C36.885 26.992 37.013 27.056 37.0984 27.184C37.1837 27.312 37.2264 27.4773 37.2264 27.68C37.2264 28.3307 36.8744 28.8107 36.1704 29.12C35.413 29.4507 34.6237 29.696 33.8024 29.856C32.9917 30.0053 32.2184 30.08 31.4824 30.08Z" fill="#FFCB05"/>
</svg>
