<?xml version="1.0" encoding="utf-8"?>
<!-- Generator: Adobe Illustrator 26.5.0, SVG Export Plug-In . SVG Version: 6.00 Build 0)  -->
<svg version="1.0" id="Layer_1" xmlns="http://www.w3.org/2000/svg" xmlns:xlink="http://www.w3.org/1999/xlink" x="0px" y="0px"
	 viewBox="0 0 527.5 123.6" style="enable-background:new 0 0 527.5 123.6;" xml:space="preserve">
<style type="text/css">
	.st0{fill:#FFFFFF;}
	.st1{fill-rule:evenodd;clip-rule:evenodd;fill:#FFFFFF;}
	.st2{enable-background:new    ;}
</style>
<g>
	<path class="st0" d="M33.4,55.1l2.3-10.9h7.5c4.4,0,6.6,1.6,6.6,4.3c0,4.6-2.6,6.5-8.3,6.5C41.5,55.1,33.4,55.1,33.4,55.1z
		 M37.4,36.6l2.2-10.1H45c4,0,6,1.4,6.1,4c0,4.1-2.7,6.1-7.5,6.1H37.4z M25.8,65.4h16.4c17,0,22.8-6.2,22.8-15.6
		c0-4.9-2.9-8.6-8.9-10.2c7.8-2,10.6-6.2,10.6-12.4c0-7.2-5.8-11-16.6-11H34.5c-4.9,0-8.1,2.2-9.3,7.5l-6.8,32.1
		C17,62.4,19.7,65.4,25.8,65.4z"/>
	<path class="st0" d="M102,66.3c7.4,0,8.8-5.1,8.6-5.2c-2-0.5-3-1.4-3-3.6c0-1.5,0.8-4.5,1.8-8.1c1.4-4.9,2.1-8.1,2.1-10.8
		c0-7.1-4.2-11.9-11.2-11.9c-5.3,0-9.9,3-12.7,7.3l3.3-15.2c1.1-5.4-2.4-7-6.3-7H83c-3.7,0-5.6,1.8-6.7,7l-8.4,39.9
		c-1.1,5.3,2.4,7,6.3,7h1.5c3.7,0,5.6-1.8,6.7-7L86,41.8c1.7-2.3,3.3-3.3,5.8-3.3c2.9,0,4.4,1.8,4.4,4.6c0,1.2-0.5,3.7-1.4,6.9
		c-1.2,4.4-1.8,6.6-1.8,8.9C93,63.4,95.6,66.3,102,66.3"/>
	<path class="st0" d="M134.9,55c-3.4,0-5.8-2.5-5.8-6.2c0-5.6,3.4-10.9,8.9-10.9c3.5,0,5.4,1.9,6.5,4.8l-0.9,4.6
		C142.6,52,139.1,55,134.9,55 M128.9,66.3c5.9,0,10.6-3.1,13.2-7.8c0.1,1.7,0.5,3.1,1.3,4.3c1.4,2.1,3.9,3.4,7.7,3.4
		c6.6,0,7.8-4,7.6-4.1c-2.6-0.8-3.3-2.6-2.4-7l5.6-26.1c0.1-0.5-2.1-1.8-4.9-1.8c-2.4,0-4.3,0.5-5.9,1.4c-1.6,1-2.9,2.5-3.9,4.7
		c-2.1-4.5-6.8-6.8-11.6-6.8c-12.2,0-20.4,11.9-20.4,24.5C115.2,60.5,120.8,66.3,128.9,66.3z"/>
	<path class="st0" d="M169.3,65.8h1.5c3.6,0,5.6-1.8,6.7-7l1.8-8.7c1.3-6.2,3.8-10.1,7.9-10.1c2.7,0,4.3,1.1,5.4,2.3
		c0.1,0.2,6.6-2,6.6-9.1c0-3.7-3.1-6.4-7.4-6.4c-4.9,0-8.7,3.4-10.6,8.1c-0.1-1.4-0.3-2.4-0.8-3.4c-1.3-2.9-4.1-4-6.9-4
		c-2.4,0-4.1,0.6-4.2,1L163,58.8C161.8,64.2,165.4,65.8,169.3,65.8"/>
	<path class="st0" d="M218.1,55c-3.4,0-5.8-2.5-5.8-6.2c0-5.6,3.4-10.9,8.9-10.9c3.5,0,5.4,1.9,6.5,4.8l-0.9,4.6
		C225.7,52,222.2,55,218.1,55 M212.1,66.3c5.9,0,10.6-3.1,13.2-7.8c0.1,1.7,0.5,3.1,1.3,4.3c1.4,2.1,3.9,3.4,7.7,3.4
		c6.6,0,7.8-4,7.6-4.1c-2.6-0.8-3.3-2.6-2.4-7l5.6-26.1c0.1-0.5-2.1-1.8-4.9-1.8c-2.4,0-4.3,0.5-5.9,1.4c-1.6,1-2.9,2.5-3.9,4.7
		c-2.1-4.5-6.8-6.8-11.6-6.8c-12.2,0-20.4,11.9-20.4,24.5C198.3,60.5,203.9,66.3,212.1,66.3z"/>
	<path class="st0" d="M289,61.1c-1.9-0.5-3-1.4-3-3.6c0-1.5,0.8-4.5,1.8-8.1c1.4-4.9,2.1-8.1,2.1-10.8c0-7.1-4.2-11.9-11.5-11.9
		c-6.1,0-10.3,3-13.6,7.7c-0.1-1.1-0.5-2.2-0.8-3c-1.4-2.9-4.2-4.1-7.1-4.1c-2.3,0-4.1,0.6-4.2,1l-6.5,30.4c-1.1,5.3,2.4,7,6.3,7
		h1.5c3.7,0,5.6-1.8,6.7-7l3.6-16.9c1.7-2.3,3.2-3.3,5.8-3.3c2.9,0,4.5,1.8,4.5,4.6c0,1.2-0.6,3.7-1.4,6.9c-1.3,4.4-1.8,6.6-1.8,8.9
		c0,4.4,2.6,7.4,9,7.4C287.9,66.3,289.3,61.2,289,61.1"/>
	<path class="st0" d="M303,66.3c6.9,0,8-4,7.9-4.1c-2.7-0.8-3.4-2.6-2.4-7l4.4-20.8c1.2-5.4-2.4-7-6.3-7h-1.5c-3.6,0-5.5,1.7-6.6,7
		l-4.4,20.2C292.7,61.1,294.5,66.3,303,66.3 M309,23.6c5,0,8.2-3.3,8.2-7.5c0-4.1-3.2-6.3-7.3-6.3c-5.1,0-8.3,3.3-8.3,7.4
		C301.7,21.3,304.7,23.6,309,23.6z"/>
	<path class="st0" d="M398.2,55c-3.4,0-5.8-2.5-5.8-6.2c0-5.6,3.4-10.9,8.9-10.9c3.5,0,5.4,1.9,6.5,4.8l-0.9,4.6
		C405.9,52,402.4,55,398.2,55 M392.2,66.3c5.9,0,10.6-3.1,13.2-7.8c0.1,1.7,0.5,3.1,1.3,4.3c1.4,2.1,3.9,3.4,7.7,3.4
		c6.6,0,7.8-4,7.6-4.1c-2.6-0.8-3.3-2.6-2.4-7l5.5-26.1c0.1-0.5-2.1-1.8-4.9-1.8c-2.4,0-4.3,0.5-5.9,1.4c-1.6,1-2.9,2.5-3.9,4.7
		c-2.1-4.5-6.8-6.8-11.6-6.8c-12.2,0-20.4,11.9-20.4,24.5C378.5,60.5,384.1,66.3,392.2,66.3z"/>
	<path class="st0" d="M449.7,55.2c-5,0-7.4-3.8-6.2-9.2l0.9-4.1c1.7-2.4,4.3-3.9,7.1-3.9c3.8,0,6.2,2.8,6.2,6.9
		C457.7,50.4,454.8,55.2,449.7,55.2 M452.5,66.3c11.7,0,19.1-11.6,19.1-23.6c0-10-6.2-15.9-14.4-15.9c-4.6,0-8.2,2-10.8,5.2
		l2.7-13.1c1.1-5.4-2.4-7-6.3-7h-1.5c-3.7,0-5.5,1.8-6.7,7L425.1,64c-0.1,0.5,2.2,1.8,5,1.8c3.2,0,5.6-0.8,7.4-2.9
		c1.1-1.1,1.8-2.2,2.5-3.7C442.3,63.9,447.3,66.3,452.5,66.3z"/>
	<path class="st0" d="M489.9,66.2c11,0,16.7-5.1,16.7-12.4c0-6.4-5.4-9-11.4-11.4c-3-1.2-5.2-2-5.2-3.6c0-1.4,1.3-2.4,3.7-2.4
		c4.2,0,8.4,2.8,10.9,6c0.3,0.3,4.8-1.6,4.8-6.2c0-1.8-0.7-3.2-1.9-4.3c-3-3-8.4-5-14.7-5c-10.6,0-16.1,5.7-16.1,12.6
		c0,7.1,5.5,9.5,10.6,11.7c2.6,0.9,4.3,1.8,4.3,3c0,1.6-1.2,2.5-3.6,2.5c-4.4,0-9.4-2.8-12.2-5.9c-0.3-0.4-4.2,1.7-4.2,5.5
		c0,1.8,0.9,3.5,2.4,4.9C476.7,64.1,482.2,66.2,489.9,66.2"/>
	<path class="st0" d="M354.9,66.4c6.9,0,12.5-2.6,15.7-5.8c2-2,3-4,3-6c0-5.8-7.3-7.5-7.6-7.1c-2.2,3.3-5.6,5.2-10,5.2
		c-5.7,0-9.6-4.3-9.6-10c0-7.6,5.5-13.8,12.8-13.8c4.6,0,7.6,2.4,9.2,6.2c0.2,0.5,9.9-0.3,9.9-8.2c0-1.7-0.9-4.3-3-6.3
		c-2.9-2.9-7.8-5.4-16.3-5.4c-16.6,0-28.3,13.7-28.3,29.1C330.8,57.8,340.2,66.4,354.9,66.4"/>
</g>
<g>
	<g>
		<polygon class="st1" points="142.6,86.1 140,94.3 131.4,94.3 138.4,99.3 135.7,107.4 142.6,102.4 149.5,107.4 146.9,99.3 
			153.8,94.3 145.3,94.3 		"/>
		<polygon class="st1" points="113.4,86.1 110.8,94.3 102.2,94.3 109.2,99.3 106.5,107.4 113.4,102.4 120.3,107.4 117.7,99.3 
			124.6,94.3 116.1,94.3 		"/>
		<polygon class="st1" points="84.2,86.1 81.6,94.3 73,94.3 79.9,99.3 77.3,107.4 84.2,102.4 91.1,107.4 88.5,99.3 95.4,94.3 
			86.8,94.3 		"/>
	</g>
	<g>
		<polygon class="st1" points="443.3,86.1 440.6,94.3 432.1,94.3 439,99.3 436.4,107.4 443.3,102.4 450.2,107.4 447.5,99.3 
			454.5,94.3 445.9,94.3 		"/>
		<polygon class="st1" points="414.1,86.1 411.4,94.3 402.9,94.3 409.8,99.3 407.1,107.4 414.1,102.4 421,107.4 418.3,99.3 
			425.3,94.3 416.7,94.3 		"/>
		<polygon class="st1" points="384.9,86.1 382.2,94.3 373.7,94.3 380.6,99.3 377.9,107.4 384.9,102.4 391.8,107.4 389.1,99.3 
			396.1,94.3 387.5,94.3 		"/>
	</g>
</g>
<g class="st2">
	<path class="st0" d="M167.3,90.7l0.2-0.7c1-0.1,2.2-0.3,3.4-0.6c-0.3,0.9-0.6,1.7-0.7,2.3l-0.7,3.1c1.6,0,2.8-0.4,3.7-1.2
		c0.8-0.8,1.2-1.8,1.2-2.9c0-0.8-0.3-1.4-0.9-1.9c-0.6-0.5-1.5-0.7-2.7-0.7c-1.7,0-3.2,0.4-4.8,1.2c-1.5,0.8-2.7,1.8-3.5,3.1
		c-0.8,1.3-1.3,2.5-1.3,3.8c0,0.3,0,0.7,0.1,1c0.1,0.3,0.2,0.6,0.4,0.8c0.1,0.1,0.4,0.3,0.7,0.6c0.4,0.3,0.7,0.5,0.8,0.7
		s0.2,0.3,0.2,0.5c0,0.2-0.1,0.4-0.2,0.5c-0.1,0.1-0.3,0.2-0.5,0.2c-0.5,0-1.1-0.4-1.6-1.1s-0.8-1.7-0.8-2.8c0-1.5,0.5-3,1.4-4.5
		c0.9-1.4,2.2-2.6,3.9-3.5c1.7-0.9,3.5-1.3,5.6-1.3c1.7,0,2.9,0.3,3.8,1s1.3,1.4,1.3,2.4c0,0.9-0.3,1.7-0.9,2.4
		c-0.6,0.7-1.5,1.3-2.6,1.7c0.8,0.1,1.4,0.3,1.9,0.7s0.8,0.7,1.1,1.2c0.3,0.5,0.4,1,0.4,1.6c0,1-0.3,1.9-0.9,2.8s-1.4,1.6-2.6,2.2
		c-1.1,0.6-2.3,0.9-3.5,0.9c-0.4,0-1.1,0-2.3-0.1c-0.6,0-1.1,0-1.8,0c-0.9,0-1.8,0.1-2.5,0.2l0.2-0.8c1-0.1,1.6-0.3,2.1-0.7
		c0.4-0.4,0.8-1.3,1.1-2.7l2-8c0.1-0.3,0.1-0.6,0.1-0.8c0-0.1-0.1-0.3-0.2-0.4s-0.3-0.2-0.4-0.2C167.5,90.7,167.4,90.7,167.3,90.7z
		 M169.2,95.7l-0.7,2.8c-0.4,1.4-0.7,2.5-1,3.3c-0.2,0.5-0.4,0.8-0.8,1.2c0.8,0.2,1.5,0.3,2.1,0.3c1.6,0,2.8-0.5,3.6-1.5
		c0.8-1,1.2-2.1,1.2-3.3c0-0.6-0.2-1.1-0.5-1.6c-0.3-0.4-0.7-0.7-1.2-0.9S170.6,95.7,169.2,95.7z"/>
	<path class="st0" d="M185,100.5l0.5,0.6c-2.2,2.1-4.2,3.2-5.8,3.2c-0.7,0-1.1-0.2-1.5-0.7c-0.3-0.4-0.5-1.1-0.5-2.1
		c0-2,0.6-3.9,1.8-5.9c1.3-2.2,2.9-3.3,4.8-3.3c0.7,0,1.1,0.2,1.5,0.5c0.3,0.3,0.5,0.8,0.5,1.3c0,0.6-0.2,1.2-0.6,1.8
		c-0.4,0.6-1.2,1.2-2.2,1.8c-0.5,0.3-1.7,0.8-3.4,1.6c-0.1,0.5-0.1,1-0.1,1.4c0,0.7,0.1,1.1,0.3,1.4s0.5,0.4,0.9,0.4
		c0.4,0,0.8-0.1,1.2-0.3C183,101.9,183.8,101.4,185,100.5z M180.2,98.5c1.5-0.7,2.6-1.4,3.3-2.1c0.5-0.5,0.8-1.1,0.8-1.6
		c0-0.4-0.1-0.7-0.3-0.9c-0.2-0.2-0.5-0.4-0.8-0.4c-0.3,0-0.7,0.1-1,0.4c-0.4,0.3-0.8,0.9-1.1,1.5C180.7,96.4,180.4,97.4,180.2,98.5
		z"/>
	<path class="st0" d="M187.3,95.2l-0.4-0.6l1-0.7c1-0.7,1.7-1.1,2.1-1.3c0.2-0.1,0.4-0.2,0.6-0.2s0.4,0.1,0.6,0.3
		c0.8,1,1.5,2.4,2,4.1s0.8,3.4,0.8,5c0,0.2,0,0.5,0,1c1.6-2.9,2.3-5.1,2.3-6.8c0-0.3-0.1-0.8-0.2-1.4c-0.2-0.6-0.2-1.1-0.2-1.4
		c0-0.3,0.1-0.5,0.3-0.7c0.2-0.2,0.4-0.3,0.6-0.3c0.3,0,0.6,0.1,0.8,0.4c0.2,0.2,0.3,0.6,0.3,1.1c0,1.2-0.3,2.7-0.8,4.4
		c-0.5,1.8-1.4,3.7-2.6,5.7c-1.2,2-2.2,3.5-3.2,4.5s-1.9,1.7-2.8,2.1c-0.9,0.4-1.7,0.6-2.5,0.6c-0.6,0-1.1-0.1-1.4-0.3
		c-0.3-0.2-0.5-0.5-0.5-0.8c0-0.3,0.1-0.5,0.4-0.7s0.6-0.3,1-0.3c0.3,0,0.7,0.1,1.3,0.2c0.6,0.1,1,0.2,1.2,0.2
		c0.6,0,1.2-0.2,1.8-0.7c0.9-0.6,1.5-1.4,2-2.3c0.5-0.9,0.8-1.8,0.8-2.7c0-1.3-0.2-2.8-0.6-4.6c-0.4-1.8-0.9-3.2-1.6-4.1
		c-0.3-0.5-0.7-0.7-1.1-0.7C188.8,94.3,188.2,94.6,187.3,95.2z"/>
	<path class="st0" d="M205.5,92.4c0.9,0,1.6,0.4,2.2,1.1c0.6,0.7,0.9,1.7,0.9,3c0,2-0.7,3.9-2.1,5.5s-2.9,2.4-4.5,2.4
		c-1,0-1.8-0.3-2.4-1c-0.6-0.6-0.9-1.5-0.9-2.6c0-1.9,0.6-3.7,1.7-5.3C201.7,93.4,203.4,92.4,205.5,92.4z M204.3,93.4
		c-0.8,0-1.5,0.6-2.3,1.7s-1.1,2.7-1.1,4.6c0,1.2,0.2,2.1,0.7,2.8c0.3,0.5,0.8,0.8,1.3,0.8c0.8,0,1.5-0.5,2.1-1.4
		c0.8-1.2,1.2-2.8,1.2-4.6c0-1.4-0.2-2.4-0.6-2.9C205.3,93.7,204.9,93.4,204.3,93.4z"/>
	<path class="st0" d="M210.3,95.6l-0.5-0.5c1.2-1.1,2.1-1.9,2.8-2.2c0.7-0.4,1.3-0.6,1.8-0.6c0.2,0,0.3,0,0.5,0.1
		c0.1,0.1,0.2,0.2,0.2,0.3c0,0.1,0,0.2-0.1,0.4l-0.6,2.8c0.9-1,2.1-2,3.5-2.9c0.8-0.5,1.4-0.7,1.9-0.7c0.4,0,0.6,0.1,0.8,0.3
		s0.3,0.6,0.3,1c0,0.3,0,0.6-0.1,1c-0.1,0.6-0.5,1.9-1.2,3.9c-0.6,1.9-0.9,3.1-0.9,3.7c0,0.2,0,0.3,0.1,0.4c0.1,0.1,0.1,0.1,0.2,0.1
		c0.3,0,0.7-0.3,1.3-0.8c0.4-0.4,0.8-0.7,1.2-1l0.3,0.5c-0.8,0.9-1.7,1.7-2.6,2.2c-0.6,0.4-1.1,0.5-1.4,0.5c-0.3,0-0.6-0.1-0.8-0.4
		c-0.2-0.3-0.3-0.7-0.3-1.2c0-0.8,0.5-2.9,1.5-6.1c0.3-1.2,0.5-1.8,0.5-2c0-0.3-0.2-0.4-0.5-0.4c-0.4,0-0.8,0.2-1.4,0.6
		c-0.9,0.6-1.6,1.2-2.2,2c-0.4,0.5-0.7,1.3-0.9,2.4l-1.1,4.8h-2.1c0.4-1.4,0.7-2.7,1-4l1.2-5.2c0-0.2,0.1-0.4,0.1-0.5
		c0-0.2-0.1-0.4-0.3-0.4c-0.1,0-0.4,0.1-0.6,0.3C211.4,94.6,210.8,95,210.3,95.6z"/>
	<path class="st0" d="M233.5,101.1l0.4,0.5c-1.2,1-2.1,1.7-2.7,2.1c-0.8,0.5-1.5,0.7-2,0.7c-0.2,0-0.4-0.1-0.5-0.2s-0.2-0.3-0.2-0.4
		s0.1-0.4,0.2-0.8l0.5-1.7c-1.1,1.2-2,2-2.8,2.4c-0.7,0.4-1.4,0.6-2,0.6c-0.5,0-0.9-0.2-1.2-0.6c-0.3-0.4-0.5-1.1-0.5-1.9
		c0-1.3,0.4-2.8,1.3-4.5c0.9-1.7,1.9-3,3-3.8c1.1-0.8,2.1-1.2,3-1.2c0.2,0,0.5,0,0.9,0.1c0.4-1.8,0.8-3.1,1.2-3.9
		c0.4-0.8,0.9-1.5,1.5-2.1c0.6-0.6,1.3-1.1,2.1-1.4c0.8-0.3,1.6-0.5,2.3-0.5c0.4,0,0.7,0.1,0.9,0.3c0.2,0.2,0.3,0.4,0.3,0.7
		c0,0.3-0.1,0.5-0.3,0.7c-0.2,0.2-0.5,0.3-0.8,0.3c-0.2,0-0.7,0-1.3-0.1c-0.6-0.1-1.1-0.1-1.3-0.1c-0.3,0-0.6,0.1-0.8,0.3
		c-0.2,0.2-0.5,0.6-0.7,1.3c-0.1,0.4-0.5,1.7-1,4l-1.9,8.3c-0.2,1-0.3,1.6-0.3,2c0,0.3,0.1,0.5,0.4,0.5c0.2,0,0.4-0.1,0.6-0.2
		C232,102.2,232.6,101.8,233.5,101.1z M230.6,94c-0.7-0.2-1.3-0.2-1.6-0.2c-0.6,0-1.2,0.2-1.8,0.7c-0.6,0.5-1.2,1.4-1.7,2.8
		c-0.5,1.4-0.8,2.6-0.8,3.6c0,0.5,0.1,0.9,0.4,1.2s0.5,0.4,0.9,0.4c0.4,0,0.8-0.2,1.3-0.5c0.7-0.5,1.3-1.1,1.7-1.8
		c0.2-0.5,0.6-1.6,1-3.4L230.6,94z"/>
	<path class="st0" d="M248.1,90.7l0.1-0.6c1-0.1,2.2-0.3,3.5-0.6c-0.4,1-0.7,2.2-1,3.5l-0.9,3.8c-0.7,2.8-1.4,4.9-2.2,6.3
		c0.8,0.2,1.5,0.2,2.1,0.2c1.6,0,3-0.3,4.2-1s2.1-1.7,2.8-3s1.1-2.7,1.1-4.3c0-2-0.6-3.7-1.8-4.9s-2.8-1.9-4.7-1.9
		c-1.6,0-3.2,0.4-4.6,1.2c-1.4,0.8-2.6,1.8-3.4,3.1S242,95,242,96.2c0,1.2,0.5,2,1.5,2.6c0.3,0.2,0.5,0.3,0.6,0.4
		c0.1,0.1,0.1,0.3,0.1,0.4c0,0.2-0.1,0.4-0.3,0.6c-0.2,0.2-0.4,0.3-0.6,0.3c-0.5,0-1-0.3-1.4-1c-0.6-0.9-0.9-1.8-0.9-2.8
		c0-1.6,0.5-3.1,1.4-4.6c0.9-1.5,2.3-2.6,3.9-3.5c1.7-0.9,3.5-1.3,5.6-1.3c2.5,0,4.6,0.7,6.1,2s2.3,3.1,2.3,5.1
		c0,1.9-0.5,3.6-1.6,5.2s-2.3,2.7-3.8,3.4c-1.5,0.7-3,1-4.4,1c-0.5,0-1.3,0-2.5-0.1c-1-0.1-1.9-0.1-2.8-0.1c-0.4,0-1,0-1.9,0
		l0.3-0.7c0.8,0,1.4-0.1,1.6-0.2c0.2-0.1,0.4-0.3,0.5-0.5c0.3-0.4,0.6-1.3,1.1-2.8l0.9-3.6l1.1-4.5c0.1-0.2,0.1-0.4,0.1-0.6
		c0-0.1,0-0.3-0.1-0.4c-0.1-0.1-0.2-0.1-0.4-0.1C248.4,90.6,248.3,90.7,248.1,90.7z"/>
	<path class="st0" d="M268.5,100.5l0.5,0.6c-2.2,2.1-4.2,3.2-5.8,3.2c-0.7,0-1.1-0.2-1.5-0.7c-0.3-0.4-0.5-1.1-0.5-2.1
		c0-2,0.6-3.9,1.8-5.9c1.3-2.2,2.9-3.3,4.8-3.3c0.7,0,1.1,0.2,1.5,0.5c0.3,0.3,0.5,0.8,0.5,1.3c0,0.6-0.2,1.2-0.6,1.8
		c-0.4,0.6-1.2,1.2-2.2,1.8c-0.5,0.3-1.7,0.8-3.4,1.6c-0.1,0.5-0.1,1-0.1,1.4c0,0.7,0.1,1.1,0.3,1.4s0.5,0.4,0.9,0.4
		c0.4,0,0.8-0.1,1.2-0.3C266.4,101.9,267.3,101.4,268.5,100.5z M263.7,98.5c1.5-0.7,2.6-1.4,3.3-2.1c0.5-0.5,0.8-1.1,0.8-1.6
		c0-0.4-0.1-0.7-0.3-0.9c-0.2-0.2-0.5-0.4-0.8-0.4c-0.3,0-0.7,0.1-1,0.4c-0.4,0.3-0.8,0.9-1.1,1.5C264.1,96.4,263.8,97.4,263.7,98.5
		z"/>
	<path class="st0" d="M276.9,92.4c0.8,0,1.4,0.2,1.9,0.5c0.4,0.3,0.7,0.7,0.7,1.1c0,0.2-0.1,0.5-0.3,0.6c-0.2,0.2-0.4,0.3-0.7,0.3
		c-0.2,0-0.3,0-0.5-0.1c-0.1-0.1-0.3-0.3-0.6-0.6c-0.5-0.6-0.9-0.9-1.3-0.9c-0.4,0-0.7,0.1-1,0.4c-0.3,0.3-0.4,0.6-0.4,1.1
		c0,0.4,0.1,0.7,0.3,1.1c0.2,0.4,0.6,0.9,1.4,1.7c1,1.1,1.5,2.1,1.5,3.1c0,1-0.4,1.8-1.2,2.6c-0.8,0.7-1.9,1.1-3.2,1.1
		c-1.1,0-1.9-0.2-2.4-0.7s-0.8-1-0.8-1.6c0-0.3,0.1-0.6,0.3-0.8c0.2-0.2,0.5-0.3,0.7-0.3c0.3,0,0.5,0.1,0.7,0.3s0.3,0.4,0.3,0.6
		c0,0.1,0,0.2,0,0.4c0,0.1,0,0.2,0,0.3c0,0.3,0.1,0.6,0.4,0.8c0.2,0.2,0.6,0.3,1,0.3c0.5,0,0.9-0.1,1.3-0.3s0.7-0.4,0.9-0.8
		c0.2-0.3,0.3-0.7,0.3-1c0-0.3-0.1-0.7-0.3-1s-0.6-0.9-1.3-1.6c-1-1.1-1.4-2.1-1.4-3.1c0-0.9,0.4-1.7,1.1-2.4S275.8,92.4,276.9,92.4
		z"/>
	<path class="st0" d="M283.7,90.2l2.2-0.8l-1,3.9h2.9l-0.2,1h-2.9l-1.2,4.6c-0.4,1.4-0.6,2.3-0.6,2.9c0,0.2,0.1,0.4,0.2,0.5
		c0.1,0.1,0.3,0.2,0.4,0.2c0.3,0,0.7-0.2,1.3-0.5c0.8-0.4,1.5-1,2.2-1.5l0.5,0.6c-2,1.5-3.4,2.4-4,2.8c-0.7,0.3-1.2,0.5-1.6,0.5
		c-0.3,0-0.6-0.1-0.8-0.4c-0.2-0.2-0.3-0.7-0.3-1.2c0-0.7,0.2-1.7,0.5-3l1.4-5.5h-2.2l0.2-1h2.2L283.7,90.2z"/>
	<path class="st0" d="M289.3,95.5l-0.6-0.5c0.9-1,1.8-1.7,2.5-2.2c0.8-0.4,1.4-0.6,1.9-0.6c0.3,0,0.5,0.1,0.7,0.2
		c0.2,0.1,0.2,0.3,0.2,0.5c0,0.3-0.3,1.4-0.9,3.4c-1,3.3-1.5,5.2-1.5,5.9c0,0.1,0,0.2,0.1,0.3c0.1,0.1,0.1,0.1,0.2,0.1
		c0.3,0,1-0.6,2.3-1.7l0.5,0.5c-1.3,1.2-2.2,1.9-2.8,2.3c-0.6,0.3-1.1,0.5-1.4,0.5c-0.3,0-0.6-0.1-0.8-0.3c-0.2-0.2-0.3-0.5-0.3-0.8
		c0-1.1,0.7-4,2.1-8.4c0.1-0.2,0.1-0.4,0.1-0.6c0-0.2-0.1-0.3-0.2-0.3c-0.2,0-0.4,0.1-0.6,0.2C290.7,94.3,290.1,94.8,289.3,95.5z
		 M294.7,86.4c0.3,0,0.5,0.1,0.7,0.3s0.3,0.4,0.3,0.7c0,0.4-0.1,0.8-0.4,1.1c-0.3,0.3-0.6,0.5-0.9,0.5c-0.3,0-0.5-0.1-0.7-0.3
		c-0.2-0.2-0.3-0.4-0.3-0.8c0-0.4,0.1-0.8,0.4-1.1C294.1,86.6,294.4,86.4,294.7,86.4z"/>
	<path class="st0" d="M296.1,95.6l-0.5-0.5c1.2-1.1,2.1-1.9,2.8-2.2c0.7-0.4,1.3-0.6,1.8-0.6c0.2,0,0.3,0,0.5,0.1
		c0.1,0.1,0.2,0.2,0.2,0.3c0,0.1,0,0.2-0.1,0.4l-0.6,2.8c0.9-1,2.1-2,3.5-2.9c0.8-0.5,1.4-0.7,1.9-0.7c0.4,0,0.6,0.1,0.8,0.3
		c0.2,0.2,0.3,0.6,0.3,1c0,0.3,0,0.6-0.1,1c-0.1,0.6-0.5,1.9-1.2,3.9c-0.6,1.9-0.9,3.1-0.9,3.7c0,0.2,0,0.3,0.1,0.4
		c0.1,0.1,0.1,0.1,0.2,0.1c0.3,0,0.7-0.3,1.3-0.8c0.4-0.4,0.8-0.7,1.2-1l0.3,0.5c-0.8,0.9-1.7,1.7-2.6,2.2c-0.6,0.4-1.1,0.5-1.4,0.5
		c-0.3,0-0.6-0.1-0.8-0.4c-0.2-0.3-0.3-0.7-0.3-1.2c0-0.8,0.5-2.9,1.5-6.1c0.3-1.2,0.5-1.8,0.5-2c0-0.3-0.2-0.4-0.5-0.4
		c-0.4,0-0.8,0.2-1.4,0.6c-0.9,0.6-1.6,1.2-2.2,2c-0.4,0.5-0.7,1.3-0.9,2.4l-1.1,4.8h-2.1c0.4-1.4,0.7-2.7,1-4l1.2-5.2
		c0-0.2,0.1-0.4,0.1-0.5c0-0.2-0.1-0.4-0.3-0.4c-0.1,0-0.4,0.1-0.6,0.3C297.1,94.6,296.6,95,296.1,95.6z"/>
	<path class="st0" d="M318,92.1l0.9-0.2l-1,3.5c-0.4,1.4-0.8,3-1.2,4.8c-0.2,1-0.3,1.6-0.3,1.9c0,0.3,0.1,0.4,0.3,0.4
		c0.1,0,0.4-0.1,0.7-0.3c0.6-0.3,1.1-0.8,1.6-1.3l0.4,0.5c-1,1-1.7,1.5-2,1.7c-0.6,0.4-1.1,0.7-1.7,0.9c-0.3,0.1-0.7,0.2-1,0.2
		c-0.2,0-0.4-0.1-0.5-0.2c-0.1-0.1-0.2-0.3-0.2-0.5c0-0.1,0-0.3,0.1-0.6l0.6-1.9c-0.8,0.9-1.7,1.8-2.8,2.4c-0.7,0.4-1.3,0.6-1.8,0.6
		c-0.5,0-0.9-0.2-1.2-0.6c-0.4-0.5-0.6-1.2-0.6-2c0-1,0.3-2.1,0.8-3.2s1.2-2.3,2.1-3.2c0.9-1,1.8-1.7,2.8-2.1
		c0.7-0.3,1.7-0.5,2.9-0.5c0.3,0,0.6,0,0.9,0.1L318,92.1z M316.3,94.2c-0.5-0.1-0.9-0.2-1.3-0.2c-0.8,0-1.5,0.2-2.2,0.7
		c-0.6,0.5-1.2,1.3-1.7,2.5c-0.5,1.2-0.8,2.4-0.8,3.5c0,0.6,0.1,1.1,0.3,1.3s0.5,0.4,0.8,0.4c0.6,0,1.3-0.3,2-1
		c0.7-0.7,1.3-1.7,1.6-3L316.3,94.2z"/>
	<path class="st0" d="M324.3,90.2l2.2-0.8l-1,3.9h2.9l-0.2,1h-2.9l-1.2,4.6c-0.4,1.4-0.6,2.3-0.6,2.9c0,0.2,0.1,0.4,0.2,0.5
		c0.1,0.1,0.3,0.2,0.4,0.2c0.3,0,0.7-0.2,1.3-0.5c0.8-0.4,1.5-1,2.2-1.5l0.5,0.6c-2,1.5-3.4,2.4-4,2.8c-0.7,0.3-1.2,0.5-1.6,0.5
		c-0.3,0-0.6-0.1-0.8-0.4c-0.2-0.2-0.3-0.7-0.3-1.2c0-0.7,0.2-1.7,0.5-3l1.4-5.5h-2.2l0.2-1h2.2L324.3,90.2z"/>
	<path class="st0" d="M329.9,95.5l-0.6-0.5c0.9-1,1.8-1.7,2.5-2.2s1.4-0.6,1.9-0.6c0.3,0,0.5,0.1,0.7,0.2c0.2,0.1,0.2,0.3,0.2,0.5
		c0,0.3-0.3,1.4-0.9,3.4c-1,3.3-1.5,5.2-1.5,5.9c0,0.1,0,0.2,0.1,0.3c0.1,0.1,0.1,0.1,0.2,0.1c0.3,0,1-0.6,2.3-1.7l0.5,0.5
		c-1.3,1.2-2.2,1.9-2.8,2.3c-0.6,0.3-1.1,0.5-1.4,0.5c-0.3,0-0.6-0.1-0.8-0.3c-0.2-0.2-0.3-0.5-0.3-0.8c0-1.1,0.7-4,2.1-8.4
		c0.1-0.2,0.1-0.4,0.1-0.6c0-0.2-0.1-0.3-0.2-0.3c-0.2,0-0.4,0.1-0.6,0.2C331.3,94.3,330.7,94.8,329.9,95.5z M335.3,86.4
		c0.3,0,0.5,0.1,0.7,0.3s0.3,0.4,0.3,0.7c0,0.4-0.1,0.8-0.4,1.1S335.3,89,335,89c-0.3,0-0.5-0.1-0.7-0.3c-0.2-0.2-0.3-0.4-0.3-0.8
		c0-0.4,0.1-0.8,0.4-1.1S335,86.4,335.3,86.4z"/>
	<path class="st0" d="M343.1,92.4c0.9,0,1.6,0.4,2.2,1.1c0.6,0.7,0.9,1.7,0.9,3c0,2-0.7,3.9-2.1,5.5c-1.4,1.6-2.9,2.4-4.5,2.4
		c-1,0-1.8-0.3-2.4-1c-0.6-0.6-0.9-1.5-0.9-2.6c0-1.9,0.6-3.7,1.7-5.3C339.3,93.4,341,92.4,343.1,92.4z M341.9,93.4
		c-0.8,0-1.5,0.6-2.3,1.7c-0.7,1.1-1.1,2.7-1.1,4.6c0,1.2,0.2,2.1,0.7,2.8c0.3,0.5,0.8,0.8,1.3,0.8c0.8,0,1.5-0.5,2.1-1.4
		c0.8-1.2,1.2-2.8,1.2-4.6c0-1.4-0.2-2.4-0.6-2.9C342.9,93.7,342.5,93.4,341.9,93.4z"/>
	<path class="st0" d="M347.9,95.6l-0.5-0.5c1.2-1.1,2.1-1.9,2.8-2.2c0.7-0.4,1.3-0.6,1.8-0.6c0.2,0,0.3,0,0.5,0.1
		c0.1,0.1,0.2,0.2,0.2,0.3c0,0.1,0,0.2-0.1,0.4l-0.6,2.8c0.9-1,2.1-2,3.5-2.9c0.8-0.5,1.4-0.7,1.9-0.7c0.4,0,0.6,0.1,0.8,0.3
		c0.2,0.2,0.3,0.6,0.3,1c0,0.3,0,0.6-0.1,1c-0.1,0.6-0.5,1.9-1.2,3.9c-0.6,1.9-0.9,3.1-0.9,3.7c0,0.2,0,0.3,0.1,0.4
		c0.1,0.1,0.1,0.1,0.2,0.1c0.3,0,0.7-0.3,1.3-0.8c0.4-0.4,0.8-0.7,1.2-1l0.3,0.5c-0.8,0.9-1.7,1.7-2.6,2.2c-0.6,0.4-1.1,0.5-1.4,0.5
		c-0.3,0-0.6-0.1-0.8-0.4c-0.2-0.3-0.3-0.7-0.3-1.2c0-0.8,0.5-2.9,1.5-6.1c0.3-1.2,0.5-1.8,0.5-2c0-0.3-0.2-0.4-0.5-0.4
		c-0.4,0-0.8,0.2-1.4,0.6c-0.9,0.6-1.6,1.2-2.2,2c-0.4,0.5-0.7,1.3-0.9,2.4l-1.1,4.8h-2.1c0.4-1.4,0.7-2.7,1-4l1.2-5.2
		c0-0.2,0.1-0.4,0.1-0.5c0-0.2-0.1-0.4-0.3-0.4c-0.1,0-0.4,0.1-0.6,0.3C349,94.6,348.4,95,347.9,95.6z"/>
	<path class="st0" d="M366.5,92.4c0.8,0,1.4,0.2,1.9,0.5c0.4,0.3,0.7,0.7,0.7,1.1c0,0.2-0.1,0.5-0.3,0.6c-0.2,0.2-0.4,0.3-0.7,0.3
		c-0.2,0-0.3,0-0.5-0.1c-0.1-0.1-0.3-0.3-0.6-0.6c-0.5-0.6-0.9-0.9-1.3-0.9c-0.4,0-0.7,0.1-1,0.4c-0.3,0.3-0.4,0.6-0.4,1.1
		c0,0.4,0.1,0.7,0.3,1.1c0.2,0.4,0.6,0.9,1.4,1.7c1,1.1,1.5,2.1,1.5,3.1c0,1-0.4,1.8-1.2,2.6c-0.8,0.7-1.9,1.1-3.2,1.1
		c-1.1,0-1.9-0.2-2.4-0.7s-0.8-1-0.8-1.6c0-0.3,0.1-0.6,0.3-0.8c0.2-0.2,0.4-0.3,0.7-0.3c0.3,0,0.5,0.1,0.7,0.3s0.3,0.4,0.3,0.6
		c0,0.1,0,0.2,0,0.4c0,0.1,0,0.2,0,0.3c0,0.3,0.1,0.6,0.4,0.8c0.2,0.2,0.6,0.3,1,0.3c0.5,0,0.9-0.1,1.3-0.3s0.7-0.4,0.9-0.8
		c0.2-0.3,0.3-0.7,0.3-1c0-0.3-0.1-0.7-0.3-1c-0.2-0.3-0.6-0.9-1.3-1.6c-1-1.1-1.4-2.1-1.4-3.1c0-0.9,0.4-1.7,1.1-2.4
		S365.4,92.4,366.5,92.4z"/>
</g>
</svg>
