<?xml version="1.0" encoding="utf-8"?>
<!-- Generator: Adobe Illustrator 26.5.0, SVG Export Plug-In . SVG Version: 6.00 Build 0)  -->
<svg version="1.0" id="Layer_1" xmlns="http://www.w3.org/2000/svg" xmlns:xlink="http://www.w3.org/1999/xlink" x="0px" y="0px"
	 viewBox="0 0 527.5 123.6" style="enable-background:new 0 0 527.5 123.6;" xml:space="preserve">
<style type="text/css">
	.st0{fill:#FFFFFF;}
	.st1{fill-rule:evenodd;clip-rule:evenodd;fill:#FFFFFF;}
</style>
<path class="st0" d="M34.8,55.1l2.3-10.9h7.5c4.4,0,6.6,1.6,6.6,4.3c0,4.6-2.6,6.5-8.3,6.5C43,55.1,34.8,55.1,34.8,55.1z M38.8,36.6
	L41,26.5h5.5c4,0,6,1.4,6.1,4c0,4.1-2.7,6.1-7.5,6.1C45,36.6,38.8,36.6,38.8,36.6z M27.2,65.4h16.4c17,0,22.8-6.2,22.8-15.6
	c0-4.9-2.9-8.6-8.9-10.2c7.8-2,10.6-6.2,10.6-12.4c0-7.2-5.8-11-16.6-11H35.9c-4.9,0-8.1,2.2-9.3,7.5l-6.8,32.1
	C18.4,62.4,21.2,65.4,27.2,65.4z"/>
<path class="st0" d="M103.4,66.3c7.4,0,8.8-5.1,8.6-5.2c-2-0.5-3-1.4-3-3.6c0-1.5,0.8-4.5,1.8-8.1c1.4-4.9,2.1-8.1,2.1-10.8
	c0-7.1-4.2-11.9-11.2-11.9c-5.3,0-9.9,3-12.7,7.3l3.3-15.2c1.1-5.4-2.4-7-6.3-7h-1.5c-3.7,0-5.6,1.8-6.7,7l-8.4,39.9
	c-1.1,5.3,2.4,7,6.3,7h1.5c3.7,0,5.6-1.8,6.7-7l3.6-16.9c1.7-2.3,3.3-3.3,5.8-3.3c2.9,0,4.4,1.8,4.4,4.6c0,1.2-0.5,3.7-1.4,6.9
	c-1.2,4.4-1.8,6.6-1.8,8.9C94.4,63.4,97.1,66.3,103.4,66.3"/>
<path class="st0" d="M136.4,55c-3.4,0-5.8-2.5-5.8-6.2c0-5.6,3.4-10.9,8.9-10.9c3.5,0,5.4,1.9,6.5,4.8l-0.9,4.6
	C144,52,140.5,55,136.4,55 M130.4,66.3c5.9,0,10.6-3.1,13.2-7.8c0.1,1.7,0.5,3.1,1.3,4.3c1.4,2.1,3.9,3.4,7.7,3.4
	c6.6,0,7.8-4,7.6-4.1c-2.6-0.8-3.3-2.6-2.4-7l5.6-26.1c0.1-0.5-2.1-1.8-4.9-1.8c-2.4,0-4.3,0.5-5.9,1.4c-1.6,1-2.9,2.5-3.9,4.7
	c-2.1-4.5-6.8-6.8-11.6-6.8c-12.2,0-20.4,11.9-20.4,24.5C116.6,60.5,122.2,66.3,130.4,66.3z"/>
<path class="st0" d="M170.7,65.8h1.5c3.6,0,5.6-1.8,6.7-7l1.8-8.7c1.3-6.2,3.8-10.1,7.9-10.1c2.7,0,4.3,1.1,5.4,2.3
	c0.1,0.2,6.6-2,6.6-9.1c0-3.7-3.1-6.4-7.4-6.4c-4.9,0-8.7,3.4-10.6,8.1c-0.1-1.4-0.3-2.4-0.8-3.4c-1.3-2.9-4.1-4-6.9-4
	c-2.4,0-4.1,0.6-4.2,1l-6.5,30.4C163.3,64.2,166.8,65.8,170.7,65.8"/>
<path class="st0" d="M219.5,55c-3.4,0-5.8-2.5-5.8-6.2c0-5.6,3.4-10.9,8.9-10.9c3.5,0,5.4,1.9,6.5,4.8l-0.9,4.6
	C227.2,52,223.7,55,219.5,55 M213.5,66.3c5.9,0,10.6-3.1,13.2-7.8c0.1,1.7,0.5,3.1,1.3,4.3c1.4,2.1,3.9,3.4,7.7,3.4
	c6.6,0,7.8-4,7.6-4.1c-2.6-0.8-3.3-2.6-2.4-7l5.6-26.1c0.1-0.5-2.1-1.8-4.9-1.8c-2.4,0-4.3,0.5-5.9,1.4c-1.6,1-2.9,2.5-3.9,4.7
	c-2.1-4.5-6.8-6.8-11.6-6.8c-12.2,0-20.4,11.9-20.4,24.5C199.7,60.5,205.4,66.3,213.5,66.3z"/>
<path class="st0" d="M290.5,61.1c-1.9-0.5-3-1.4-3-3.6c0-1.5,0.8-4.5,1.8-8.1c1.4-4.9,2.1-8.1,2.1-10.8c0-7.1-4.2-11.9-11.5-11.9
	c-6.1,0-10.3,3-13.6,7.7c-0.1-1.1-0.5-2.2-0.8-3c-1.4-2.9-4.2-4.1-7.1-4.1c-2.3,0-4.1,0.6-4.2,1l-6.5,30.4c-1.1,5.3,2.4,7,6.3,7h1.5
	c3.7,0,5.6-1.8,6.7-7l3.6-16.9c1.7-2.3,3.2-3.3,5.8-3.3c2.9,0,4.5,1.8,4.5,4.6c0,1.2-0.6,3.7-1.4,6.9c-1.3,4.4-1.8,6.6-1.8,8.9
	c0,4.4,2.6,7.4,9,7.4C289.3,66.3,290.7,61.2,290.5,61.1"/>
<path class="st0" d="M304.5,66.3c6.9,0,8-4,7.9-4.1c-2.7-0.8-3.4-2.6-2.4-7l4.4-20.8c1.2-5.4-2.4-7-6.3-7h-1.5c-3.6,0-5.5,1.7-6.6,7
	l-4.4,20.2C294.1,61.1,295.9,66.3,304.5,66.3 M310.5,23.6c5,0,8.2-3.3,8.2-7.5c0-4.1-3.2-6.3-7.3-6.3c-5.1,0-8.3,3.3-8.3,7.4
	C303.1,21.3,306.1,23.6,310.5,23.6z"/>
<path class="st0" d="M399.7,55c-3.4,0-5.8-2.5-5.8-6.2c0-5.6,3.4-10.9,8.9-10.9c3.5,0,5.4,1.9,6.5,4.8l-0.9,4.6
	C407.3,52,403.8,55,399.7,55 M393.7,66.3c5.9,0,10.6-3.1,13.2-7.8c0.1,1.7,0.5,3.1,1.3,4.3c1.4,2.1,3.9,3.4,7.7,3.4
	c6.6,0,7.8-4,7.6-4.1c-2.6-0.8-3.3-2.6-2.4-7l5.5-26.1c0.1-0.5-2.1-1.8-4.9-1.8c-2.4,0-4.3,0.5-5.9,1.4c-1.6,1-2.9,2.5-3.9,4.7
	c-2.1-4.5-6.8-6.8-11.6-6.8c-12.2,0-20.4,11.9-20.4,24.5C379.9,60.5,385.5,66.3,393.7,66.3z"/>
<path class="st0" d="M451.1,55.2c-5,0-7.4-3.8-6.2-9.2l0.9-4.1c1.7-2.4,4.3-3.9,7.1-3.9c3.8,0,6.2,2.8,6.2,6.9
	C459.1,50.4,456.3,55.2,451.1,55.2 M453.9,66.3c11.7,0,19.1-11.6,19.1-23.6c0-10-6.2-15.9-14.4-15.9c-4.6,0-8.2,2-10.8,5.2l2.7-13.1
	c1.1-5.4-2.4-7-6.3-7h-1.5c-3.7,0-5.5,1.8-6.7,7L426.6,64c-0.1,0.5,2.2,1.8,5,1.8c3.2,0,5.6-0.8,7.4-2.9c1.1-1.1,1.8-2.2,2.5-3.7
	C443.7,63.9,448.8,66.3,453.9,66.3z"/>
<path class="st0" d="M491.3,66.2c11,0,16.7-5.1,16.7-12.4c0-6.4-5.4-9-11.4-11.4c-3-1.2-5.2-2-5.2-3.6c0-1.4,1.3-2.4,3.7-2.4
	c4.2,0,8.4,2.8,10.9,6c0.3,0.3,4.8-1.6,4.8-6.2c0-1.8-0.7-3.2-1.9-4.3c-3-3-8.4-5-14.7-5c-10.6,0-16.1,5.7-16.1,12.6
	c0,7.1,5.5,9.5,10.6,11.7c2.6,0.9,4.3,1.8,4.3,3c0,1.6-1.2,2.5-3.6,2.5c-4.4,0-9.4-2.8-12.2-5.9c-0.3-0.4-4.2,1.7-4.2,5.5
	c0,1.8,0.9,3.5,2.4,4.9C478.2,64.1,483.6,66.2,491.3,66.2"/>
<path class="st0" d="M356.4,66.4c6.9,0,12.5-2.6,15.7-5.8c2-2,3-4,3-6c0-5.8-7.3-7.5-7.6-7.1c-2.2,3.3-5.6,5.2-10,5.2
	c-5.7,0-9.6-4.3-9.6-10c0-7.6,5.5-13.8,12.8-13.8c4.6,0,7.6,2.4,9.2,6.2c0.2,0.5,9.9-0.3,9.9-8.2c0-1.7-0.9-4.3-3-6.3
	c-2.9-2.9-7.8-5.4-16.3-5.4c-16.6,0-28.3,13.7-28.3,29.1C332.2,57.8,341.6,66.4,356.4,66.4"/>
<g>
	<g>
		<path class="st0" d="M169.8,94.9c0.7-1.2,1.3-2.3,1.9-3.4c1.1-1.9,2-3.9,3.1-5.7c0.1-0.2,0.2-0.3,0.3-0.3s0.2,0.1,0.3,0.2
			c0.9,1.1,1.4,2.5,1.4,3.9c0,1.6-0.6,3.1-1.8,4.3c-1,1-2.3,1.2-3.7,1.2C170.9,95,170.3,94.9,169.8,94.9 M169.1,90.9
			c0.1-0.3,0.1-0.6,0.1-1v-0.2c-0.2-1.2-1.3-2.2-2.8-2.2h-0.2c-0.3,0-0.6,0-0.9,0.1c-0.2,0.1-0.3,0.1-0.3,0.2s0.1,0.2,0.2,0.2
			c0.7,0.4,1.1,1,1.1,1.7c0,0.2,0,0.3-0.1,0.5c-0.2,1.1-1,1.7-2,1.9c-0.1,0-0.2,0-0.3,0c-0.6,0-1.3-0.7-1.4-1.5c0-0.1,0-0.3,0-0.4
			c0-0.7,0.2-1.3,0.4-1.9c1.4-3,4.4-4.9,7.6-4.9c0.6,0,1.2,0.1,1.9,0.2c0.3,0.1,0.6,0.2,1,0.4c0.1,0,0.2,0.1,0.2,0.1
			c0,0.1,0,0.1-0.1,0.2c-1.8,1.7-3,4-4.2,6.1C169.3,90.7,169.3,90.8,169.1,90.9C169.2,90.9,169.2,90.9,169.1,90.9z M168.8,91.6
			c0,0.1-0.1,0.1-0.1,0.1c-1.6,2.7-3,5.5-4.6,8.2c-0.8,1.2-1.5,2.3-2.4,3.4c-0.6,0.7-1.2,1.3-2.1,1.6c-0.1,0.1-0.3,0.1-0.4,0.1
			c-0.4,0-0.7-0.2-0.9-0.7c-0.1-0.1-0.1-0.3-0.1-0.4c0-0.5,0.3-0.8,0.8-1.1c0.1,0,0.2,0,0.2-0.2c0-0.1-0.1-0.1-0.2-0.1l0,0
			c-0.7,0-1.3,0.2-1.9,0.7c-0.4,0.4-0.6,0.8-0.6,1.2c0,0.6,0.4,1.1,1.1,1.3c0.6,0.2,1.2,0.3,1.8,0.3c0.9,0,1.8-0.2,2.7-0.6
			c1.4-0.6,2.2-1.7,3.1-2.9c1.5-1.9,2.5-4.1,3.7-6.2c0.2-0.3,0.3-0.5,0.7-0.5h0.1c0.5,0.1,0.9,0.1,1.4,0.1c1.2,0.1,1.9,0.8,2.3,1.9
			c0.1,0.4,0.2,0.8,0.2,1.2c0,1.7-0.8,3.6-2.1,4.6c-0.7,0.5-1.3,0.8-2,0.8s-1.4-0.3-2.1-0.9c-0.4-0.3-0.8-0.5-1.2-0.5
			c-0.2,0-0.5,0.1-0.7,0.1c-0.4,0.1-0.6,0.4-0.6,0.8c0,0.2,0.1,0.3,0.2,0.4c0.3,0.4,0.7,0.7,1.2,0.9c0.9,0.4,1.7,0.7,2.6,0.8
			c0.4,0,0.8,0.1,1.1,0.1c2.2,0,4.1-0.8,5.5-2.6c0.7-0.9,1.1-2.1,1.1-3.3c0-1.5-0.7-3-2.4-4.1c-0.2-0.1-0.4-0.2-0.7-0.4
			c0.4-0.1,0.7-0.1,1-0.2c2.8-0.5,5-3.1,5-6c0-2-1-3.6-2.5-4.8c-0.2-0.2-0.6-0.3-0.6-0.5l0,0c0.1-0.3,0.5-0.4,0.8-0.5
			c0,0,0.1,0,0.1-0.1c0.2-0.1,0.4-0.1,0.5-0.1c0.4,0,0.6,0.2,0.6,0.9c0,0.3,0.1,0.5,0.4,0.6c0.2,0.1,0.4,0.1,0.6,0.1
			c0.2,0,0.5-0.1,0.8-0.2c0.3-0.2,0.4-0.5,0.4-0.7s-0.1-0.4-0.2-0.6c-0.3-0.3-0.6-0.6-1-0.7c-0.5-0.2-0.9-0.2-1.4-0.2
			c-0.9,0-1.7,0.2-2.5,0.7c-0.1,0.1-0.3,0.2-0.4,0.2c-0.1,0-0.1,0-0.2-0.1c-1.4-0.5-2.8-0.7-4.2-0.7c-0.2,0-0.5,0-0.7,0
			c-2.5,0-4.9,0.6-7,1.9c-1.4,0.9-2.6,2-3.2,3.6c-0.2,0.6-0.4,1.3-0.4,1.8c0,1.6,0.9,2.9,2.9,3.5c0.6,0.2,1.2,0.3,1.7,0.3
			s0.9,0,1.4-0.1C166.7,93.3,167.9,92.7,168.8,91.6z"/>
		<path class="st0" d="M181.8,100.1c0.7-1.4,1.6-2.4,3.1-2.9c0.1-0.1,0.2-0.1,0.3-0.1s0.2,0.1,0.2,0.2s0,0.2,0,0.3
			c-0.1,0.4-0.2,0.7-0.4,1C184.1,99.4,183.1,99.9,181.8,100.1 M182.9,100.9c0.4,0,0.7,0,1.1-0.1c1.4-0.3,2.6-1,3.1-2.4
			c0.1-0.3,0.1-0.6,0.1-0.8c0-0.8-0.6-1.4-1.6-1.5c-0.3-0.1-0.6-0.1-0.9-0.1c-3.3,0-6.7,3.1-6.8,6.4v0.1c0,1.9,1.4,3.3,3.2,3.3
			c0.2,0,0.3,0,0.5,0c1.4-0.2,2.6-0.9,3.7-1.8c1.1-0.9,2.1-1.9,3.1-2.9c0.1-0.1,0.2-0.1,0.2-0.2v-0.1c-0.1-0.1-0.2-0.1-0.3-0.1
			s-0.1,0-0.1,0c-0.1,0.1-0.2,0.2-0.3,0.2c-1.1,1-2.2,2.1-3.6,2.8c-0.7,0.4-1.5,0.6-2.3,0.6h-0.2c-0.8,0-1.2-0.6-1.2-1.2
			c0-0.1,0-0.2,0-0.2c0.1-0.6,0.3-1.1,0.5-1.6c0.1-0.2,0.2-0.3,0.4-0.3c0.1,0,0.1,0,0.2,0C182.2,100.8,182.6,100.8,182.9,100.9z"/>
		<path class="st0" d="M191.5,106.7c-1,2.1-1.9,4.2-3,6.2c-0.5,0.8-1.2,1.4-2.1,1.7c-0.3,0.1-0.7,0.2-1,0.2c-0.5,0-1-0.2-1.4-0.6
			c-0.5-0.4-0.7-1-0.7-1.6c0-0.2,0-0.5,0.1-0.8c0.5-1.8,1.8-2.9,3.4-3.7c0.9-0.4,1.9-0.6,2.8-0.8
			C190.2,107.1,190.8,106.9,191.5,106.7 M195.6,104.5C195.6,104.4,195.6,104.4,195.6,104.5c0-0.2,0-0.2,0.1-0.3
			c0.6-1.5,1.3-3,1.9-4.5c0.3-0.8,0.7-1.5,0.9-2.3c0-0.1,0.1-0.2,0.1-0.4c0-0.1-0.1-0.3-0.2-0.4c-0.2-0.1-0.5-0.2-0.8-0.2
			c-0.5,0-1.1,0.2-1.3,0.6c-0.6,0.9-1.1,1.8-1.5,2.8c-0.7,1.4-1.3,2.8-2.3,4c-0.4,0.5-0.9,0.9-1.5,1.1c-0.1,0-0.2,0-0.3,0
			c-0.5,0-0.9-0.4-0.9-0.9v-0.1c0-0.2,0-0.4,0.1-0.5c0.4-1.3,0.9-2.7,1.4-4c0.3-0.8,0.7-1.5,0.9-2.4v-0.1c0-0.2-0.1-0.4-0.3-0.5
			s-0.5-0.2-0.8-0.2c-0.5,0-1,0.3-1.3,0.8c-0.9,1.4-1.5,2.9-1.8,4.6c-0.1,0.5-0.2,1.1-0.2,1.6s0.1,1.1,0.3,1.6
			c0.4,0.8,1,1.2,1.9,1.2h0.1c0.4,0,0.8-0.1,1.2-0.3c0.6-0.3,1-0.7,1.4-1.1c-0.3,0.8-0.5,1.8-1.6,1.9c-0.3,0.1-0.6,0.2-0.9,0.3
			c-1.1,0.3-2.1,0.5-3.2,0.9c-1.9,0.7-3.3,1.9-3.9,4c-0.1,0.4-0.2,0.7-0.2,1.1c0,1.3,0.9,2.3,2.4,2.7c0.3,0.1,0.6,0.1,1,0.1
			c1,0,1.9-0.3,2.8-0.8c1.6-0.8,2.5-2.2,3.4-3.6c1-1.8,2-3.6,2.8-5.5c0.1-0.3,0.3-0.5,0.6-0.6c1.7-0.8,2.9-2.2,4.2-3.5
			c0-0.1,0.1-0.1,0.1-0.2c0,0,0-0.1-0.1-0.1c-0.1-0.1-0.1-0.1-0.2-0.1c-0.1,0-0.1,0-0.2,0.1c-0.1,0.1-0.2,0.2-0.3,0.3
			C198.1,102.5,196.9,103.6,195.6,104.5z"/>
		<path class="st0" d="M207.8,98.2c0,0.2,0.1,0.3,0.1,0.5c0,0.5-0.2,1-0.3,1.4c-0.1,0.1-0.2,0.1-0.3,0.2c-1.2,0.3-2.2,1.5-2.2,2.7
			c0,0.2,0,0.3,0.1,0.5v0.1c0,0.1-0.1,0.2-0.2,0.3c-0.6,0.5-1.3,0.9-2.1,1.1c-0.1,0-0.2,0.1-0.4,0.1c-0.5,0-0.9-0.3-1-0.9
			c-0.1-0.2-0.1-0.5-0.1-0.7c0-0.3,0.1-0.7,0.1-1c0.5-1.7,1.4-3.2,2.8-4.3c0.5-0.4,1.1-0.7,1.7-0.9c0.1,0,0.2-0.1,0.4-0.1
			s0.5,0.1,0.6,0.3c0.1,0.1,0.1,0.2,0.1,0.4c0,0.2-0.1,0.4-0.2,0.6l-0.1,0.1c0,0,0,0.1,0.1,0.1c0,0.1,0.1,0.1,0.1,0.1h0.1
			C207.3,98.6,207.5,98.4,207.8,98.2 M206,95.9c-4,0-6.8,3.3-6.9,5.9v0.3c0,1.9,1,3.4,3.1,3.4c0.2,0,0.4,0,0.6,0
			c0.9-0.1,1.7-0.6,2.5-1.1c0.1-0.1,0.2-0.2,0.4-0.2c0.1,0,0.1,0,0.2,0.1c0.4,0.2,0.8,0.3,1.2,0.3c0.5,0,0.9-0.1,1.4-0.4
			c1.4-0.7,2.4-2,3.4-3.2c0.1-0.1,0.1-0.1,0.1-0.2v-0.1c-0.1-0.1-0.1-0.1-0.2-0.1h-0.1c-0.2,0-0.3,0.2-0.4,0.3
			c-0.6,0.6-1.2,1.2-1.8,1.7c-0.6,0.4-1.2,0.7-1.9,0.9c-0.1,0-0.1,0-0.2,0c-0.2,0-0.4-0.1-0.5-0.3c-0.1-0.1-0.1-0.1-0.1-0.2
			s0.2-0.2,0.2-0.3c0.9-1,1.5-2.2,1.9-3.5c0.1-0.3,0.1-0.6,0.1-0.9c0-0.6-0.2-1.2-0.7-1.7C207.6,96.1,206.7,95.9,206,95.9z"/>
		<path class="st0" d="M214.4,98.1c0.2-0.4,0.3-0.7,0.5-1.1c0-0.1,0.1-0.2,0.1-0.2c0-0.2-0.1-0.4-0.2-0.5c-0.2-0.2-0.6-0.3-1-0.3
			c-0.7,0-1.4,0.3-1.6,0.9c-1.1,2.4-2.1,4.7-3.1,7.1c-0.1,0.3-0.2,0.6-0.3,0.9c0,0.1,0,0.1,0,0.1c0,0.2,0.1,0.4,0.3,0.6
			s0.6,0.2,0.9,0.2c0.6,0,1.1-0.2,1.4-0.7c0.2-0.3,0.4-0.6,0.5-1c0.5-1,1-2,1.4-3.1c0.4-1,1-1.7,1.7-2.3c0.9-0.7,1.8-1.4,2.9-1.7
			c0.2-0.1,0.5-0.2,0.7-0.2c0.1,0,0.2,0.1,0.3,0.1c0.1,0.1,0.1,0.2,0.1,0.4c0,0.2-0.1,0.5-0.2,0.7c-0.1,0.4-0.3,0.8-0.4,1.1
			c-0.6,1.4-1.2,2.8-1.5,4.2c-0.1,0.2-0.1,0.4-0.1,0.6c0,1.2,0.8,2,2.1,2c0.9,0,1.7-0.4,2.3-1c1.4-1.2,2.7-2.6,3.9-4.1
			c0.1-0.1,0.2-0.2,0.2-0.3c0,0,0-0.1-0.1-0.1c-0.1-0.1-0.2-0.1-0.2-0.1s-0.2,0-0.2,0.1c-0.2,0.2-0.4,0.4-0.6,0.6
			c-0.9,1-1.8,1.9-2.8,2.8c-0.3,0.3-0.7,0.4-1.1,0.5c-0.1,0-0.2,0-0.2,0c-0.2,0-0.4-0.1-0.4-0.4c0-0.1,0-0.2,0-0.2
			c0.1-0.2,0.2-0.5,0.3-0.7c0.6-1.1,1.1-2.3,1.5-3.6c0.1-0.3,0.1-0.7,0.1-1c0-1.4-1-2.3-2.5-2.3c-0.9,0-1.7,0.3-2.5,0.7
			C215.8,97.1,215.2,97.6,214.4,98.1"/>
		<path class="st0" d="M225.5,102.9c0.1-2.2,0.8-4.2,2.7-5.5c0.4-0.3,0.9-0.5,1.4-0.5c0.2,0,0.4,0,0.6,0.1c0.4,0.2,0.7,0.4,0.7,0.7
			c0,0.1-0.1,0.3-0.1,0.5c-0.4,1-0.8,2.1-1.1,3.2c-0.2,0.7-0.6,1.2-1.1,1.7c-0.5,0.7-1.1,1.3-1.9,1.7c-0.1,0.1-0.3,0.1-0.4,0.1
			c-0.2,0-0.3-0.1-0.5-0.3C225.6,104,225.5,103.5,225.5,102.9 M237.1,100.8c-0.2-0.1-0.3-0.1-0.4-0.1c-0.2,0-0.3,0.1-0.5,0.2
			c-0.5,0.6-1.1,1.1-1.6,1.7c-0.4,0.5-0.9,0.8-1.6,1.2c-0.2,0.1-0.5,0.3-0.8,0.3c-0.2,0-0.3,0-0.4-0.2c-0.2-0.2-0.2-0.4-0.2-0.6
			s0.1-0.5,0.2-0.7c1.7-3.9,3.4-7.9,5.1-11.8c0.4-1,0.8-1.9,1.2-2.9c0.1-0.2,0.1-0.3,0.1-0.4c0-0.3-0.2-0.4-0.6-0.6
			c-0.3-0.1-0.6-0.1-0.8-0.1c-0.7,0-1.2,0.4-1.5,1.2c-1.3,2.9-2.5,5.7-3.8,8.6c-0.1,0.1-0.1,0.2-0.2,0.2c0,0-0.1,0-0.2-0.1
			c-0.6-0.4-1.4-0.6-2.1-0.6c-0.4,0-0.7,0.1-1.1,0.1c-2.5,0.6-3.9,2.3-4.7,4.7c-0.1,0.4-0.2,0.9-0.2,1.3c0,0.5,0.1,1.1,0.3,1.6
			c0.5,1.2,1.5,1.8,2.5,1.8c0.7,0,1.4-0.3,2-0.9c0.5-0.5,0.9-1,1.3-1.5c0.1-0.1,0.1-0.2,0.2-0.2h0.1c0.1,0.1,0.1,0.2,0.1,0.3
			c0,0.2,0,0.4,0.1,0.6c0.3,1.1,1.1,1.7,1.9,1.7c0.4,0,0.8-0.1,1.2-0.4C234.5,103.9,235.7,102.3,237.1,100.8z"/>
		<path class="st0" d="M260.9,84.3c-0.3,0.3-0.6,0.5-0.8,0.7c-1.2,1.3-2.1,2.8-3,4.4c-2,3.4-3.8,6.9-5.8,10.2
			c-0.9,1.5-1.8,3-3.1,4.3c-0.5,0.5-1.1,0.9-1.7,1.1c-0.1,0-0.2,0.1-0.2,0.1c-0.2,0-0.4-0.1-0.6-0.3c-0.2-0.2-0.4-0.6-0.4-0.9
			c0-0.4,0.3-0.8,0.8-1.1c0.1-0.1,0.3-0.1,0.3-0.2l0,0c0-0.1-0.1-0.1-0.2-0.1H246c-0.5,0-0.9,0.1-1.4,0.4c-0.6,0.3-1,0.8-1,1.5v0.1
			c0.1,0.8,0.7,1.1,1.4,1.2c0.6,0.1,1.1,0.2,1.6,0.2c1.7,0,3.2-0.7,4.5-2.1c1.1-1.1,1.9-2.4,2.6-3.7c2-3.6,4.1-7.2,6-10.9
			c0.7-1.3,1.4-2.6,2.2-3.9c0.1-0.1,0.2-0.2,0.3-0.2c0,0,0.1,0.1,0.2,0.2c0.5,0.5,1,1,1.2,1.7c0.5,1.2,0.7,2.4,0.8,3.8
			c0,0.2,0,0.4,0,0.7c0,1.6-0.4,3.2-0.8,4.8c-0.7,2.4-1.7,4.7-3.5,6.6c-0.9,1-2,1.7-3.4,1.9c-0.2,0-0.3,0-0.5,0
			c-0.7,0-1.4-0.2-2-0.8c-0.4-0.4-0.9-0.6-1.4-0.6c-0.3,0-0.6,0.1-0.9,0.1c-0.3,0.1-0.6,0.3-0.6,0.6v0.1c0,0.3,0.2,0.5,0.5,0.6
			c1.3,0.9,3,1.4,4.6,1.4c1.6,0,3.2-0.4,4.5-1.3c2.2-1.5,3.7-3.5,4.6-5.9c0.8-2.2,1.4-4.4,1.4-6.6c0-1-0.1-1.9-0.3-2.9
			c-0.4-1.9-1.2-3.6-2.9-4.8c-0.2-0.2-0.7-0.3-0.7-0.5l0,0c0.1-0.3,0.5-0.4,0.9-0.6c0,0,0.1,0,0.1-0.1c0.2-0.1,0.4-0.1,0.5-0.1
			c0.4,0,0.6,0.2,0.6,0.9c0,0.3,0.1,0.5,0.4,0.6c0.2,0.1,0.4,0.1,0.6,0.1s0.5-0.1,0.7-0.2c0.3-0.2,0.5-0.5,0.5-0.8
			c0-0.2-0.1-0.4-0.2-0.6c-0.2-0.3-0.6-0.5-1-0.6c-0.5-0.2-1-0.2-1.4-0.2c-0.9,0-1.7,0.2-2.6,0.7c-0.1,0.1-0.2,0.2-0.4,0.2h-0.1
			c-1.4-0.6-2.8-0.7-4.2-0.8c-0.3,0-0.6,0-0.9,0c-2.4,0-4.8,0.5-6.9,1.9c-1.5,0.9-2.7,2.1-3.2,3.8c-0.2,0.6-0.3,1.2-0.3,1.7
			c0,0.8,0.3,1.6,1,2.3c0.9,0.9,2,1.3,3.2,1.4c0.2,0,0.4,0,0.6,0c1.8,0,3.4-0.6,4.6-2.1c0.4-0.5,0.6-1,0.6-1.7c0-0.1,0-0.2,0-0.4
			c-0.2-1.4-1.7-2.1-3-2.1c-0.3,0-0.7,0.1-0.9,0.2s-0.2,0.2-0.2,0.2s0.1,0.2,0.2,0.2c0.4,0.3,0.8,0.6,0.9,1.1
			c0.1,0.2,0.1,0.4,0.1,0.7c0,0.9-0.6,1.8-1.6,2.2c-0.2,0.1-0.5,0.2-0.7,0.2c-0.4,0-0.7-0.2-1-0.5s-0.4-0.7-0.4-1.1
			c0-0.2,0-0.3,0-0.5c0-0.7,0.2-1.3,0.5-1.8c1.5-2.9,3.8-4.5,7.1-4.8c0.2,0,0.5,0,0.7,0C258.9,83.6,259.9,83.8,260.9,84.3"/>
		<path class="st0" d="M270.4,100.1c0.7-1.4,1.6-2.4,3.1-2.9c0.1-0.1,0.2-0.1,0.3-0.1s0.2,0.1,0.2,0.2s0,0.2,0,0.3
			c0,0.4-0.2,0.7-0.4,1C272.7,99.4,271.7,99.9,270.4,100.1 M271.5,100.9c0.4,0,0.7,0,1.1-0.1c1.4-0.3,2.6-1,3.1-2.4
			c0.1-0.3,0.1-0.6,0.1-0.8c0-0.8-0.5-1.4-1.6-1.5c-0.3-0.1-0.6-0.1-0.9-0.1c-3.3,0-6.7,3.1-6.8,6.4v0.1c0,1.9,1.4,3.3,3.2,3.3
			c0.2,0,0.3,0,0.5,0c1.4-0.2,2.6-0.9,3.7-1.8c1.1-0.9,2.1-1.9,3.1-2.9c0-0.1,0.2-0.1,0.2-0.2v-0.1c-0.1-0.1-0.2-0.1-0.3-0.1h-0.1
			c-0.1,0.1-0.2,0.2-0.3,0.2c-1.1,1-2.2,2.1-3.6,2.8c-0.7,0.4-1.5,0.6-2.3,0.6h-0.2c-0.8,0-1.2-0.6-1.2-1.2c0-0.1,0-0.2,0-0.2
			c0.1-0.6,0.3-1.1,0.5-1.6c0.1-0.2,0.2-0.3,0.4-0.3c0.1,0,0.1,0,0.2,0C270.8,100.8,271.1,100.8,271.5,100.9z"/>
		<path class="st0" d="M281.6,101v-0.2c0-0.9-0.6-1.2-1.5-1.4c0.7-0.4,1.3-0.8,2.1-1.3C281.8,99.1,281.8,100.1,281.6,101
			 M280.1,101.9c0.1,0.1,0.2,0.1,0.4,0.1c0.3,0,0.5-0.2,1-0.8c0,0.9-0.9,2.7-1.6,3.1c-0.2,0.2-0.4,0.2-0.7,0.2c-0.3,0-0.7-0.2-1-0.5
			c-0.4-0.4-0.5-0.8-0.5-1.3c0-0.1,0-0.3,0-0.4c0.2-0.9,0.6-1.7,1.4-2.2c0.2-0.1,0.4-0.2,0.7-0.2h0.1c0.4,0,0.7,0.2,0.9,0.6
			c0.1,0.1,0.1,0.2,0.1,0.3c0,0.3-0.2,0.6-0.4,0.7C280.3,101.7,280.2,101.8,280.1,101.9z M285.4,97.2c0,0.1,0,0.1,0,0.2
			c0,0.2-0.1,0.3-0.2,0.5c0,0.1-0.1,0.2-0.1,0.2c0,0.2,0.1,0.3,0.4,0.4c0.1,0,0.1,0,0.2,0c0.4,0,0.8-0.2,0.9-0.6
			c0.1-0.1,0.1-0.3,0.1-0.4c0-0.2-0.1-0.5-0.3-0.7c-0.4-0.4-0.9-0.6-1.4-0.6c-0.2,0-0.5,0.1-0.8,0.1c-0.9,0.2-1.6,0.7-2.3,1.1
			c-1.3,0.8-2.5,1.7-3.8,2.3c-0.8,0.4-1.2,1-1.6,1.8c-0.2,0.4-0.2,0.8-0.2,1.2c0,1.4,0.9,2.6,2.2,2.9c0.5,0.1,0.9,0.2,1.4,0.2
			c1,0,2-0.3,3-0.9c1.6-1,2.9-2.4,5-4.2c0.1-0.1,0.1-0.1,0.1-0.2c0,0,0,0,0-0.1s-0.2-0.1-0.3-0.1c-0.3,0-0.4,0.2-0.6,0.4
			c-1.6,1.3-2.5,2.2-3.4,3c-0.2,0.2-0.5,0.4-0.8,0.6v-0.1c0-0.1,0.1-0.2,0.1-0.3c0.6-0.7,1-1.7,1.2-2.7c0.1-0.6,0.1-1.3,0.1-1.9
			C284.4,98.7,284.7,97.8,285.4,97.2z"/>
		<path class="st0" d="M294.5,101.2c-0.1-0.1-0.2-0.1-0.3-0.1c-0.1,0-0.2,0.1-0.4,0.2c-0.7,0.7-1.3,1.3-2,1.9
			c-0.5,0.5-1.1,0.9-1.8,1.1c-0.1,0-0.1,0-0.2,0c-0.2,0-0.4-0.1-0.5-0.4c-0.1-0.2-0.1-0.4-0.1-0.6s0-0.5,0.2-0.8
			c1.2-2.7,2.3-5.4,3.5-8.1c0.1-0.3,0.3-0.3,0.5-0.3c0.7,0,1.3,0,2,0c0.2,0,0.5-0.1,0.5-0.3c0-0.2-0.3-0.3-0.5-0.3
			c-0.2-0.1-0.5-0.1-0.8-0.1c-0.2,0-0.5,0-0.8,0s-0.4,0-0.4-0.2c0-0.1,0-0.2,0.1-0.3c0.4-0.9,0.8-1.8,1.2-2.8c0-0.2,0.1-0.3,0.1-0.5
			s0-0.3-0.2-0.5s-0.6-0.4-1-0.4c-0.5,0-1.2,0.2-1.4,0.7c-0.7,1.1-1.1,2.3-1.6,3.4c-0.1,0.2-0.2,0.4-0.5,0.4h-2
			c-0.4,0-0.8,0-0.8,0.4c0,0.3,0.4,0.3,0.7,0.3h2.1c-0.1,0.2-0.1,0.4-0.2,0.5c-0.8,1.9-1.7,3.7-2.4,5.6c-0.3,0.9-0.6,1.7-0.6,2.7
			c0,0.3,0,0.6,0.1,0.9c0.2,1.1,0.8,1.9,1.6,2c0.1,0,0.3,0.1,0.4,0.1c0.7,0,1.3-0.4,1.8-0.9c1.2-1,2.2-2.2,3.2-3.3
			C294.2,101.5,294.4,101.4,294.5,101.2"/>
		<path class="st0" d="M296.3,92.7c0,0.9,0.5,1.4,1.4,1.4c0.9,0,1.5-0.6,1.5-1.4s-0.6-1.4-1.4-1.4l0,0
			C296.9,91.3,296.3,91.9,296.3,92.7 M300.5,100.7c-0.1-0.1-0.2-0.1-0.3-0.1c-0.1,0-0.3,0.1-0.4,0.2c-0.9,0.9-1.8,2-3,2.7
			c-0.3,0.1-0.5,0.3-0.9,0.3c-0.1,0-0.3,0-0.4-0.1c-0.2-0.2-0.3-0.5-0.3-0.7s0-0.4,0-0.6c0-0.1,0-0.2,0.1-0.3
			c0.2-0.6,0.5-1.2,0.7-1.7c0.4-1.1,0.9-2.2,1.3-3.2c0.1-0.2,0.1-0.4,0.1-0.5c0-0.4-0.3-0.7-0.8-0.8c-0.1,0-0.2-0.1-0.4-0.1
			c-0.6,0-1.2,0.4-1.5,1c-0.6,1.1-1.1,2.1-1.4,3.3c-0.3,0.8-0.5,1.7-0.5,2.5c0,0.2,0,0.5,0.1,0.8c0.2,1.2,0.9,2,1.8,2.1
			c0.1,0,0.2,0,0.3,0c0.7,0,1.2-0.4,1.8-0.8c0.7-0.6,1.4-1.3,2.1-2C299.4,102,300,101.4,300.5,100.7z"/>
		<path class="st0" d="M302.8,98.1c0.2-0.4,0.3-0.7,0.5-1.1c0-0.1,0.1-0.2,0.1-0.2c0-0.2-0.1-0.4-0.2-0.5c-0.2-0.2-0.6-0.3-1-0.3
			c-0.7,0-1.4,0.3-1.6,0.9c-1,2.4-2.1,4.7-3.1,7.1c-0.1,0.3-0.2,0.6-0.3,0.9c0,0.1,0,0.1,0,0.1c0,0.2,0.1,0.4,0.3,0.6
			c0.2,0.2,0.6,0.2,0.9,0.2c0.5,0,1.1-0.2,1.4-0.7c0.2-0.3,0.4-0.6,0.5-1c0.5-1,1-2,1.4-3.1c0.4-1,1-1.7,1.7-2.3
			c0.9-0.7,1.8-1.4,2.9-1.7c0.2-0.1,0.5-0.2,0.7-0.2c0.1,0,0.2,0.1,0.3,0.1c0.1,0.1,0.1,0.2,0.1,0.4c0,0.2-0.1,0.5-0.2,0.7
			c-0.1,0.4-0.3,0.8-0.4,1.1c-0.6,1.4-1.2,2.8-1.5,4.2c0,0.2-0.1,0.4-0.1,0.6c0,1.2,0.8,2,2.1,2c0.9,0,1.7-0.4,2.3-1
			c1.4-1.2,2.7-2.6,3.9-4.1c0-0.1,0.2-0.2,0.2-0.3c0,0,0-0.1-0.1-0.1c-0.1-0.1-0.2-0.1-0.2-0.1s-0.2,0-0.2,0.1
			c-0.2,0.2-0.4,0.4-0.5,0.6c-0.9,1-1.8,1.9-2.8,2.8c-0.3,0.3-0.7,0.4-1.1,0.5c-0.1,0-0.2,0-0.2,0c-0.2,0-0.4-0.1-0.4-0.4
			c0-0.1,0-0.2,0-0.2c0.1-0.2,0.2-0.5,0.3-0.7c0.6-1.1,1.1-2.3,1.5-3.6c0.1-0.3,0.1-0.7,0.1-1c0-1.4-1-2.3-2.5-2.3
			c-0.9,0-1.7,0.3-2.5,0.7C304.1,97.1,303.5,97.6,302.8,98.1"/>
		<path class="st0" d="M313.9,103.6v-0.2c0.2-1.8,0.8-3.5,1.9-5c0.7-0.9,1.6-1.6,2.8-1.7c0.3,0,0.6,0.1,0.8,0.3
			c0.2,0.2,0.4,0.4,0.4,0.7c0,0.1,0,0.2-0.1,0.4c-0.9,2-1.9,4-3.5,5.6c-0.4,0.4-0.8,0.8-1.4,1.1c-0.1,0.1-0.2,0.1-0.4,0.1
			c-0.2,0-0.4-0.1-0.5-0.5C313.9,104.1,313.9,103.9,313.9,103.6 M325.7,100.8c-0.1,0-0.2-0.1-0.3-0.1c-0.2,0-0.4,0.1-0.5,0.3
			c-0.3,0.4-0.6,0.7-0.9,1c-0.8,0.7-1.5,1.5-2.6,2c-0.1,0.1-0.3,0.1-0.4,0.1c-0.1,0-0.2,0-0.3-0.1s-0.1-0.2-0.1-0.4
			c0-0.1,0-0.2,0-0.3l0.1-0.2c0.5-1.7,1.3-3.3,2-5c0.1-0.4,0.2-0.7,0.3-1.1c0-0.1,0-0.2,0-0.2c0-0.5-0.3-0.8-0.9-0.8
			c-0.7,0-1.2,0.2-1.6,0.8c-0.1,0.1-0.1,0.1-0.2,0.1c0,0-0.1-0.1-0.2-0.1c-0.4-0.4-0.9-0.6-1.4-0.7c-0.2,0-0.4-0.1-0.7-0.1
			c-1,0-1.9,0.3-2.7,0.7c-2.3,1.1-3.8,3.4-3.8,5.7c0,0.1,0,0.3,0,0.4c0.1,1.1,0.6,1.9,1.6,2.3c0.4,0.2,0.8,0.3,1.2,0.3
			c0.5,0,1-0.2,1.5-0.5c0.4-0.2,0.7-0.6,1-0.9c0.5-0.5,0.9-1,1.4-1.5c0,0.5,0,0.9,0.1,1.3c0.3,1.1,1.1,1.8,2.1,1.8
			c0.3,0,0.7-0.1,1-0.2c0.2-0.1,0.5-0.3,0.7-0.4C323.3,103.8,324.4,102.3,325.7,100.8z"/>
		<path class="st0" d="M331.3,101.2c-0.1-0.1-0.2-0.1-0.3-0.1c-0.1,0-0.2,0.1-0.4,0.2c-0.7,0.7-1.3,1.3-2,1.9
			c-0.5,0.5-1.1,0.9-1.8,1.1c-0.1,0-0.1,0-0.2,0c-0.2,0-0.4-0.1-0.5-0.4c-0.1-0.2-0.1-0.4-0.1-0.6s0-0.5,0.2-0.8
			c1.2-2.7,2.3-5.4,3.5-8.1c0.1-0.3,0.3-0.3,0.5-0.3c0.7,0,1.3,0,2,0c0.2,0,0.5-0.1,0.5-0.3c0-0.2-0.3-0.3-0.5-0.3
			c-0.2-0.1-0.5-0.1-0.8-0.1c-0.2,0-0.5,0-0.8,0s-0.4,0-0.4-0.2c0-0.1,0-0.2,0.1-0.3c0.4-0.9,0.8-1.8,1.2-2.8c0-0.2,0.1-0.3,0.1-0.5
			s0-0.3-0.2-0.5s-0.6-0.4-1-0.4c-0.5,0-1.2,0.2-1.4,0.7c-0.7,1.1-1.1,2.3-1.6,3.4c-0.1,0.2-0.2,0.4-0.5,0.4h-2
			c-0.4,0-0.8,0-0.8,0.4c0,0.3,0.4,0.3,0.7,0.3h2.1c-0.1,0.2-0.1,0.4-0.2,0.5c-0.8,1.9-1.7,3.7-2.4,5.6c-0.3,0.9-0.6,1.7-0.6,2.7
			c0,0.3,0,0.6,0.1,0.9c0.2,1.1,0.8,1.9,1.6,2c0.1,0,0.3,0.1,0.4,0.1c0.7,0,1.3-0.4,1.8-0.9c1.2-1,2.2-2.2,3.2-3.3
			C331,101.5,331.2,101.4,331.3,101.2"/>
		<path class="st0" d="M333,92.7c0,0.9,0.5,1.4,1.4,1.4c0.9,0,1.5-0.6,1.5-1.4s-0.6-1.4-1.4-1.4l0,0C333.6,91.3,333,91.9,333,92.7
			 M337.3,100.7c-0.1-0.1-0.2-0.1-0.3-0.1c-0.1,0-0.3,0.1-0.4,0.2c-0.9,0.9-1.8,2-3,2.7c-0.3,0.1-0.5,0.3-0.9,0.3
			c-0.1,0-0.3,0-0.4-0.1c-0.2-0.2-0.3-0.5-0.3-0.7s0-0.4,0-0.6c0-0.1,0-0.2,0.1-0.3c0.2-0.6,0.5-1.2,0.7-1.7
			c0.4-1.1,0.9-2.2,1.3-3.2c0.1-0.2,0.1-0.4,0.1-0.5c0-0.4-0.3-0.7-0.8-0.8c-0.1,0-0.2-0.1-0.4-0.1c-0.6,0-1.2,0.4-1.5,1
			c-0.6,1.1-1.1,2.1-1.4,3.3c-0.3,0.8-0.5,1.7-0.5,2.5c0,0.2,0,0.5,0.1,0.8c0.2,1.2,0.9,2,1.8,2.1c0.1,0,0.2,0,0.3,0
			c0.7,0,1.2-0.4,1.8-0.8c0.7-0.6,1.4-1.3,2.1-2C336.2,102,336.8,101.4,337.3,100.7z"/>
		<path class="st0" d="M344,98.2c0,0.2,0,0.3,0,0.5c0,0.5-0.2,1-0.3,1.4c0,0.1-0.2,0.1-0.3,0.2c-1.2,0.3-2.2,1.5-2.2,2.7
			c0,0.2,0,0.3,0,0.5v0.1c0,0.1-0.1,0.2-0.2,0.3c-0.6,0.5-1.3,0.9-2.1,1.1c-0.1,0-0.2,0.1-0.4,0.1c-0.5,0-0.9-0.3-1-0.9
			c-0.1-0.2-0.1-0.5-0.1-0.7c0-0.3,0-0.7,0.1-1c0.5-1.7,1.4-3.2,2.8-4.3c0.5-0.4,1.1-0.7,1.7-0.9c0.1,0,0.2-0.1,0.4-0.1
			c0.2,0,0.5,0.1,0.6,0.3c0.1,0.1,0.1,0.2,0.1,0.4c0,0.2-0.1,0.4-0.2,0.6l-0.1,0.1v0.1c0,0.1,0.1,0.1,0.1,0.1h0.1
			C343.5,98.6,343.7,98.4,344,98.2 M342.2,95.9c-4,0-6.8,3.3-6.9,5.9v0.3c0,1.9,1,3.4,3.1,3.4c0.2,0,0.4,0,0.6,0
			c0.9-0.1,1.7-0.6,2.5-1.1c0.1-0.1,0.2-0.2,0.4-0.2c0,0,0.1,0,0.2,0.1c0.4,0.2,0.8,0.3,1.2,0.3c0.5,0,0.9-0.1,1.4-0.4
			c1.4-0.7,2.4-2,3.4-3.2c0-0.1,0.1-0.1,0.1-0.2v-0.1c0-0.1-0.1-0.1-0.2-0.1h-0.1c-0.2,0-0.3,0.2-0.4,0.3c-0.6,0.6-1.2,1.2-1.8,1.7
			c-0.5,0.4-1.2,0.7-1.9,0.9c-0.1,0-0.1,0-0.2,0c-0.2,0-0.4-0.1-0.5-0.3c0-0.1-0.1-0.1-0.1-0.2s0.2-0.2,0.2-0.3
			c0.9-1,1.5-2.2,1.9-3.5c0.1-0.3,0.1-0.6,0.1-0.9c0-0.6-0.2-1.2-0.7-1.7C343.7,96.1,342.9,95.9,342.2,95.9z"/>
		<path class="st0" d="M350.6,98.1c0.2-0.4,0.3-0.7,0.5-1.1c0-0.1,0-0.2,0-0.2c0-0.2-0.1-0.4-0.2-0.5c-0.2-0.2-0.6-0.3-1-0.3
			c-0.7,0-1.4,0.3-1.6,0.9c-1,2.4-2.1,4.7-3.1,7.1c-0.1,0.3-0.2,0.6-0.3,0.9c0,0.1,0,0.1,0,0.1c0,0.2,0.1,0.4,0.3,0.6
			c0.2,0.2,0.6,0.2,0.9,0.2c0.5,0,1.1-0.2,1.4-0.7c0.2-0.3,0.4-0.6,0.5-1c0.5-1,1-2,1.4-3.1c0.4-1,1-1.7,1.7-2.3
			c0.9-0.7,1.8-1.4,2.9-1.7c0.2-0.1,0.5-0.2,0.7-0.2c0.1,0,0.2,0.1,0.3,0.1c0.1,0.1,0.1,0.2,0.1,0.4c0,0.2-0.1,0.5-0.2,0.7
			c-0.1,0.4-0.3,0.8-0.4,1.1c-0.6,1.4-1.2,2.8-1.5,4.2c-0.1,0.2-0.1,0.4-0.1,0.6c0,1.2,0.8,2,2.1,2c0.9,0,1.7-0.4,2.3-1
			c1.4-1.2,2.7-2.6,3.9-4.1c0-0.1,0.2-0.2,0.2-0.3c0,0,0-0.1-0.1-0.1c-0.1-0.1-0.2-0.1-0.2-0.1s-0.2,0-0.2,0.1
			c-0.2,0.2-0.4,0.4-0.5,0.6c-0.9,1-1.8,1.9-2.8,2.8c-0.3,0.3-0.7,0.4-1.1,0.5c-0.1,0-0.2,0-0.2,0c-0.2,0-0.4-0.1-0.4-0.4
			c0-0.1,0-0.2,0-0.2c0.1-0.2,0.2-0.5,0.3-0.7c0.6-1.1,1.1-2.3,1.5-3.6c0.1-0.3,0.1-0.7,0.1-1c0-1.4-1-2.3-2.5-2.3
			c-0.9,0-1.7,0.3-2.5,0.7C352,97.1,351.4,97.6,350.6,98.1"/>
		<path class="st0" d="M364.5,101v-0.2c0-0.9-0.6-1.2-1.5-1.4c0.7-0.4,1.3-0.8,2.1-1.3C364.8,99.1,364.8,100.1,364.5,101
			 M363.1,101.9c0.1,0.1,0.2,0.1,0.4,0.1c0.3,0,0.5-0.2,1-0.8c0,0.9-0.9,2.7-1.6,3.1c-0.2,0.2-0.4,0.2-0.7,0.2c-0.3,0-0.7-0.2-1-0.5
			c-0.4-0.4-0.5-0.8-0.5-1.3c0-0.1,0-0.3,0-0.4c0.2-0.9,0.6-1.7,1.4-2.2c0.2-0.1,0.4-0.2,0.7-0.2h0.1c0.4,0,0.7,0.2,0.9,0.6
			c0,0.1,0.1,0.2,0.1,0.3c0,0.3-0.2,0.6-0.4,0.7C363.3,101.7,363.1,101.8,363.1,101.9z M368.4,97.2c0,0.1,0,0.1,0,0.2
			c0,0.2-0.1,0.3-0.2,0.5c0,0.1-0.1,0.2-0.1,0.2c0,0.2,0.1,0.3,0.4,0.4c0.1,0,0.1,0,0.2,0c0.4,0,0.7-0.2,0.9-0.6
			c0.1-0.1,0.1-0.3,0.1-0.4c0-0.2-0.1-0.5-0.3-0.7c-0.4-0.4-0.9-0.6-1.4-0.6c-0.2,0-0.5,0.1-0.8,0.1c-0.9,0.2-1.6,0.7-2.3,1.1
			c-1.3,0.8-2.5,1.7-3.8,2.3c-0.8,0.4-1.2,1-1.6,1.8c-0.2,0.4-0.2,0.8-0.2,1.2c0,1.4,0.9,2.6,2.2,2.9c0.5,0.1,0.9,0.2,1.4,0.2
			c1,0,2-0.3,3-0.9c1.6-1,2.9-2.4,5-4.2c0.1-0.1,0.1-0.1,0.1-0.2c0,0,0,0,0-0.1s-0.2-0.1-0.3-0.1c-0.3,0-0.4,0.2-0.6,0.4
			c-1.6,1.3-2.5,2.2-3.4,3c-0.2,0.2-0.5,0.4-0.8,0.6v-0.1c0-0.1,0.1-0.2,0.1-0.3c0.6-0.7,1-1.7,1.2-2.7c0.1-0.6,0.1-1.3,0.1-1.9
			C367.4,98.7,367.6,97.8,368.4,97.2z"/>
	</g>
	<g>
		<g>
			<polygon class="st1" points="142.6,86.1 140,94.3 131.4,94.3 138.4,99.3 135.7,107.4 142.6,102.4 149.5,107.4 146.9,99.3 
				153.8,94.3 145.3,94.3 			"/>
			<polygon class="st1" points="113.4,86.1 110.8,94.3 102.2,94.3 109.2,99.3 106.5,107.4 113.4,102.4 120.3,107.4 117.7,99.3 
				124.6,94.3 116.1,94.3 			"/>
			<polygon class="st1" points="84.2,86.1 81.6,94.3 73,94.3 79.9,99.3 77.3,107.4 84.2,102.4 91.1,107.4 88.5,99.3 95.4,94.3 
				86.8,94.3 			"/>
		</g>
		<g>
			<polygon class="st1" points="443.3,86.1 440.6,94.3 432.1,94.3 439,99.3 436.4,107.4 443.3,102.4 450.2,107.4 447.5,99.3 
				454.5,94.3 445.9,94.3 			"/>
			<polygon class="st1" points="414.1,86.1 411.4,94.3 402.9,94.3 409.8,99.3 407.1,107.4 414.1,102.4 421,107.4 418.3,99.3 
				425.3,94.3 416.7,94.3 			"/>
			<polygon class="st1" points="384.9,86.1 382.2,94.3 373.7,94.3 380.6,99.3 377.9,107.4 384.9,102.4 391.8,107.4 389.1,99.3 
				396.1,94.3 387.5,94.3 			"/>
		</g>
	</g>
</g>
</svg>
