<?xml version="1.0" encoding="utf-8"?>
<!-- Generator: Adobe Illustrator 26.5.0, SVG Export Plug-In . SVG Version: 6.00 Build 0)  -->
<svg version="1.0" id="Layer_1" xmlns="http://www.w3.org/2000/svg" xmlns:xlink="http://www.w3.org/1999/xlink" x="0px" y="0px"
	 viewBox="0 0 527.5 123.6" style="enable-background:new 0 0 527.5 123.6;" xml:space="preserve">
<style type="text/css">
	.st0{fill:#FFFFFF;}
	.st1{fill-rule:evenodd;clip-rule:evenodd;fill:#FFFFFF;}
	.st2{enable-background:new    ;}
</style>
<g>
	<path class="st0" d="M33.4,55.1l2.3-10.9h7.5c4.4,0,6.6,1.6,6.6,4.3c0,4.6-2.6,6.5-8.3,6.5C41.5,55.1,33.4,55.1,33.4,55.1z
		 M37.4,36.6l2.2-10.1H45c4,0,6,1.4,6.1,4c0,4.1-2.7,6.1-7.5,6.1H37.4z M25.8,65.4h16.4c17,0,22.8-6.2,22.8-15.6
		c0-4.9-2.9-8.6-8.9-10.2c7.8-2,10.6-6.2,10.6-12.4c0-7.2-5.8-11-16.6-11H34.5c-4.9,0-8.1,2.2-9.3,7.5l-6.8,32.1
		C17,62.4,19.7,65.4,25.8,65.4z"/>
	<path class="st0" d="M102,66.3c7.4,0,8.8-5.1,8.6-5.2c-2-0.5-3-1.4-3-3.6c0-1.5,0.8-4.5,1.8-8.1c1.4-4.9,2.1-8.1,2.1-10.8
		c0-7.1-4.2-11.9-11.2-11.9c-5.3,0-9.9,3-12.7,7.3l3.3-15.2c1.1-5.4-2.4-7-6.3-7H83c-3.7,0-5.6,1.8-6.7,7l-8.4,39.9
		c-1.1,5.3,2.4,7,6.3,7h1.5c3.7,0,5.6-1.8,6.7-7L86,41.8c1.7-2.3,3.3-3.3,5.8-3.3c2.9,0,4.4,1.8,4.4,4.6c0,1.2-0.5,3.7-1.4,6.9
		c-1.2,4.4-1.8,6.6-1.8,8.9C93,63.4,95.6,66.3,102,66.3"/>
	<path class="st0" d="M134.9,55c-3.4,0-5.8-2.5-5.8-6.2c0-5.6,3.4-10.9,8.9-10.9c3.5,0,5.4,1.9,6.5,4.8l-0.9,4.6
		C142.6,52,139.1,55,134.9,55 M128.9,66.3c5.9,0,10.6-3.1,13.2-7.8c0.1,1.7,0.5,3.1,1.3,4.3c1.4,2.1,3.9,3.4,7.7,3.4
		c6.6,0,7.8-4,7.6-4.1c-2.6-0.8-3.3-2.6-2.4-7l5.6-26.1c0.1-0.5-2.1-1.8-4.9-1.8c-2.4,0-4.3,0.5-5.9,1.4c-1.6,1-2.9,2.5-3.9,4.7
		c-2.1-4.5-6.8-6.8-11.6-6.8c-12.2,0-20.4,11.9-20.4,24.5C115.2,60.5,120.8,66.3,128.9,66.3z"/>
	<path class="st0" d="M169.3,65.8h1.5c3.6,0,5.6-1.8,6.7-7l1.8-8.7c1.3-6.2,3.8-10.1,7.9-10.1c2.7,0,4.3,1.1,5.4,2.3
		c0.1,0.2,6.6-2,6.6-9.1c0-3.7-3.1-6.4-7.4-6.4c-4.9,0-8.7,3.4-10.6,8.1c-0.1-1.4-0.3-2.4-0.8-3.4c-1.3-2.9-4.1-4-6.9-4
		c-2.4,0-4.1,0.6-4.2,1L163,58.8C161.8,64.2,165.4,65.8,169.3,65.8"/>
	<path class="st0" d="M218.1,55c-3.4,0-5.8-2.5-5.8-6.2c0-5.6,3.4-10.9,8.9-10.9c3.5,0,5.4,1.9,6.5,4.8l-0.9,4.6
		C225.7,52,222.2,55,218.1,55 M212.1,66.3c5.9,0,10.6-3.1,13.2-7.8c0.1,1.7,0.5,3.1,1.3,4.3c1.4,2.1,3.9,3.4,7.7,3.4
		c6.6,0,7.8-4,7.6-4.1c-2.6-0.8-3.3-2.6-2.4-7l5.6-26.1c0.1-0.5-2.1-1.8-4.9-1.8c-2.4,0-4.3,0.5-5.9,1.4c-1.6,1-2.9,2.5-3.9,4.7
		c-2.1-4.5-6.8-6.8-11.6-6.8c-12.2,0-20.4,11.9-20.4,24.5C198.3,60.5,203.9,66.3,212.1,66.3z"/>
	<path class="st0" d="M289,61.1c-1.9-0.5-3-1.4-3-3.6c0-1.5,0.8-4.5,1.8-8.1c1.4-4.9,2.1-8.1,2.1-10.8c0-7.1-4.2-11.9-11.5-11.9
		c-6.1,0-10.3,3-13.6,7.7c-0.1-1.1-0.5-2.2-0.8-3c-1.4-2.9-4.2-4.1-7.1-4.1c-2.3,0-4.1,0.6-4.2,1l-6.5,30.4c-1.1,5.3,2.4,7,6.3,7
		h1.5c3.7,0,5.6-1.8,6.7-7l3.6-16.9c1.7-2.3,3.2-3.3,5.8-3.3c2.9,0,4.5,1.8,4.5,4.6c0,1.2-0.6,3.7-1.4,6.9c-1.3,4.4-1.8,6.6-1.8,8.9
		c0,4.4,2.6,7.4,9,7.4C287.9,66.3,289.3,61.2,289,61.1"/>
	<path class="st0" d="M303,66.3c6.9,0,8-4,7.9-4.1c-2.7-0.8-3.4-2.6-2.4-7l4.4-20.8c1.2-5.4-2.4-7-6.3-7h-1.5c-3.6,0-5.5,1.7-6.6,7
		l-4.4,20.2C292.7,61.1,294.5,66.3,303,66.3 M309,23.6c5,0,8.2-3.3,8.2-7.5c0-4.1-3.2-6.3-7.3-6.3c-5.1,0-8.3,3.3-8.3,7.4
		C301.7,21.3,304.7,23.6,309,23.6z"/>
	<path class="st0" d="M398.2,55c-3.4,0-5.8-2.5-5.8-6.2c0-5.6,3.4-10.9,8.9-10.9c3.5,0,5.4,1.9,6.5,4.8l-0.9,4.6
		C405.9,52,402.4,55,398.2,55 M392.2,66.3c5.9,0,10.6-3.1,13.2-7.8c0.1,1.7,0.5,3.1,1.3,4.3c1.4,2.1,3.9,3.4,7.7,3.4
		c6.6,0,7.8-4,7.6-4.1c-2.6-0.8-3.3-2.6-2.4-7l5.5-26.1c0.1-0.5-2.1-1.8-4.9-1.8c-2.4,0-4.3,0.5-5.9,1.4c-1.6,1-2.9,2.5-3.9,4.7
		c-2.1-4.5-6.8-6.8-11.6-6.8c-12.2,0-20.4,11.9-20.4,24.5C378.5,60.5,384.1,66.3,392.2,66.3z"/>
	<path class="st0" d="M449.7,55.2c-5,0-7.4-3.8-6.2-9.2l0.9-4.1c1.7-2.4,4.3-3.9,7.1-3.9c3.8,0,6.2,2.8,6.2,6.9
		C457.7,50.4,454.8,55.2,449.7,55.2 M452.5,66.3c11.7,0,19.1-11.6,19.1-23.6c0-10-6.2-15.9-14.4-15.9c-4.6,0-8.2,2-10.8,5.2
		l2.7-13.1c1.1-5.4-2.4-7-6.3-7h-1.5c-3.7,0-5.5,1.8-6.7,7L425.1,64c-0.1,0.5,2.2,1.8,5,1.8c3.2,0,5.6-0.8,7.4-2.9
		c1.1-1.1,1.8-2.2,2.5-3.7C442.3,63.9,447.3,66.3,452.5,66.3z"/>
	<path class="st0" d="M489.9,66.2c11,0,16.7-5.1,16.7-12.4c0-6.4-5.4-9-11.4-11.4c-3-1.2-5.2-2-5.2-3.6c0-1.4,1.3-2.4,3.7-2.4
		c4.2,0,8.4,2.8,10.9,6c0.3,0.3,4.8-1.6,4.8-6.2c0-1.8-0.7-3.2-1.9-4.3c-3-3-8.4-5-14.7-5c-10.6,0-16.1,5.7-16.1,12.6
		c0,7.1,5.5,9.5,10.6,11.7c2.6,0.9,4.3,1.8,4.3,3c0,1.6-1.2,2.5-3.6,2.5c-4.4,0-9.4-2.8-12.2-5.9c-0.3-0.4-4.2,1.7-4.2,5.5
		c0,1.8,0.9,3.5,2.4,4.9C476.7,64.1,482.2,66.2,489.9,66.2"/>
	<path class="st0" d="M354.9,66.4c6.9,0,12.5-2.6,15.7-5.8c2-2,3-4,3-6c0-5.8-7.3-7.5-7.6-7.1c-2.2,3.3-5.6,5.2-10,5.2
		c-5.7,0-9.6-4.3-9.6-10c0-7.6,5.5-13.8,12.8-13.8c4.6,0,7.6,2.4,9.2,6.2c0.2,0.5,9.9-0.3,9.9-8.2c0-1.7-0.9-4.3-3-6.3
		c-2.9-2.9-7.8-5.4-16.3-5.4c-16.6,0-28.3,13.7-28.3,29.1C330.8,57.8,340.2,66.4,354.9,66.4"/>
</g>
<g>
	<g>
		<polygon class="st1" points="142.6,86.1 140,94.3 131.4,94.3 138.4,99.3 135.7,107.4 142.6,102.4 149.5,107.4 146.9,99.3 
			153.8,94.3 145.3,94.3 		"/>
		<polygon class="st1" points="113.4,86.1 110.8,94.3 102.2,94.3 109.2,99.3 106.5,107.4 113.4,102.4 120.3,107.4 117.7,99.3 
			124.6,94.3 116.1,94.3 		"/>
		<polygon class="st1" points="84.2,86.1 81.6,94.3 73,94.3 79.9,99.3 77.3,107.4 84.2,102.4 91.1,107.4 88.5,99.3 95.4,94.3 
			86.8,94.3 		"/>
	</g>
	<g>
		<polygon class="st1" points="443.3,86.1 440.6,94.3 432.1,94.3 439,99.3 436.4,107.4 443.3,102.4 450.2,107.4 447.5,99.3 
			454.5,94.3 445.9,94.3 		"/>
		<polygon class="st1" points="414.1,86.1 411.4,94.3 402.9,94.3 409.8,99.3 407.1,107.4 414.1,102.4 421,107.4 418.3,99.3 
			425.3,94.3 416.7,94.3 		"/>
		<polygon class="st1" points="384.9,86.1 382.2,94.3 373.7,94.3 380.6,99.3 377.9,107.4 384.9,102.4 391.8,107.4 389.1,99.3 
			396.1,94.3 387.5,94.3 		"/>
	</g>
</g>
<g class="st2">
	<path class="st0" d="M172.9,95.3l-0.7,0.9c0.9,0.1,1.6,0.2,2.3,0.3c0.7,0.1,1.3,0.3,1.9,0.4c0.6,0.2,1.1,0.3,1.5,0.5
		c1.5,0.6,2.3,1.5,2.3,2.7c0,0.7-0.3,1.4-1,2.1c-0.6,0.7-1.5,1.3-2.5,1.8c-1,0.5-2.1,0.9-3.2,1.2c-1.1,0.3-2.1,0.4-3,0.4
		c-1.5,0-2.6-0.3-3.5-0.8s-1.2-1.3-1.2-2.3c0-0.7,0.3-1.4,0.8-2.3s1.3-2,2.4-3.4c-0.8,0-1.4-0.2-1.7-0.4c-0.3-0.2-0.5-0.5-0.5-0.8
		c0-0.2,0.1-0.4,0.2-0.5c0.1-0.1,0.3-0.2,0.5-0.3s0.6-0.1,1.2-0.2c0.6-0.1,1.4-0.2,2.4-0.3c1.1-1.3,2-2.3,2.9-3
		c0.8-0.7,1.8-1,2.7-1.1c0.1,0,0.2,0,0.3,0c0.1,0,0.1,0,0.1,0.1c0,0.1-0.1,0.2-0.3,0.5c-0.2,0.3-0.6,0.7-1.1,1.2
		c-0.5,0.6-1.1,1.2-1.8,2c1.8-0.2,3.3-0.5,4.5-0.8c1.2-0.3,2.1-0.7,2.6-1.1c0.6-0.4,0.9-0.9,0.9-1.5c0-0.7-0.3-1.1-1-1.4
		c-0.6-0.3-1.6-0.4-2.9-0.4c-0.7,0-1.6,0.1-2.5,0.2c-0.9,0.1-1.8,0.3-2.5,0.5c-0.8,0.2-1.4,0.4-2,0.6c-0.6,0.2-0.9,0.4-0.9,0.5
		c0,0,0,0.1,0.1,0.1c0.5,0.2,0.7,0.3,0.7,0.4c0,0.2-0.7,0.5-2.2,0.9c-1.5,0.4-2.5,0.7-3,0.7c-0.4,0-0.5-0.2-0.5-0.5
		c0-0.4,0.4-1.2,1.2-2.3c0.8-1.1,1.5-1.8,2.2-2.2c0.2-0.1,0.7-0.3,1.6-0.5s1.7-0.5,2.7-0.7c1-0.2,2-0.4,3-0.5c1-0.1,1.9-0.2,2.7-0.2
		c1.8,0,3.2,0.3,4.2,1c0.9,0.7,1.4,1.5,1.4,2.5c0,0.7-0.2,1.3-0.6,2c-0.4,0.6-1.1,1.2-2,1.8s-2.1,1-3.5,1.5
		C176.5,94.8,174.8,95.1,172.9,95.3z M171.3,97.2c-0.5,0.6-1,1.1-1.4,1.6s-0.7,0.8-0.9,1.1c-0.2,0.3-0.3,0.6-0.3,0.9
		c0,0.5,0.2,0.9,0.7,1.3c0.5,0.4,1.2,0.6,2.1,0.6c0.8,0,1.7-0.1,2.7-0.4c1-0.3,1.8-0.7,2.4-1.2c0.7-0.5,1-1,1-1.5
		c0-0.4-0.2-0.8-0.7-1c-0.5-0.3-1.2-0.5-2.2-0.7C173.9,97.6,172.7,97.4,171.3,97.2z"/>
	<path class="st0" d="M183.8,101.2v0.4c0,0.6,0.1,1,0.4,1.4c0.3,0.3,0.7,0.5,1.1,0.5c0.5,0,1-0.1,1.5-0.3c0.5-0.2,1-0.5,1.5-0.9
		s1.1-0.9,1.9-1.5v0.9c-1.1,1.3-2.1,2.4-3.1,3.1c-1,0.7-2,1.1-3,1.1c-0.9,0-1.6-0.3-2.1-1c-0.5-0.7-0.8-1.6-0.8-2.8
		c0-1,0.2-2,0.7-2.8c0.5-0.8,1.3-1.7,2.3-2.7c0.7-0.6,1.5-1.1,2.2-1.4c0.7-0.3,1.4-0.5,2-0.5c0.5,0,0.8,0.1,1.1,0.3s0.4,0.5,0.4,0.9
		c0,0.6-0.2,1.2-0.7,1.8c-0.5,0.6-1.2,1.2-2.1,1.8C186.3,100,185.2,100.6,183.8,101.2z M183.9,100.2c0.9-0.3,1.6-0.8,2.3-1.3
		c0.6-0.5,1.1-1,1.4-1.5c0.3-0.5,0.4-0.8,0.4-1c0-0.2-0.1-0.3-0.3-0.3c-0.2,0-0.5,0.1-0.9,0.3c-0.4,0.2-0.8,0.5-1.2,0.9
		s-0.8,0.8-1.1,1.3C184.2,99.1,184,99.6,183.9,100.2z"/>
	<path class="st0" d="M197,101.2l-2.6,2.2c-1.2,1.1-2.1,1.6-2.5,1.6c-0.4,0-0.8-0.4-1.2-1.3s-0.6-1.6-0.6-2.3c0-0.6,0.1-1,0.3-1.4
		s0.5-0.9,0.9-1.5c0.6-0.8,1.2-1.5,1.7-2.1s1-1,1.5-1.3c0.4-0.3,0.7-0.5,0.9-0.5c0.3,0,0.5,0.1,0.8,0.4c0.2,0.3,0.4,0.6,0.4,0.9
		c0,0.2-0.1,0.5-0.4,0.9s-0.7,0.9-1.3,1.6c-0.6,0.6-1.4,1.4-2.4,2.3l-0.3,0.8c-0.1,0.2-0.1,0.3-0.1,0.4c0,0.3,0.1,0.4,0.4,0.4
		c0.3,0,0.9-0.3,1.9-1c1-0.7,2.1-1.6,3.3-2.8c0.5-0.5,0.8-0.9,1.1-1.2c0.3-0.4,0.6-0.7,0.8-1s0.4-0.5,0.6-0.7
		c0.2-0.2,0.3-0.2,0.4-0.2c0.2,0,0.4,0.1,0.6,0.3c0.1,0.2,0.2,0.6,0.2,1c0,0.3-0.1,0.6-0.4,1c-0.2,0.4-0.7,1.1-1.3,2
		c-0.6,1-1.3,1.9-1.9,3c-0.6,1-1.3,2.2-2,3.5c0,0,0.3-0.3,0.9-0.9c0.6-0.6,1.2-1.1,1.8-1.7c0.6-0.6,1.2-1.1,1.6-1.5s0.9-0.8,1.5-1.3
		v1c-1.3,1.4-2.5,2.8-3.6,4s-1.9,2.3-2.5,3.1c-0.6,0.8-0.9,1.2-1,1.3c-0.3,0.3-0.5,0.7-0.7,1c-0.2,0.3-0.4,0.5-0.5,0.7
		c-0.1,0.2-0.3,0.2-0.3,0.2c-0.2,0-0.4-0.2-0.6-0.6c-0.2-0.4-0.2-0.8-0.2-1.1c0-0.3,0.1-0.5,0.2-0.7
		C192.9,107.9,194.5,105.1,197,101.2z"/>
	<path class="st0" d="M210.9,100.6v1c-0.6,0.6-1.2,1-1.6,1.2c-0.4,0.2-1,0.3-1.7,0.2c-1.3,1.5-2.4,2.3-3.4,2.3c-0.5,0-1-0.2-1.5-0.5
		s-0.8-0.9-1.1-1.5c-0.3-0.6-0.4-1.3-0.4-2.1c0-0.6,0.2-1.3,0.6-2.1s1-1.5,1.6-2.1c0.7-0.7,1.4-1.2,2.1-1.6c0.8-0.4,1.5-0.6,2.1-0.6
		c0.5,0,0.8,0.1,1.1,0.2c0.3,0.1,0.4,0.3,0.4,0.6c0,0.2-0.1,0.4-0.3,0.7c0.4,0.1,0.6,0.2,0.8,0.4s0.2,0.5,0.2,1
		c0,0.5-0.1,1.1-0.3,1.8c-0.2,0.7-0.5,1.4-0.9,2l0.3,0.3h0.2c0.2,0,0.3,0,0.5-0.1s0.3-0.2,0.4-0.3
		C210.2,101.1,210.5,100.9,210.9,100.6z M207.9,96.7c-0.8,0.5-1.5,0.9-2.1,1.3c-0.6,0.4-1.1,0.8-1.5,1.2s-0.7,0.8-0.8,1.2
		c-0.2,1.1-0.4,1.7-0.4,1.8c0,0.6,0.4,1,1.4,1c0.4,0,1.1-0.4,2.1-1.1c-0.2-0.5-0.2-0.9-0.2-1.3c0-0.6,0.1-1.2,0.4-1.9
		C207,98.3,207.4,97.6,207.9,96.7z"/>
	<path class="st0" d="M220.8,98c-1.7,1.9-2.6,3.3-2.6,4c0,0.4,0.2,0.6,0.5,0.6c0.3,0,0.7-0.1,1.1-0.4c0.5-0.3,1.2-0.8,2.1-1.6v1
		c-1.4,1.4-2.5,2.4-3.2,3c-0.7,0.6-1.4,0.9-1.8,0.9c-0.8,0-1.2-0.5-1.2-1.6c0-0.3,0-0.6,0.1-0.9c0.1-0.3,0.2-0.6,0.4-0.9
		c0.2-0.3,0.4-0.8,0.8-1.4s0.8-1.3,1.2-2.1c-0.6,0.3-1.3,0.8-2.1,1.7c-0.5,0.5-1,1-1.4,1.5c-0.4,0.5-0.8,1-1.2,1.6s-0.8,1-1,1.2
		c-0.2,0.2-0.4,0.3-0.6,0.3c-0.3,0-0.6-0.3-0.9-1c-0.3-0.7-0.4-1.4-0.4-2.3c0-0.5,0.1-1,0.2-1.3c0.1-0.3,0.4-0.7,0.7-1.3
		c0.7-1,1.3-1.8,1.7-2.3s1-0.7,1.4-0.7c0.3,0,0.6,0.1,0.8,0.2c0.2,0.1,0.3,0.3,0.3,0.5c0,0.1,0,0.2-0.1,0.3
		c-0.1,0.1-0.1,0.2-0.2,0.3c-0.1,0.1-0.2,0.3-0.5,0.5c-1.5,1.7-2.3,2.8-2.3,3.3c0,0.3,0.1,0.4,0.3,0.4c0.1,0,0.3-0.2,0.7-0.6
		s0.8-0.9,1.3-1.5c0.5-0.6,1.2-1.2,1.9-1.9c0.7-0.7,1.6-1.3,2.5-1.9c0.5-0.4,0.9-0.5,1.3-0.5c0.2,0,0.3,0.2,0.5,0.6
		c0.2,0.4,0.2,0.9,0.2,1.3C221.4,97.2,221.2,97.5,220.8,98z"/>
	<path class="st0" d="M228.6,100.7c-0.9,1-1.6,1.8-2.3,2.5c-0.7,0.7-1.2,1.2-1.7,1.5c-0.4,0.3-0.7,0.5-0.9,0.5
		c-0.3,0-0.5-0.2-0.9-0.6c-0.3-0.4-0.6-0.9-0.8-1.6c-0.2-0.6-0.3-1.3-0.3-1.9c0-0.9,0.5-1.9,1.4-2.9c0.9-1,2-1.8,3.1-2.4
		c1.2-0.6,2.1-1,2.6-1c0.5,0,0.9,0.3,1.4,0.9c0.8-1.6,1.5-3,2.2-4.2s1.2-2.1,1.7-2.7c0.5-0.6,0.8-0.9,1-0.9c0.2,0,0.4,0.1,0.6,0.3
		c0.2,0.2,0.3,0.4,0.3,0.7c0,0.5-0.4,1.4-1.1,2.6c-0.7,1.2-1.5,2.4-2.2,3.6c-0.7,1.2-1.3,2.3-1.9,3.5c-0.5,1.1-0.8,2.2-0.8,3.2
		c0,0.9,0.3,1.3,0.9,1.3c0.3,0,0.8-0.2,1.3-0.6c0.5-0.4,1.3-1,2.2-1.9v1.1c-2.1,2.7-3.7,4.1-4.9,4.1c-0.5,0-0.8-0.2-1-0.5
		s-0.3-0.9-0.3-1.6C228.2,102.8,228.3,101.7,228.6,100.7z M229.7,97.1c-0.9,0.3-1.9,0.8-3.1,1.4c-1.2,0.7-1.9,1.1-2.1,1.3
		c-0.2,0.2-0.4,0.6-0.6,1.1c-0.2,0.5-0.2,0.9-0.2,1.2c0,0.2,0,0.3,0.1,0.4c0.1,0.1,0.2,0.2,0.4,0.2c0.1,0,0.3-0.1,0.5-0.2
		c0.2-0.1,0.5-0.3,0.8-0.7c0.4-0.3,0.6-0.6,0.8-0.7c0.2-0.1,0.5-0.5,1.1-0.9c0.6-0.5,1-0.9,1.3-1.1c0.3-0.3,0.5-0.6,0.7-0.9
		C229.5,97.9,229.6,97.5,229.7,97.1z"/>
	<path class="st0" d="M244.2,92.3c0,0.1,0.1,0.1,0.2,0.1c0.1,0,0.5-0.1,1.2-0.2c0.7-0.1,1.4-0.2,1.9-0.2c-0.6,0.2-1.2,0.4-1.7,0.5
		c-0.5,0.2-0.9,0.4-1.4,0.6c-0.5,0.2-0.8,0.4-1.1,0.4s-0.4,0.1-0.6,0.1c-0.5,0-0.7-0.3-0.7-1c0-1.7,0.4-2.8,1.3-3.5
		c0.3-0.3,0.9-0.6,1.7-1c0.8-0.4,1.6-0.7,2.6-1.1s2-0.6,3.1-0.9c1.1-0.2,2.3-0.4,3.4-0.4c1.1,0,2.2,0.2,3.2,0.5
		c1,0.3,1.8,0.8,2.4,1.4c0.6,0.6,1.1,1.3,1.5,2.2c0.3,0.9,0.5,1.8,0.5,2.9c0,1.7-0.5,3.3-1.4,4.8c-1,1.6-2.2,2.9-3.8,4.1
		s-3.4,2.1-5.4,2.8s-4,1-5.9,1c-0.4,0-0.6,0-0.9-0.1s-0.4-0.2-0.4-0.5c-0.1-0.2-0.1-0.6-0.1-1c0-0.6,0-1,0.1-1.4
		c0.1-0.4,0.2-0.8,0.4-1.2c1.4-3.1,3.9-7.1,7.4-11.8c-0.7,0.1-1.5,0.2-2.3,0.4c-0.8,0.2-1.6,0.5-2.4,0.7c-0.8,0.3-1.4,0.5-1.9,0.8
		C244.4,92.1,244.2,92.2,244.2,92.3z M252,89.8c0,0,0,0.1,0.1,0.3c0,0.2,0.1,0.4,0.1,0.5c0,0.2-0.1,0.5-0.3,0.9s-0.7,1.1-1.4,2.2
		s-1.3,1.9-1.7,2.7s-1,1.8-1.7,3c-0.2,0.4-0.3,0.7-0.4,0.8c-0.1,0.1-0.2,0.4-0.4,0.7c-0.2,0.3-0.3,0.6-0.4,0.8
		c-0.1,0.2-0.1,0.4-0.1,0.5c0,0.3,0.1,0.4,0.4,0.5s0.7,0.2,1.2,0.2c1.3,0,2.7-0.2,4.2-0.7s2.9-1.2,4.2-2s2.4-1.8,3.1-2.9
		c0.8-1.1,1.2-2.2,1.2-3.4c0-1.4-0.5-2.4-1.5-3.1c-1-0.7-2.4-1.1-4.3-1.1C253.4,89.7,252.7,89.7,252,89.8z"/>
	<path class="st0" d="M264.6,101.2v0.4c0,0.6,0.1,1,0.4,1.4c0.3,0.3,0.7,0.5,1.1,0.5c0.5,0,1-0.1,1.5-0.3c0.5-0.2,1-0.5,1.5-0.9
		s1.1-0.9,1.9-1.5v0.9c-1.1,1.3-2.1,2.4-3.1,3.1s-2,1.1-3,1.1c-0.9,0-1.6-0.3-2.1-1c-0.5-0.7-0.8-1.6-0.8-2.8c0-1,0.2-2,0.7-2.8
		c0.5-0.8,1.3-1.7,2.3-2.7c0.7-0.6,1.5-1.1,2.2-1.4c0.7-0.3,1.4-0.5,2-0.5c0.5,0,0.8,0.1,1.1,0.3c0.3,0.2,0.4,0.5,0.4,0.9
		c0,0.6-0.2,1.2-0.7,1.8c-0.5,0.6-1.2,1.2-2.1,1.8C267.2,100,266,100.6,264.6,101.2z M264.8,100.2c0.9-0.3,1.6-0.8,2.3-1.3
		s1.1-1,1.4-1.5c0.3-0.5,0.4-0.8,0.4-1c0-0.2-0.1-0.3-0.3-0.3c-0.2,0-0.5,0.1-0.9,0.3c-0.4,0.2-0.8,0.5-1.2,0.9s-0.8,0.8-1.1,1.3
		C265.1,99.1,264.9,99.6,264.8,100.2z"/>
	<path class="st0" d="M271,101v-0.4c2.5-2.7,4.3-4.5,5.2-5.6c0.2-1.2,0.7-1.8,1.6-1.8c0.2,0,0.4,0.1,0.7,0.2l0.1,0.3
		c0,0.1-0.1,0.3-0.1,0.5c0,0.2,0.1,0.5,0.2,1c0.1,0.5,0.3,0.9,0.3,1.3c0.1,0.3,0.1,0.7,0.1,1.2c0,0.6-0.1,1.3-0.4,1.9
		c-0.3,0.6-0.7,1.2-1.3,1.7c-0.6,0.5-1.3,1.1-2.2,1.7c0.4,0.1,0.6,0.1,0.8,0.1c0.4,0,0.8-0.1,1.3-0.3c0.5-0.2,0.9-0.5,1.4-0.8
		s1-0.8,1.7-1.3v1c-1.3,1.2-2.4,2.2-3.4,2.8c-1,0.6-1.8,0.9-2.6,0.9c-0.9,0-1.8-0.4-2.6-1.2c-0.5-0.5-0.7-0.9-0.9-1.4
		C271.1,102.4,271,101.8,271,101z M276.5,98.8l-0.3-2.1c-0.6,0.7-1.9,2-3.9,3.9c0.6,0.1,1,0.3,1.2,0.5c0.2,0.2,0.5,0.6,0.9,1.2
		c0.7-0.3,1.2-0.6,1.5-1.1c0.4-0.5,0.5-1.1,0.5-1.9c0-0.1,0-0.2,0-0.3C276.5,98.9,276.5,98.9,276.5,98.8z"/>
	<path class="st0" d="M285.6,93h0.6c0.5-0.9,1-1.6,1.4-2c0.4-0.4,0.9-0.6,1.4-0.6s0.8,0.1,0.8,0.4c0,0.1-0.2,0.4-0.6,1
		c-0.4,0.5-0.7,1-1,1.3c0.3,0,0.6,0.1,0.9,0.1c0.3,0,0.5,0.1,0.6,0.1c-0.6,1-1.3,2.1-2.1,3.2c-0.3,0-0.5,0-0.7-0.1s-0.4,0-0.6,0
		c-0.2,0-0.4,0-0.7-0.1c-0.5,0.9-1,1.6-1.3,2.3c-0.4,0.7-0.6,1.3-0.8,1.8c-0.2,0.6-0.3,1.1-0.3,1.6c0,0.7,0.3,1,0.8,1
		c0.4,0,0.9-0.2,1.5-0.6c0.6-0.4,1.4-1,2.4-1.8v1c-2.6,2.9-4.6,4.3-5.9,4.3c-0.4,0-0.8-0.2-1.1-0.5c-0.3-0.3-0.4-0.8-0.4-1.3
		c0-0.4,0.1-0.8,0.2-1.3c0.2-0.5,0.4-1.3,0.8-2.3c-0.1,0.1-0.3,0.2-0.4,0.3c-0.1,0.1-0.2,0.2-0.3,0.3c-0.1,0.1-0.2,0.2-0.3,0.3
		c-0.1,0.1-0.2,0.2-0.4,0.3v-1c1-0.9,2.3-2.4,3.7-4.5c-0.1,0-0.3,0-0.4,0c-0.1,0-0.3,0-0.5,0c-0.6,0-1,0-1.3,0.1
		c-0.1,0-0.2,0.1-0.3,0.1c-0.1,0-0.2,0.1-0.2,0.1s-0.1,0-0.1-0.1c0-0.3,0.2-0.8,0.6-1.5c0.3-0.5,0.6-1,0.9-1.2
		c0.3-0.3,0.6-0.4,1.1-0.5S284.8,93,285.6,93z"/>
	<path class="st0" d="M295,100.6v1.1c-0.9,1.2-1.8,2.1-2.7,2.8c-0.8,0.6-1.5,0.9-2.1,0.9c-0.8,0-1.4-0.4-1.8-1.3
		c-0.4-0.8-0.6-1.8-0.6-2.8c0-0.4,0-0.7,0.1-1.1c0.1-0.3,0.2-0.6,0.3-0.9c0.1-0.2,0.3-0.6,0.6-1.1c1.4-2.2,2.7-3.2,3.8-3.2
		c0.6,0,0.9,0.2,0.9,0.7c0,0.3-0.2,0.8-0.6,1.5c-0.4,0.7-0.7,1.1-1,1.4c-0.9,0.8-1.4,1.4-1.7,1.7c-0.3,0.3-0.4,0.7-0.4,1.1
		c0,0.4,0.1,0.6,0.4,0.9c0.3,0.2,0.6,0.4,1,0.4c0.5,0,1-0.2,1.5-0.5C293.4,101.9,294.1,101.4,295,100.6z M294,94.1
		c-0.2,0-0.5-0.1-0.7-0.3c-0.2-0.2-0.3-0.4-0.3-0.7c0-0.4,0.2-0.9,0.6-1.4s0.8-0.8,1.3-0.8c0.3,0,0.5,0.1,0.7,0.3
		c0.2,0.2,0.3,0.4,0.3,0.8c0,0.4-0.2,0.9-0.6,1.4S294.4,94.1,294,94.1z"/>
	<path class="st0" d="M304.7,98c-1.7,1.9-2.6,3.3-2.6,4c0,0.4,0.2,0.6,0.5,0.6c0.3,0,0.7-0.1,1.1-0.4c0.5-0.3,1.2-0.8,2.1-1.6v1
		c-1.4,1.4-2.5,2.4-3.2,3c-0.7,0.6-1.4,0.9-1.8,0.9c-0.8,0-1.2-0.5-1.2-1.6c0-0.3,0-0.6,0.1-0.9s0.2-0.6,0.4-0.9
		c0.2-0.3,0.4-0.8,0.8-1.4s0.8-1.3,1.2-2.1c-0.6,0.3-1.3,0.8-2.1,1.7c-0.5,0.5-1,1-1.4,1.5c-0.4,0.5-0.8,1-1.2,1.6s-0.8,1-1,1.2
		c-0.2,0.2-0.4,0.3-0.6,0.3c-0.3,0-0.6-0.3-0.9-1c-0.3-0.7-0.4-1.4-0.4-2.3c0-0.5,0.1-1,0.2-1.3c0.1-0.3,0.4-0.7,0.7-1.3
		c0.7-1,1.3-1.8,1.7-2.3s1-0.7,1.4-0.7c0.3,0,0.6,0.1,0.8,0.2c0.2,0.1,0.3,0.3,0.3,0.5c0,0.1,0,0.2-0.1,0.3
		c-0.1,0.1-0.1,0.2-0.2,0.3s-0.2,0.3-0.5,0.5c-1.5,1.7-2.3,2.8-2.3,3.3c0,0.3,0.1,0.4,0.3,0.4c0.1,0,0.3-0.2,0.7-0.6
		s0.8-0.9,1.3-1.5c0.5-0.6,1.2-1.2,1.9-1.9c0.7-0.7,1.6-1.3,2.5-1.9c0.5-0.4,0.9-0.5,1.3-0.5c0.2,0,0.3,0.2,0.5,0.6
		c0.2,0.4,0.2,0.9,0.2,1.3C305.4,97.2,305.2,97.5,304.7,98z"/>
	<path class="st0" d="M307.5,98c1.5-1.4,2.9-2.4,4.3-3c1.4-0.7,2.5-1,3.2-1c0.2,0,0.4,0.1,0.6,0.3c0.2,0.2,0.3,0.4,0.4,0.6
		c0.1,0.2,0.2,0.4,0.2,0.5c0,0.2-0.1,0.3-0.2,0.4c-0.1,0.1-0.4,0.2-0.7,0.3c0.1,0.2,0.2,0.4,0.3,0.6c0.1,0.2,0.2,0.4,0.2,0.6
		c0.1,0.2,0.1,0.3,0.1,0.4c0,0.2-0.2,0.7-0.7,1.3c-0.5,0.6-0.8,1.1-1,1.4c-0.2,0.3-0.3,0.7-0.3,1.1c0,0.7,0.3,1.1,1,1.1
		c0.7,0,1.8-0.6,3.2-1.9v0.9c-2.5,2.8-4.2,4.1-5.3,4.1c-0.4,0-0.7-0.1-0.8-0.4c-0.2-0.2-0.2-0.6-0.2-1.1c0-0.8,0.3-1.9,0.8-3.4
		c-1.4,1.6-2.5,2.7-3.2,3.4c-0.7,0.7-1.3,1-1.7,1c-0.2,0-0.5-0.2-0.8-0.6c-0.3-0.4-0.6-0.9-0.9-1.4c-0.2-0.6-0.4-1.2-0.4-1.8
		c0-0.5,0-0.8,0.1-1.2s0.3-0.6,0.5-0.9C306.6,98.9,307,98.5,307.5,98z M314.6,96.4c-2.5,1.2-4.4,2.2-5.4,3c-1.1,0.8-1.6,1.6-1.6,2.5
		c0,0.3,0.1,0.6,0.2,0.8c0.1,0.2,0.3,0.3,0.4,0.3c0.1,0,0.3-0.1,0.6-0.2c1-0.6,2-1.4,2.8-2.4C312.4,99.4,313.4,98.1,314.6,96.4z"/>
	<path class="st0" d="M323.2,93h0.6c0.5-0.9,1-1.6,1.4-2c0.4-0.4,0.9-0.6,1.4-0.6s0.8,0.1,0.8,0.4c0,0.1-0.2,0.4-0.6,1
		c-0.4,0.5-0.7,1-1,1.3c0.3,0,0.6,0.1,0.9,0.1c0.3,0,0.5,0.1,0.6,0.1c-0.6,1-1.3,2.1-2.1,3.2c-0.3,0-0.5,0-0.7-0.1s-0.4,0-0.6,0
		c-0.2,0-0.4,0-0.7-0.1c-0.5,0.9-1,1.6-1.3,2.3c-0.4,0.7-0.6,1.3-0.8,1.8c-0.2,0.6-0.3,1.1-0.3,1.6c0,0.7,0.3,1,0.8,1
		c0.4,0,0.9-0.2,1.5-0.6c0.6-0.4,1.4-1,2.4-1.8v1c-2.6,2.9-4.6,4.3-5.9,4.3c-0.4,0-0.8-0.2-1.1-0.5c-0.3-0.3-0.4-0.8-0.4-1.3
		c0-0.4,0.1-0.8,0.2-1.3c0.2-0.5,0.4-1.3,0.8-2.3c-0.1,0.1-0.3,0.2-0.4,0.3c-0.1,0.1-0.2,0.2-0.3,0.3c-0.1,0.1-0.2,0.2-0.3,0.3
		c-0.1,0.1-0.2,0.2-0.4,0.3v-1c1-0.9,2.3-2.4,3.7-4.5c-0.1,0-0.3,0-0.4,0c-0.1,0-0.3,0-0.5,0c-0.6,0-1,0-1.3,0.1
		c-0.1,0-0.2,0.1-0.3,0.1c-0.1,0-0.2,0.1-0.2,0.1s-0.1,0-0.1-0.1c0-0.3,0.2-0.8,0.6-1.5c0.3-0.5,0.6-1,0.9-1.2
		c0.3-0.3,0.6-0.4,1.1-0.5S322.4,93,323.2,93z"/>
	<path class="st0" d="M332.6,100.6v1.1c-0.9,1.2-1.8,2.1-2.7,2.8c-0.8,0.6-1.5,0.9-2.1,0.9c-0.8,0-1.4-0.4-1.8-1.3
		c-0.4-0.8-0.6-1.8-0.6-2.8c0-0.4,0-0.7,0.1-1.1c0.1-0.3,0.2-0.6,0.3-0.9c0.1-0.2,0.3-0.6,0.6-1.1c1.4-2.2,2.7-3.2,3.8-3.2
		c0.6,0,0.9,0.2,0.9,0.7c0,0.3-0.2,0.8-0.6,1.5c-0.4,0.7-0.7,1.1-1,1.4c-0.9,0.8-1.4,1.4-1.7,1.7c-0.3,0.3-0.4,0.7-0.4,1.1
		c0,0.4,0.1,0.6,0.4,0.9c0.3,0.2,0.6,0.4,1,0.4c0.5,0,1-0.2,1.5-0.5C331,101.9,331.7,101.4,332.6,100.6z M331.6,94.1
		c-0.2,0-0.5-0.1-0.7-0.3c-0.2-0.2-0.3-0.4-0.3-0.7c0-0.4,0.2-0.9,0.6-1.4s0.8-0.8,1.3-0.8c0.3,0,0.5,0.1,0.7,0.3
		c0.2,0.2,0.3,0.4,0.3,0.8c0,0.4-0.2,0.9-0.6,1.4S332,94.1,331.6,94.1z"/>
	<path class="st0" d="M341.9,100.6v1c-0.6,0.6-1.2,1-1.6,1.2c-0.4,0.2-1,0.3-1.7,0.2c-1.3,1.5-2.4,2.3-3.4,2.3c-0.5,0-1-0.2-1.5-0.5
		s-0.8-0.9-1.1-1.5c-0.3-0.6-0.4-1.3-0.4-2.1c0-0.6,0.2-1.3,0.6-2.1s1-1.5,1.6-2.1c0.7-0.7,1.4-1.2,2.1-1.6s1.5-0.6,2.1-0.6
		c0.5,0,0.8,0.1,1.1,0.2c0.3,0.1,0.4,0.3,0.4,0.6c0,0.2-0.1,0.4-0.3,0.7c0.4,0.1,0.6,0.2,0.8,0.4c0.1,0.2,0.2,0.5,0.2,1
		c0,0.5-0.1,1.1-0.3,1.8c-0.2,0.7-0.5,1.4-0.9,2l0.3,0.3h0.2c0.2,0,0.3,0,0.5-0.1c0.2-0.1,0.3-0.2,0.4-0.3
		C341.2,101.1,341.4,100.9,341.9,100.6z M338.8,96.7c-0.8,0.5-1.5,0.9-2.1,1.3c-0.6,0.4-1.1,0.8-1.5,1.2s-0.7,0.8-0.8,1.2
		c-0.2,1.1-0.4,1.7-0.4,1.8c0,0.6,0.4,1,1.4,1c0.4,0,1.1-0.4,2.1-1.1c-0.2-0.5-0.2-0.9-0.2-1.3c0-0.6,0.1-1.2,0.4-1.9
		C338,98.3,338.3,97.6,338.8,96.7z"/>
	<path class="st0" d="M351.7,98c-1.7,1.9-2.6,3.3-2.6,4c0,0.4,0.2,0.6,0.5,0.6c0.3,0,0.7-0.1,1.1-0.4c0.5-0.3,1.2-0.8,2.1-1.6v1
		c-1.4,1.4-2.5,2.4-3.2,3c-0.7,0.6-1.4,0.9-1.8,0.9c-0.8,0-1.2-0.5-1.2-1.6c0-0.3,0-0.6,0.1-0.9s0.2-0.6,0.4-0.9
		c0.2-0.3,0.4-0.8,0.8-1.4s0.8-1.3,1.2-2.1c-0.6,0.3-1.3,0.8-2.1,1.7c-0.5,0.5-1,1-1.4,1.5c-0.4,0.5-0.8,1-1.2,1.6s-0.8,1-1,1.2
		c-0.2,0.2-0.4,0.3-0.6,0.3c-0.3,0-0.6-0.3-0.9-1c-0.3-0.7-0.4-1.4-0.4-2.3c0-0.5,0.1-1,0.2-1.3c0.1-0.3,0.4-0.7,0.7-1.3
		c0.7-1,1.3-1.8,1.7-2.3s1-0.7,1.4-0.7c0.3,0,0.6,0.1,0.8,0.2c0.2,0.1,0.3,0.3,0.3,0.5c0,0.1,0,0.2-0.1,0.3
		c-0.1,0.1-0.1,0.2-0.2,0.3s-0.2,0.3-0.5,0.5c-1.5,1.7-2.3,2.8-2.3,3.3c0,0.3,0.1,0.4,0.3,0.4c0.1,0,0.3-0.2,0.7-0.6
		s0.8-0.9,1.3-1.5c0.5-0.6,1.2-1.2,1.9-1.9c0.7-0.7,1.6-1.3,2.5-1.9c0.5-0.4,0.9-0.5,1.3-0.5c0.2,0,0.3,0.2,0.5,0.6
		c0.2,0.4,0.2,0.9,0.2,1.3C352.4,97.2,352.1,97.5,351.7,98z"/>
	<path class="st0" d="M352.8,101v-0.4c2.5-2.7,4.3-4.5,5.2-5.6c0.2-1.2,0.7-1.8,1.6-1.8c0.2,0,0.4,0.1,0.7,0.2l0.1,0.3
		c0,0.1-0.1,0.3-0.1,0.5c0,0.2,0.1,0.5,0.2,1c0.1,0.5,0.3,0.9,0.3,1.3c0.1,0.3,0.1,0.7,0.1,1.2c0,0.6-0.1,1.3-0.4,1.9
		c-0.3,0.6-0.7,1.2-1.3,1.7c-0.6,0.5-1.3,1.1-2.2,1.7c0.4,0.1,0.6,0.1,0.8,0.1c0.4,0,0.8-0.1,1.3-0.3c0.5-0.2,0.9-0.5,1.4-0.8
		s1-0.8,1.7-1.3v1c-1.3,1.2-2.4,2.2-3.4,2.8c-1,0.6-1.8,0.9-2.6,0.9c-0.9,0-1.8-0.4-2.6-1.2c-0.5-0.5-0.7-0.9-0.9-1.4
		C352.8,102.4,352.8,101.8,352.8,101z M358.2,98.8l-0.3-2.1c-0.6,0.7-1.9,2-3.9,3.9c0.6,0.1,1,0.3,1.2,0.5c0.2,0.2,0.5,0.6,0.9,1.2
		c0.7-0.3,1.2-0.6,1.5-1.1c0.4-0.5,0.5-1.1,0.5-1.9c0-0.1,0-0.2,0-0.3C358.2,98.9,358.2,98.9,358.2,98.8z"/>
</g>
</svg>
