<svg xmlns="http://www.w3.org/2000/svg" viewBox="0 0 552 552"><defs><style>.cls-1{fill:#fed100;}.cls-2{fill:#004875;}</style></defs><g id="Layer_2" data-name="Layer 2"><g id="Layer_1-2" data-name="Layer 1"><circle class="cls-1" cx="276" cy="276" r="276"/><path class="cls-2" d="M483.41,269c-1-10.21-1.37-20.53-3.19-30.59a216.72,216.72,0,0,0-7.85-29.18,173.8,173.8,0,0,0-9.19-21.3,103.53,103.53,0,0,0-9-15.6c-6.18-8.54-12.78-16.8-19.52-24.91A120.94,120.94,0,0,0,422.59,135c-5-4.51-10.34-8.65-15.63-12.82a3.34,3.34,0,0,0-2.81-.1,19.37,19.37,0,0,1-18.61-1.42A197.18,197.18,0,0,0,310.3,93.48a219.56,219.56,0,0,0-47.24-1.74,205.83,205.83,0,0,0-45.57,8.61,208.48,208.48,0,0,0-22.07,8.51c-10.13,4.42-19.95,9.45-28.9,16-2.07,1.51-4.29,2.82-6.38,4.32-4.58,3.28-9.71,5.08-15.2,3.62-3.62-1-5.54.71-7.58,2.76-5.45,5.51-10.87,11-16.18,16.67a55,55,0,0,0-4.88,6.36c-3.74,5.35-7.58,10.64-11,16.16A146,146,0,0,0,96.76,190c-3.2,6.74-6,13.7-8.78,20.6-6.26,15.29-8.47,31.38-9.56,47.69-.24,3.65-.81,7.27-1.27,11.29,4.7,0,8.88,0,13,0,4.92-.05,7.78,2.69,7.76,7.44-.14,32-.08,64-.08,96.07,0,5.69-2.3,7.93-8.12,7.94-5.16,0-10.32,0-15.47,0a33.19,33.19,0,0,1-21.76-7.87c-5.88-4.84-8.87-11-10.62-18a17.86,17.86,0,0,1-.39-4.39c0-17.74-.23-35.49.3-53.21.25-8.15,4.34-15.06,10.86-20.29,1.82-1.45,3.9-2.57,5.7-4a3.56,3.56,0,0,0,.91-2.39c.3-6.21,0-12.5.84-18.63,2-14.41,4-28.87,8.73-42.71,2.39-7,5.14-13.89,8.16-20.63a133.85,133.85,0,0,1,8.91-17.14c5.3-8.38,10.93-16.6,16.92-24.51,3.91-5.16,8.65-9.71,13.13-14.43,4.11-4.32,8.4-8.46,12.52-12.76a4.47,4.47,0,0,0,1.08-2.67c.41-7.4,3.77-12.86,10.28-16.66,4.45-2.6,8.49-5.88,12.88-8.58a223,223,0,0,1,33.65-17.09A245.58,245.58,0,0,1,348,66.71a220.37,220.37,0,0,1,43.47,17.58c5,2.71,9.9,5.53,14.78,8.41a15.74,15.74,0,0,1,8.16,12.43,3.41,3.41,0,0,0,1.29,2c2.35,1.88,4.87,3.57,7.22,5.46,3.08,2.49,6.18,5,9.07,7.68,5.31,5,10.67,9.9,15.63,15.19,4.39,4.7,8.42,9.75,12.33,14.86,4.26,5.57,8.36,11.28,12.21,17.13a94,94,0,0,1,6.13,11.36c3.23,6.81,6.17,13.76,9.4,20.57,4.61,9.68,6.39,20.15,9.07,30.39,3.42,13.07,4,26.39,4.37,39.74.05,1.77,1.09,2.12,2.28,2.61,7.08,2.9,12.53,7.67,15.68,14.56a25.56,25.56,0,0,1,2.48,9.94c.22,19.21.46,38.43-.06,57.63-.29,10.63-6.61,18-16,23-5.78,3.13-11.83,3.79-18.17,3.7-4.81-.07-9.62,0-14.42,0-4.53,0-6.91-2.43-6.92-6.92q0-48.81,0-97.63c0-4.68,2.3-6.87,7.12-6.89l8.91-.08a1.38,1.38,0,0,0,.48-.19Z"/><path class="cls-2" d="M280.18,475a232.81,232.81,0,0,1-48.3-5.33,297.28,297.28,0,0,1-29.54-8.37c-8-2.69-15.7-6.36-23.56-9.53a3.67,3.67,0,0,0-2.64-.21c-9,4.8-17.45,3.53-25.9-1.57-3.79-2.29-7.41-4.47-10.35-7.94-3.8-4.5-4.69-9.51-3.73-14.89,2-11.45,15.31-19.33,26.69-15.83A45.51,45.51,0,0,1,180,420.72a17.89,17.89,0,0,1,6.32,14.11A3.25,3.25,0,0,0,188,437.2c7.84,3.23,15.65,6.59,23.65,9.38a204.32,204.32,0,0,0,56.2,10.74,219.06,219.06,0,0,0,61.79-5.3,203.88,203.88,0,0,0,43.12-15.08c9.31-4.49,18.41-9.31,26.73-15.48,4.21-3.12,8.58-6,12.79-9.15,3.4-2.52,9.69-1.9,12.29,1.36s3.33,8.17-1.36,11.82a240.26,240.26,0,0,1-21.69,15.45,238.83,238.83,0,0,1-25.38,13.38,226.74,226.74,0,0,1-69.38,18.94C298,474.24,289.06,474.47,280.18,475Z"/><path class="cls-2" d="M124.85,325.62c0,18.52-.14,37,.08,55.56a8.44,8.44,0,0,1-10.25,8.24,7.67,7.67,0,0,1-6.32-7.23c-.07-1,0-2.08,0-3.12q0-54,0-108c0-4.36,1.75-7.49,6.18-8.79,5.33-1.56,10.33,1.92,10.35,7.52,0,12.46,0,24.93,0,37.39Z"/><path class="cls-2" d="M455.57,325.81c0,18.43,0,36.85,0,55.27a8,8,0,0,1-4.93,7.73,7.65,7.65,0,0,1-8.56-.82,8.05,8.05,0,0,1-3.06-6.78c0-10.47,0-20.93,0-31.4q0-39.82,0-79.66a8.1,8.1,0,0,1,4.63-7.74c4.3-2.3,12.2,1.4,12,7.88-.27,7.08-.06,14.18-.06,21.27Z"/><path class="cls-2" d="M281.27,331.31c3.4,1,8.34-1.34,8.7,4.18.44,6.58-5.3,3.84-8.82,5,0,3.7,0,7.48,0,11.26s-1.48,4.87-5.74,4.86c-3.38,0-4.68-1.32-4.71-4.75,0-2.68,0-5.36,0-8,0-2.88-.77-3.66-3.72-3.67-7.16,0-14.32,0-21.48,0-1.94,0-4.05-.07-4.56-2.1-.44-1.75-.53-4.15.35-5.56,2.53-4.07,5.64-7.79,8.52-11.65,3.43-4.6,6.83-9.22,10.27-13.81,2.66-3.55,5.32-7.12,8.07-10.61,2-2.54,9.34-3.29,11.71-1,.89.86,1.22,2.63,1.24,4,.1,9.85,0,19.71.06,29.57C281.16,329.77,281.23,330.54,281.27,331.31Zm-11.34-22.07-16.76,22.27c5.35,0,10,.08,14.7-.08a2.75,2.75,0,0,0,2-1.79C270,323,269.93,316.26,269.93,309.24Z"/><path class="cls-2" d="M328.12,183.86c14.24,0,24.79,10.31,25.44,24.31.25,5.32-.11,10.53-2.38,15.39-3.74,8-10.11,12.86-18.85,14.53-6.66,1.27-12.95-.09-18.89-3.16a13,13,0,0,1-2.46-1.87c-8.4-7.46-10.93-16.86-9-27.57C304.32,192.72,314.67,183.82,328.12,183.86Zm15.8,26.22c-.42-4-1.21-8.68-4.58-13.06-6.21-8.06-20.79-8.41-26.19,4.41-3.32,7.88-3,16,2.43,23.49A15.09,15.09,0,0,0,337,227.65C342.24,223.29,343.88,217.53,343.92,210.08Z"/><path class="cls-2" d="M209.33,347.64h19.49c.7,0,1.4,0,2.1,0,2.84.17,5.41,2.41,5.38,4.66,0,1.94-2.8,4.21-5.45,4.25-4.72.08-9.44,0-14.16,0H197c-1.67,0-3.6.16-4.17-1.77s-.8-4.09,1-5.78c3.71-3.39,7.44-6.77,11-10.27,4.57-4.43,9.36-8.72,13.45-13.56s6.13-10.65,4.09-17.14c-1.11-3.52-4.86-5.7-9.85-5.83-3.84-.1-7.31,1.1-10.78,2.65a6.32,6.32,0,0,1-4.85,0c-3-1.57-3-5.49.25-7.09a49.57,49.57,0,0,1,11.44-4.09c6.73-1.49,13.36-.37,18.8,3.83,6.39,4.94,7.88,11.89,6.09,19.56-1.43,6.11-4.82,11.1-9.26,15.47s-9.11,9-13.66,13.51C210.31,346.43,210,346.82,209.33,347.64Z"/><path class="cls-2" d="M388.07,212.47a20.17,20.17,0,0,1,3.1,3.51,52.83,52.83,0,0,1,3.64,8.09c1.06,3.1,1.69,6.34,2.5,9.51.65,2.5-.49,4-3.16,4.06-4.8.18-5.32-.2-6.46-4.77-.68-2.76-1.42-5.51-2-8.29-1.39-6.4-5.13-9.46-11.77-9.09-1.19.07-2.4,0-3.82,0,0,6.1.1,11.89-.07,17.67,0,1.38-.69,3.61-1.57,3.9a12.71,12.71,0,0,1-6,0c-.64-.12-1.4-1.77-1.41-2.72-.09-15.32-.06-30.64-.07-46,0-2.11,1.15-3.36,3.15-3.38,6.52-.09,13.16-.75,19.54.19,12,1.75,16.56,13.07,10.31,22.08C392.51,209.32,390.13,210.69,388.07,212.47ZM370.12,192c0,5.15,0,10.15.06,15.14a1.8,1.8,0,0,0,1.25,1.24c4.28.25,8.57.25,12.41-2a7.07,7.07,0,0,0,3.45-6.83c-.14-2.71-1.08-5.08-4-6.4C379.15,191.27,374.92,191.35,370.12,192Z"/><path class="cls-2" d="M165.8,203.05c0-4.75,0-9.51,0-14.27,0-3.33.93-4.17,4.47-4.16,3.09,0,4.75,1.51,4.75,4.39,0,8.74-.07,17.48,0,26.22a32.52,32.52,0,0,0,.88,7.69c1.73,6.82,6.23,9,13.29,7.93,5.68-.88,8.71-4.31,9-10.67.42-8.54.27-17.11.35-25.68,0-2.07-.07-4.15,0-6.22.06-2.33,1.18-3.62,3.67-3.68,4-.1,5.27.59,5.68,3.35a12.18,12.18,0,0,1,.07,1.81c-.09,9.43-.12,18.85-.31,28.27-.09,4.92-1.31,9.6-4.56,13.47-6.65,7.95-19.57,8.74-27.53,4.57-7.64-4-9.4-11.07-9.76-18.74C165.62,212.58,165.8,207.81,165.8,203.05Z"/><path class="cls-2" d="M359.92,303.27h-2.78c-7.6,0-15.2,0-22.8,0-4.5,0-6.62-3.16-4.56-7.14a4.84,4.84,0,0,1,3.64-1.84c11.88-.14,23.76-.1,35.65-.06a3.27,3.27,0,0,1,3.58,3.58,10.79,10.79,0,0,1-.82,4.5c-4.4,9-8.93,18-13.46,26.93-2.83,5.59-5.71,11.14-8.61,16.7a95.09,95.09,0,0,1-4.72,8.51c-.68,1-2.27,1.5-3.5,2.1a3.86,3.86,0,0,1-1.56,0c-5.91,0-6.82-1.44-4.15-6.56q5.66-10.84,11.33-21.68c3.07-5.85,6.15-11.69,9.29-17.51,1.25-2.31,2.66-4.53,4-6.8Z"/><path class="cls-2" d="M227.65,217.58c0,5.45,0,10.53,0,15.61,0,1.71.05,3.62-2,3.95a17.73,17.73,0,0,1-6-.21c-.54-.1-1.1-1.72-1.11-2.64-.06-15.31,0-30.62,0-45.93a3.1,3.1,0,0,1,3.15-3.4c7.47-.65,14.9-1.35,22.28,1.08,8.31,2.73,13.52,13.55,8.22,22.05-4.2,6.74-10.46,8.91-17.77,9.46C232.21,217.71,230.06,217.58,227.65,217.58Zm.39-7.52c2.6,0,5,.17,7.44,0a10.2,10.2,0,0,0,9.12-7.25c1.42-4.09-1.4-9.16-6.15-10.28-3.29-.77-6.81-.61-10.41-.88Z"/><path class="cls-2" d="M270.94,217.62c0,5.55,0,10.73,0,15.91,0,3-1.37,4.12-4.94,4.12-3.32,0-4.21-.84-4.21-4.1q0-22.31,0-44.6c0-2.75.89-3.8,3.61-4,7.64-.67,15.21-1.27,22.71,1.48,6.46,2.37,11.6,12.61,8.18,19.72-4.5,9.38-12.42,11.37-21.63,11.51C273.54,217.64,272.42,217.62,270.94,217.62Zm.07-16.79h0c0,2.51-.09,5,.06,7.52,0,.61.87,1.68,1.31,1.66a46.3,46.3,0,0,0,9.06-.72c3.61-.82,6.89-5.53,6.77-8.89a9,9,0,0,0-6.93-8,41.89,41.89,0,0,0-8.83-.47c-.49,0-1.35,1.19-1.4,1.88C270.9,196.15,271,198.5,271,200.83Z"/><path class="cls-2" d="M137.66,239.06c-4.16-1.09-8.37-2-12.46-3.32-2.09-.66-2.4-2.44-1.19-5,.82-1.7,1.89-2.74,4.13-1.85a27.12,27.12,0,0,0,12.75,1.91c4.23-.4,8.79-4.31,7.71-8.47a11.49,11.49,0,0,0-3.77-5.53c-1.74-1.42-4.16-2-6.31-2.92-5.08-2.11-10.25-4.17-13-9.31-3.4-6.35-.84-13.75,5.38-17.53,6.74-4.1,13.74-3.7,20.92-2,2.86.68,3.72,2.23,3,4.63-1,3.22-1.72,3.38-5.12,2.67a39.31,39.31,0,0,0-9.3-.86c-4.42.16-6.69,2.28-7.11,5.83-.38,3.19,1.82,6.32,5.37,7.7,2.5,1,4.94,2.09,7.47,3,4.73,1.62,8.06,4.88,10.88,8.78,1.75,2.42,1.41,8.92-.13,11.68-4.19,7.47-11,9.79-19,9.91Z"/><path class="cls-2" d="M424.87,192.47v4.87q0,18,0,36.07c0,3.57-.82,4.26-4.9,4.26-3.43,0-4.36-.87-4.36-4.25,0-12.71-.07-25.43,0-38.15,0-2.5-.69-3.35-3.24-3.19-3.22.21-6.46.06-9.7,0-2.71,0-3.8-1-3.84-3.39-.05-2.91.89-3.94,3.75-4.11h34.86c3.27,0,4.47,1.34,4.16,4.47-.2,2-1.13,3.12-3.37,3.06-3.49-.09-7,0-10.48,0C426.86,192.15,425.94,192.35,424.87,192.47Z"/><path class="cls-2" d="M289.17,360.36c2.74-6.44,5.28-12.25,7.69-18.11,2.2-5.33,4.21-10.74,6.38-16.09q4.9-12.06,9.9-24.08c1.28-3.09,2.53-6.19,4-9.17a3.85,3.85,0,0,1,2.62-1.77,70.07,70.07,0,0,1,7.49-.09c-2,4.55-4,8.72-5.72,13-2,4.94-3.87,10-5.88,14.92q-4.8,11.83-9.72,23.61c-2.24,5.39-4.6,10.72-6.78,16.13a2.16,2.16,0,0,1-2.43,1.7C294.51,360.28,292.24,360.36,289.17,360.36Z"/></g></g></svg>