<svg xmlns="http://www.w3.org/2000/svg" viewBox="0 0 178.28 128.48"><defs><style>.cls-1{fill:#fec751;}.cls-2{fill:#f84730;}.cls-3{fill:#2c3b4d;}.cls-4{fill:#5b5d6e;}.cls-5{fill:#b5e6fb;}.cls-6{fill:#23a9e5;}.cls-7{fill:#ef4b37;}.cls-8{fill:#87a474;}</style></defs><g id="Layer_2" data-name="Layer 2"><g id="Layer_1-2" data-name="Layer 1"><path class="cls-1" d="M0,95.87A13.78,13.78,0,0,1,1.3,93.3a6.6,6.6,0,0,1,4.21-2.39,26,26,0,0,0,14.22-7.18A23.39,23.39,0,0,1,36.1,77.07h21A24.28,24.28,0,0,1,71,81.63c3,2.1,6.17,4,9.13,6.22a33.17,33.17,0,0,0,15.11,6c3,.46,6,1.2,9,1.81.09.74.19,1.48.26,2.22a42.8,42.8,0,0,1-.11,10.18,3.43,3.43,0,0,1-2.24,2.73,9.81,9.81,0,0,0-11.24.65H26.23c-.34,0-.68,0-1,0a9.74,9.74,0,0,0-12.25,0l-13-.06v-2.94H4.28c1.3,0,1.56-.26,1.57-1.6s0-2.56,0-3.84-.41-1.54-1.57-1.55c-1.42,0-2.85,0-4.28,0Zm64.69,2.91v0H81.28c1.18,0,1.55-.53,1.23-1.64a3.52,3.52,0,0,0-1.62-2.08c-4.45-2.73-8.69-5.79-13-8.67A19.28,19.28,0,0,0,59,83c-3.6-.34-7.22-.14-10.82-.2-.79,0-1,.21-1,1,0,4.63,0,9.26,0,13.88,0,1,.33,1.09,1.16,1.09C53.78,98.77,59.24,98.78,64.69,98.78Zm-34.57,0c4.17,0,8.35,0,12.52,0,.77,0,1.13-.1,1.12-1,0-4.63,0-9.25,0-13.88,0-.71-.17-1-.94-1-2.41.06-4.82,0-7.22,0a17.67,17.67,0,0,0-10.46,3.65c-2.35,1.75-4.27,4-6.81,5.55-.93.56-1.9,1.08-2.78,1.71a2.64,2.64,0,0,0-.15,4.19,3.52,3.52,0,0,0,2.43.7Z"/><path class="cls-1" d="M0,111.45l13,.06a10.05,10.05,0,0,0-3.45,8.3c-2.53-1.11-5.06-2.23-7.59-3.33A4.45,4.45,0,0,1,0,114.38Z"/><path class="cls-2" d="M0,101.51c1.43,0,2.86,0,4.28,0,1.16,0,1.56.41,1.57,1.55s0,2.56,0,3.84-.27,1.6-1.57,1.6H0Z"/><path class="cls-1" d="M25.21,111.49c.34,0,.68,0,1,0H91a9.74,9.74,0,0,0-3.45,8.79h-59a11.05,11.05,0,0,0,.06-2.23A10.35,10.35,0,0,0,25.21,111.49Z"/><path class="cls-3" d="M25.21,111.49A10.35,10.35,0,0,1,28.58,118a11.05,11.05,0,0,1-.06,2.23,9.53,9.53,0,0,1-18.87,0,3.09,3.09,0,0,0-.14-.43,10.05,10.05,0,0,1,3.45-8.3A9.74,9.74,0,0,1,25.21,111.49ZM19,114.82a4.08,4.08,0,1,0,4.13,4A4.07,4.07,0,0,0,19,114.82Z"/><path class="cls-3" d="M87.53,120.24a9.61,9.61,0,0,1,14.69-9.44,10,10,0,0,1,4.27,9.43c-.81,3.91-3,6.67-6.86,7.85C94.2,129.75,88.59,126.08,87.53,120.24Zm9.4,2.73a4.08,4.08,0,1,0-4.09-4.09A4.09,4.09,0,0,0,96.93,123Z"/><path class="cls-1" d="M106.49,120.23a10,10,0,0,0-4.27-9.43,3.43,3.43,0,0,0,2.24-2.73,42.8,42.8,0,0,0,.11-10.18c-.07-.74-.17-1.48-.26-2.22a12,12,0,0,1,9.45,5.83h-2.7a3.44,3.44,0,0,0-3.42,2.53,9.75,9.75,0,0,0-.17,2.9c0,1.36.42,1.79,1.8,1.8,2.09,0,4.19,0,6.29,0,0,2.44.07,4.88,0,7.32a4.49,4.49,0,0,1-4.25,4.18C109.72,120.28,108.1,120.24,106.49,120.23Z"/><path class="cls-4" d="M115.56,108.74c-2.1,0-4.2,0-6.29,0-1.38,0-1.83-.44-1.8-1.8a9.75,9.75,0,0,1,.17-2.9,3.44,3.44,0,0,1,3.42-2.53h2.7C115.52,103.63,115.77,106.13,115.56,108.74Z"/><path class="cls-4" d="M64.69,98.78c-5.45,0-10.91,0-16.36,0-.83,0-1.17-.13-1.16-1.09,0-4.62,0-9.25,0-13.88,0-.79.23-1,1-1,3.6.06,7.22-.14,10.82.2a19.28,19.28,0,0,1,8.84,3.37c4.35,2.88,8.59,5.94,13,8.67a3.52,3.52,0,0,1,1.62,2.08c.32,1.11-.05,1.64-1.23,1.64H64.69Z"/><path class="cls-4" d="M30.12,98.78H17.82a3.52,3.52,0,0,1-2.43-.7,2.64,2.64,0,0,1,.15-4.19c.88-.63,1.85-1.15,2.78-1.71,2.54-1.52,4.46-3.8,6.81-5.55A17.67,17.67,0,0,1,35.59,83c2.4,0,4.81,0,7.22,0,.77,0,.95.26.94,1,0,4.63,0,9.25,0,13.88,0,.92-.35,1-1.12,1C38.47,98.76,34.29,98.78,30.12,98.78Z"/><path class="cls-5" d="M19,114.82a4.08,4.08,0,1,1-4.11,4.05A4.1,4.1,0,0,1,19,114.82Z"/><path class="cls-5" d="M96.93,123a4.08,4.08,0,1,1,4.16-4A4.1,4.1,0,0,1,96.93,123Z"/><path class="cls-6" d="M178.28,66.77c-.16,8-3.62,14.5-9,20a59.69,59.69,0,0,1-5.14,4.38,1.26,1.26,0,0,1-1.18,0C156.1,86.22,151,80,149.18,71.38c-1.15-5.5-.55-10.66,3.29-15a14.54,14.54,0,0,1,16.46-4A15.14,15.14,0,0,1,178.28,66.77Zm-7.41-.39a7.39,7.39,0,0,0-7.44-7.5,7.47,7.47,0,0,0-7.36,7.51,7.57,7.57,0,0,0,7.42,7.6A7.48,7.48,0,0,0,170.87,66.38Z"/><path class="cls-7" d="M72.69,15.5C72.56,7.67,78.25.92,85.68.09A14.81,14.81,0,0,1,102,12.43,22.92,22.92,0,0,1,99.9,26,34.5,34.5,0,0,1,88.18,39.81a1.39,1.39,0,0,1-1.28.08C80,34.83,74.84,28.48,73.09,19.72a18.51,18.51,0,0,1-.29-2C72.73,17,72.72,16.25,72.69,15.5ZM87.45,7.58a7.41,7.41,0,0,0-7.35,7.6,7.48,7.48,0,0,0,7.36,7.51A7.57,7.57,0,0,0,94.9,15.1,7.46,7.46,0,0,0,87.45,7.58Z"/><path class="cls-8" d="M99.57,71.75c8.3-.06,16.59,0,24.89,0,5.55,0,10.19-2.65,10.74-6,.72-4.37-4-7.84-10.79-7.86-7.86,0-15.72,0-23.57,0s-14-3.45-15.22-8.53A17.46,17.46,0,0,1,85.34,46c.72-.23,1.43-.48,2.12-.74.58.07,1.15.13,1.73.18a19.45,19.45,0,0,0,.65,4.4c1.24,3.32,5.68,5.38,11.27,5.39,8.08,0,16.15-.06,24.23,0,8.76.11,15.4,5.65,13.67,11.25-1.42,4.58-7.28,7.74-14.52,7.76-8.26,0-16.51,0-24.76,0-5.7,0-10.3,3.14-10.36,6.84-.06,3.89,4.67,7,10.76,7,10.57,0,21.15,0,31.73,0h18.31a2.43,2.43,0,0,0,.86-.11c-.13.79-.23,1.58-.28,2.37,0,.13,0,.26,0,.39a7.31,7.31,0,0,0-1.39-.1q-24.56,0-49.12,0c-9.9,0-16.81-5.9-14.27-12.06C87.59,74.74,93.24,71.79,99.57,71.75Z"/></g></g></svg>