<svg xmlns="http://www.w3.org/2000/svg" viewBox="0 0 172.35 82.51"><defs><style>.cls-1{fill:#fec751;}.cls-2{fill:#f84730;}.cls-3{fill:#2c3b4d;}.cls-4{fill:#5b5d6e;}.cls-5{fill:#b5e6fb;}.cls-6{fill:#ebcdbd;}.cls-7{fill:#424242;}</style></defs><g id="Layer_2" data-name="Layer 2"><g id="Layer_1-2" data-name="Layer 1"><path class="cls-1" d="M0,49.89a14.09,14.09,0,0,1,1.3-2.57,6.63,6.63,0,0,1,4.21-2.38,26.08,26.08,0,0,0,14.22-7.18A23.4,23.4,0,0,1,36.1,31.09h21A24.28,24.28,0,0,1,71,35.66c3,2.09,6.17,4,9.13,6.21a33.17,33.17,0,0,0,15.11,6c3,.46,6,1.2,9,1.82.09.74.19,1.47.26,2.22a42.71,42.71,0,0,1-.11,10.17,3.44,3.44,0,0,1-2.24,2.74A9.79,9.79,0,0,0,91,65.48H26.23c-.34,0-.68,0-1,0a9.74,9.74,0,0,0-12.25,0L0,65.47V62.54H4.28c1.3,0,1.56-.27,1.57-1.61s0-2.55,0-3.83-.41-1.54-1.57-1.55c-1.42,0-2.85,0-4.28,0Zm64.69,2.92H81.28c1.18,0,1.55-.53,1.23-1.65a3.49,3.49,0,0,0-1.62-2.07c-4.45-2.74-8.69-5.79-13-8.68A19.26,19.26,0,0,0,59,37.06c-3.6-.35-7.22-.14-10.82-.21-.79,0-1,.21-1,1,0,4.63,0,9.25,0,13.88,0,1,.33,1.09,1.16,1.08C53.78,52.79,59.24,52.81,64.69,52.81Zm-34.57,0c4.17,0,8.35,0,12.52,0,.77,0,1.13-.1,1.12-1,0-4.62,0-9.25,0-13.87,0-.72-.17-1-.94-1C40.4,37,38,37,35.59,37a17.73,17.73,0,0,0-10.46,3.64c-2.35,1.76-4.27,4-6.81,5.56-.93.56-1.9,1.07-2.78,1.7a2.65,2.65,0,0,0-.15,4.2,3.52,3.52,0,0,0,2.43.7Z"/><path class="cls-1" d="M0,65.47l13,.07a10,10,0,0,0-3.45,8.29L1.92,70.51A4.5,4.5,0,0,1,0,68.41Z"/><path class="cls-2" d="M0,55.54c1.43,0,2.86,0,4.28,0,1.16,0,1.56.4,1.57,1.55s0,2.56,0,3.83-.27,1.6-1.57,1.61H0Z"/><path class="cls-1" d="M25.21,65.52c.34,0,.68,0,1,0H91a9.74,9.74,0,0,0-3.45,8.79h-59A11.05,11.05,0,0,0,28.58,72,10.32,10.32,0,0,0,25.21,65.52Z"/><path class="cls-3" d="M25.21,65.52A10.32,10.32,0,0,1,28.58,72a11.05,11.05,0,0,1-.06,2.23,9.53,9.53,0,0,1-18.87,0,4.28,4.28,0,0,0-.14-.43A10,10,0,0,1,13,65.54,9.74,9.74,0,0,1,25.21,65.52ZM19,68.84a4.08,4.08,0,1,0,4.13,4A4.08,4.08,0,0,0,19,68.84Z"/><path class="cls-3" d="M87.53,74.27a9.61,9.61,0,0,1,14.69-9.44,10,10,0,0,1,4.27,9.43c-.81,3.9-3,6.66-6.86,7.85C94.2,83.77,88.59,80.1,87.53,74.27ZM96.93,77a4.08,4.08,0,1,0-4.09-4.09A4.11,4.11,0,0,0,96.93,77Z"/><path class="cls-1" d="M106.49,74.26a10,10,0,0,0-4.27-9.43,3.44,3.44,0,0,0,2.24-2.74,42.71,42.71,0,0,0,.11-10.17c-.07-.75-.17-1.48-.26-2.22a12,12,0,0,1,9.45,5.83h-2.7a3.44,3.44,0,0,0-3.42,2.52,9.77,9.77,0,0,0-.17,2.9c0,1.37.42,1.8,1.8,1.81h6.29c0,2.44.07,4.88,0,7.32a4.49,4.49,0,0,1-4.25,4.17C109.72,74.31,108.1,74.26,106.49,74.26Z"/><path class="cls-4" d="M115.56,62.77h-6.29c-1.38,0-1.83-.44-1.8-1.81a9.77,9.77,0,0,1,.17-2.9,3.44,3.44,0,0,1,3.42-2.52h2.7C115.52,57.65,115.77,60.15,115.56,62.77Z"/><path class="cls-4" d="M64.69,52.81c-5.45,0-10.91,0-16.36,0-.83,0-1.17-.12-1.16-1.08,0-4.63,0-9.25,0-13.88,0-.8.23-1,1-1,3.6.07,7.22-.14,10.82.21a19.26,19.26,0,0,1,8.84,3.36c4.35,2.89,8.59,5.94,13,8.68a3.49,3.49,0,0,1,1.62,2.07c.32,1.12-.05,1.65-1.23,1.65H64.69Z"/><path class="cls-4" d="M30.12,52.81H17.82a3.52,3.52,0,0,1-2.43-.7,2.65,2.65,0,0,1,.15-4.2c.88-.63,1.85-1.14,2.78-1.7,2.54-1.52,4.46-3.8,6.81-5.56A17.73,17.73,0,0,1,35.59,37c2.4,0,4.81,0,7.22-.06.77,0,.95.26.94,1,0,4.62,0,9.25,0,13.87,0,.92-.35,1-1.12,1C38.47,52.79,34.29,52.81,30.12,52.81Z"/><path class="cls-5" d="M19,68.84a4.08,4.08,0,1,1-4.11,4.06A4.11,4.11,0,0,1,19,68.84Z"/><path class="cls-5" d="M96.93,77a4.08,4.08,0,1,1,4.16-4A4.11,4.11,0,0,1,96.93,77Z"/><path class="cls-6" d="M133.29,36.35c.08-.15,0-.24-.1-.35l-3-3.69a1,1,0,0,1-.12-.81,1.12,1.12,0,0,0-.53-1.11,11.11,11.11,0,0,1-2.33-2.11,6,6,0,0,1-.78-1.91c-.08-.23-.12-.33-.39-.26a.84.84,0,0,1-.86-.34,2.8,2.8,0,0,1-.81-2.47c.11-.64.55-1.15,1.4-.62l.4,2.25a8.53,8.53,0,0,1,1.4-4.36,7.08,7.08,0,0,0,.68-1.83c.12-.5.11-.49.55-.21a9.24,9.24,0,0,0,6.47,1.74c.75-.1,1.49-.26,2.23-.41a1.62,1.62,0,0,1,1.8.67,4.69,4.69,0,0,1,.83,1.8c.15.78.27,1.57.41,2.43a14.64,14.64,0,0,0,.67-2.25c.72-.12,1.11.21,1.14,1a2.76,2.76,0,0,1-1,2.36c-.17.14-.39.28-.56.23-.45-.14-.51.14-.56.43-.31,1.72-1.58,2.69-2.82,3.69-.17.14-.35.28-.53.4a.43.43,0,0,0-.22.45,2.41,2.41,0,0,1-.82,2.09c-.76.92-1.5,1.86-2.26,2.8a.44.44,0,0,0-.13.36Z"/><path class="cls-7" d="M136.13,39c.23-1.83.47-3.65.7-5.47,0-.2,0-.31.29-.2a63.45,63.45,0,0,1,7.67,4,5.55,5.55,0,0,1,2.39,3.29c.56,2,.93,3.95,1.37,5.93.06.3-.07.31-.3.31l-6.14,0h-6.86a4.08,4.08,0,0,1,.08-1.1C135.59,43.5,135.86,41.26,136.13,39Z"/><path class="cls-7" d="M131.5,46.85h-6.86l-6.11,0c-.18,0-.4.08-.33-.27.45-2.08.86-4.18,1.46-6.23A5.8,5.8,0,0,1,122.48,37a68.66,68.66,0,0,1,7-3.63c.4-.19.35.11.38.32.25,1.77.49,3.53.74,5.29.17,1.43.36,2.85.5,4.28C131.25,44.47,131.46,45.65,131.5,46.85Z"/><path class="cls-7" d="M141.23,22.51a14.64,14.64,0,0,1-.67,2.25c-.14-.86-.26-1.65-.41-2.43a4.69,4.69,0,0,0-.83-1.8,1.62,1.62,0,0,0-1.8-.67c-.74.15-1.48.31-2.23.41a9.24,9.24,0,0,1-6.47-1.74c-.44-.28-.43-.29-.55.21a7.08,7.08,0,0,1-.68,1.83,8.53,8.53,0,0,0-1.4,4.36l-.4-2.25c-.06-.71-.14-1.41-.16-2.12a5.92,5.92,0,0,1,1-3.81c.15-.2,0-.25-.11-.34a7.3,7.3,0,0,1-1.5-2.19,1.66,1.66,0,0,1-.1-.29.61.61,0,0,1,0-.18,3,3,0,0,0,3.37.25,15.42,15.42,0,0,1,4.44-1.35c2.85-.33,7.14,1.23,8.29,4.84a9.9,9.9,0,0,1,.26,4.62C141.25,22.24,141.24,22.38,141.23,22.51Z"/><path class="cls-7" d="M133.29,36.35h.18l1.24,1.32.09.12a.06.06,0,0,0,0,.06,6.77,6.77,0,0,0-.76,1.08.39.39,0,0,0,0,.3c.25,1.73.51,3.45.74,5.18a16.73,16.73,0,0,1,.3,2.45H131.7a3.17,3.17,0,0,1,0-.53c.33-2.35.68-4.71,1-7.07a.45.45,0,0,0,0-.34,6.35,6.35,0,0,0-.76-1.08C132.33,37.28,132.87,36.87,133.29,36.35Z"/><path class="cls-6" d="M132,37.83a6.35,6.35,0,0,1,.76,1.08.45.45,0,0,1,0,.34c-.34,2.36-.69,4.72-1,7.07a3.17,3.17,0,0,0,0,.53h-.2c0-1.2-.25-2.38-.37-3.57-.14-1.43-.33-2.85-.5-4.28l.94-.9C131.68,38,131.76,37.84,132,37.83Z"/><path class="cls-6" d="M135.05,46.85a16.73,16.73,0,0,0-.3-2.45c-.23-1.73-.49-3.45-.74-5.18a.39.39,0,0,1,0-.3,6.77,6.77,0,0,1,.76-1.08c.3.06.44.33.62.53s.38.52.71.64c-.27,2.25-.54,4.49-.8,6.74a4.08,4.08,0,0,0-.08,1.1Z"/><path class="cls-6" d="M134.8,37.78l-.09-.12Z"/><path class="cls-6" d="M159.82,27c.07-.13,0-.2-.08-.29-.81-1-1.62-2-2.44-3a.84.84,0,0,1-.1-.67.93.93,0,0,0-.44-.91,9.16,9.16,0,0,1-1.9-1.73,4.77,4.77,0,0,1-.64-1.57c-.07-.18-.11-.27-.32-.21a.71.71,0,0,1-.71-.27,2.31,2.31,0,0,1-.66-2c.09-.52.45-.94,1.14-.5l.33,1.84A7,7,0,0,1,155.15,14a5.5,5.5,0,0,0,.56-1.51c.1-.4.09-.4.45-.16a7.58,7.58,0,0,0,5.31,1.42c.61-.08,1.22-.21,1.83-.33a1.32,1.32,0,0,1,1.47.54,3.77,3.77,0,0,1,.68,1.48c.13.64.22,1.29.34,2a12.35,12.35,0,0,0,.55-1.84c.59-.1.91.17.94.83a2.27,2.27,0,0,1-.83,1.94.57.57,0,0,1-.46.19c-.36-.11-.41.11-.46.36-.25,1.4-1.29,2.2-2.31,3-.14.11-.28.23-.43.33a.33.33,0,0,0-.18.37,2,2,0,0,1-.67,1.71c-.63.76-1.24,1.53-1.86,2.29a.37.37,0,0,0-.1.3Z"/><path class="cls-7" d="M162.15,29.16c.2-1.5.39-3,.58-4.49,0-.16,0-.25.24-.16a51.44,51.44,0,0,1,6.29,3.28,4.57,4.57,0,0,1,2,2.7c.46,1.61.76,3.24,1.12,4.87,0,.24-.05.25-.24.24l-5,0h-5.63a3.42,3.42,0,0,1,.07-.9C161.72,32.85,161.94,31,162.15,29.16Z"/><path class="cls-7" d="M158.36,35.59h-5.63l-5,0c-.14,0-.33.07-.27-.22.37-1.71.71-3.43,1.19-5.11A4.77,4.77,0,0,1,151,27.53a54.09,54.09,0,0,1,5.76-3c.34-.15.29.09.32.27.2,1.44.4,2.89.61,4.33.13,1.17.29,2.34.4,3.51C158.15,33.64,158.32,34.61,158.36,35.59Z"/><path class="cls-7" d="M166.34,15.63a12.35,12.35,0,0,1-.55,1.84c-.12-.7-.21-1.35-.34-2a3.77,3.77,0,0,0-.68-1.48,1.32,1.32,0,0,0-1.47-.54c-.61.12-1.22.25-1.83.33a7.58,7.58,0,0,1-5.31-1.42c-.36-.24-.35-.24-.45.16a5.5,5.5,0,0,1-.56,1.51A7,7,0,0,0,154,17.61l-.33-1.84c0-.58-.11-1.16-.13-1.74a4.85,4.85,0,0,1,.81-3.12c.12-.17,0-.21-.09-.29A5.66,5.66,0,0,1,153,8.83a2.34,2.34,0,0,1-.09-.24s0-.07,0-.14a2.42,2.42,0,0,0,2.75.19,13,13,0,0,1,3.65-1.1c2.33-.27,5.86,1,6.8,4a8.11,8.11,0,0,1,.21,3.79Z"/><path class="cls-7" d="M159.82,27H160l1,1.08.07.1v.05a5.05,5.05,0,0,0-.62.89.29.29,0,0,0,0,.24c.2,1.42.42,2.83.61,4.25a13.61,13.61,0,0,1,.24,2h-2.75c0-.14,0-.29,0-.43l.84-5.8a.34.34,0,0,0,0-.28,4.62,4.62,0,0,0-.63-.89C159,27.74,159.48,27.4,159.82,27Z"/><path class="cls-6" d="M158.72,28.19a4.62,4.62,0,0,1,.63.89.34.34,0,0,1,0,.28l-.84,5.8c0,.14,0,.29,0,.43h-.16c0-1-.21-2-.31-2.93-.11-1.17-.27-2.34-.4-3.51l.76-.74C158.51,28.32,158.57,28.2,158.72,28.19Z"/><path class="cls-6" d="M161.27,35.59a13.61,13.61,0,0,0-.24-2c-.19-1.42-.41-2.83-.61-4.25a.29.29,0,0,1,0-.24,5.05,5.05,0,0,1,.62-.89c.25.05.36.27.51.43a1.63,1.63,0,0,0,.58.53c-.21,1.84-.43,3.69-.65,5.53a3.42,3.42,0,0,0-.07.9Z"/><path class="cls-6" d="M161.06,28.15l-.07-.1Z"/><path class="cls-6" d="M107.07,23.74c.08-.14,0-.23-.1-.34-1-1.23-2-2.47-3-3.69a1,1,0,0,1-.12-.81,1.12,1.12,0,0,0-.53-1.11A11.39,11.39,0,0,1,101,15.68a6.16,6.16,0,0,1-.78-1.92c-.07-.22-.12-.33-.38-.25a.86.86,0,0,1-.87-.34,2.79,2.79,0,0,1-.8-2.48c.1-.64.55-1.14,1.39-.61l.4,2.24A8.44,8.44,0,0,1,101.38,8a7,7,0,0,0,.67-1.84c.12-.49.11-.49.55-.2a9.24,9.24,0,0,0,6.47,1.74c.75-.1,1.49-.27,2.23-.41a1.63,1.63,0,0,1,1.8.66,4.59,4.59,0,0,1,.83,1.81c.16.78.27,1.57.41,2.42A14,14,0,0,0,115,9.9c.72-.11,1.12.21,1.15,1a2.81,2.81,0,0,1-1,2.37c-.16.14-.39.28-.56.23-.45-.14-.5.14-.56.43-.31,1.71-1.57,2.69-2.81,3.69-.18.14-.35.27-.54.4a.42.42,0,0,0-.22.45,2.34,2.34,0,0,1-.82,2.08c-.76.93-1.5,1.87-2.26,2.8a.41.41,0,0,0-.12.36Z"/><path class="cls-7" d="M109.91,26.4q.36-2.73.71-5.47c0-.19,0-.3.28-.19a62.06,62.06,0,0,1,7.67,4A5.49,5.49,0,0,1,121,28c.56,1.95.94,3.95,1.37,5.93.06.29-.07.3-.3.3l-6.14,0H109a3.7,3.7,0,0,1,.09-1.1Q109.51,29.78,109.91,26.4Z"/><path class="cls-7" d="M105.29,34.25H98.42l-6.11,0c-.17,0-.4.08-.32-.27.45-2.09.85-4.18,1.45-6.24a5.78,5.78,0,0,1,2.82-3.33,66.72,66.72,0,0,1,7-3.63c.41-.19.35.1.38.32.25,1.76.5,3.53.74,5.29.17,1.42.36,2.85.5,4.28C105,31.87,105.24,33.05,105.29,34.25Z"/><path class="cls-7" d="M115,9.9a14,14,0,0,1-.67,2.25c-.14-.85-.25-1.64-.41-2.42a4.59,4.59,0,0,0-.83-1.81,1.63,1.63,0,0,0-1.8-.66c-.74.14-1.48.31-2.23.41a9.24,9.24,0,0,1-6.47-1.74c-.44-.29-.43-.29-.55.2A7,7,0,0,1,101.38,8,8.44,8.44,0,0,0,100,12.32l-.4-2.24c-.06-.71-.14-1.42-.16-2.13a6,6,0,0,1,1-3.8c.15-.2,0-.25-.11-.35a7.44,7.44,0,0,1-1.5-2.18c0-.1-.07-.2-.1-.3a.71.71,0,0,1,0-.17,3,3,0,0,0,3.36.24A15.7,15.7,0,0,1,106.51,0c2.84-.33,7.13,1.24,8.29,4.85a10,10,0,0,1,.25,4.62C115,9.64,115,9.77,115,9.9Z"/><path class="cls-7" d="M107.07,23.74h.19l1.24,1.32.08.13a.06.06,0,0,0,0,.06,6.35,6.35,0,0,0-.76,1.08.44.44,0,0,0,0,.3c.25,1.72.52,3.45.75,5.17a17,17,0,0,1,.3,2.46h-3.36a4.61,4.61,0,0,1,0-.53l1-7.07a.44.44,0,0,0,0-.34,6.86,6.86,0,0,0-.76-1.09C106.11,24.67,106.65,24.26,107.07,23.74Z"/><path class="cls-6" d="M105.73,25.22a6.86,6.86,0,0,1,.76,1.09.44.44,0,0,1,0,.34l-1,7.07a4.61,4.61,0,0,0,0,.53h-.19c-.05-1.2-.26-2.38-.38-3.57-.14-1.43-.33-2.86-.5-4.28l.94-.91C105.46,25.39,105.55,25.23,105.73,25.22Z"/><path class="cls-6" d="M108.84,34.25a17,17,0,0,0-.3-2.46c-.23-1.72-.5-3.45-.75-5.17a.44.44,0,0,1,0-.3,6.35,6.35,0,0,1,.76-1.08c.3.06.44.32.62.53s.39.52.71.63q-.41,3.38-.79,6.75a3.7,3.7,0,0,0-.09,1.1Z"/><path class="cls-6" d="M108.58,25.18l-.08-.13Z"/></g></g></svg>