<svg xmlns="http://www.w3.org/2000/svg" viewBox="0 0 156.79 106.52"><defs><style>.cls-1{fill:#fec751;}.cls-2{fill:#f84730;}.cls-3{fill:#2c3b4d;}.cls-4{fill:#5b5d6e;}.cls-5{fill:#b5e6fb;}.cls-6{fill:#87a474;}.cls-7{fill:#326595;}.cls-8{fill:#4ca8ed;}.cls-9{fill:#ef4b37;}.cls-10{fill:#fff;}</style></defs><g id="Layer_2" data-name="Layer 2"><g id="Layer_1-2" data-name="Layer 1"><path class="cls-1" d="M0,18.8a14.09,14.09,0,0,1,1.3-2.57,6.59,6.59,0,0,1,4.21-2.38A26,26,0,0,0,19.73,6.66,23.43,23.43,0,0,1,36.1,0h21A24.29,24.29,0,0,1,71,4.57c3,2.09,6.17,4,9.13,6.21a33.17,33.17,0,0,0,15.11,6c3,.46,6,1.2,9,1.82.09.73.19,1.47.26,2.21A42.8,42.8,0,0,1,104.46,31a3.46,3.46,0,0,1-2.24,2.74A9.79,9.79,0,0,0,91,34.38H26.23c-.34,0-.68,0-1,0a9.76,9.76,0,0,0-12.25,0L0,34.38V31.44c1.43,0,2.86,0,4.28,0s1.56-.26,1.57-1.6,0-2.56,0-3.83-.41-1.54-1.57-1.56H0Zm64.69,2.91v0H81.28c1.18,0,1.55-.53,1.23-1.65A3.54,3.54,0,0,0,80.89,18c-4.45-2.73-8.69-5.78-13-8.67A19.39,19.39,0,0,0,59,6c-3.6-.34-7.22-.13-10.82-.2-.79,0-1,.21-1,1,0,4.62,0,9.25,0,13.88,0,1,.33,1.08,1.16,1.08C53.78,21.7,59.24,21.71,64.69,21.71Zm-34.57,0c4.17,0,8.35,0,12.52,0,.77,0,1.13-.1,1.12-1,0-4.62,0-9.25,0-13.88,0-.71-.17-1-.94-1-2.41.06-4.82,0-7.22,0A17.74,17.74,0,0,0,25.13,9.56c-2.35,1.76-4.27,4-6.81,5.55-.93.56-1.9,1.08-2.78,1.71a2.65,2.65,0,0,0-.15,4.2,3.51,3.51,0,0,0,2.43.69Z"/><path class="cls-1" d="M0,34.38l13,.06a10.06,10.06,0,0,0-3.45,8.3L1.92,39.42A4.47,4.47,0,0,1,0,37.31Z"/><path class="cls-2" d="M0,24.45H4.28c1.16,0,1.56.41,1.57,1.56s0,2.55,0,3.83-.27,1.6-1.57,1.6-2.85,0-4.28,0Z"/><path class="cls-1" d="M25.21,34.42c.34,0,.68,0,1,0H91a9.75,9.75,0,0,0-3.45,8.79h-59A11.07,11.07,0,0,0,28.58,41,10.37,10.37,0,0,0,25.21,34.42Z"/><path class="cls-3" d="M25.21,34.42A10.37,10.37,0,0,1,28.58,41a11.07,11.07,0,0,1-.06,2.23,9.53,9.53,0,0,1-18.87,0,3.09,3.09,0,0,0-.14-.43A10.06,10.06,0,0,1,13,34.44,9.76,9.76,0,0,1,25.21,34.42ZM19,37.75a4.08,4.08,0,1,0,4.13,4A4.08,4.08,0,0,0,19,37.75Z"/><path class="cls-3" d="M87.53,43.17a9.61,9.61,0,0,1,14.69-9.43,10,10,0,0,1,4.27,9.43c-.81,3.9-3,6.66-6.86,7.84C94.2,52.68,88.59,49,87.53,43.17Zm9.4,2.73a4.08,4.08,0,1,0-4.09-4.08A4.09,4.09,0,0,0,96.93,45.9Z"/><path class="cls-1" d="M106.49,43.17a10,10,0,0,0-4.27-9.43A3.46,3.46,0,0,0,104.46,31a42.8,42.8,0,0,0,.11-10.18c-.07-.74-.17-1.48-.26-2.21a12,12,0,0,1,9.45,5.83c-.9,0-1.8,0-2.7,0A3.43,3.43,0,0,0,107.64,27a9.75,9.75,0,0,0-.17,2.9c0,1.36.42,1.8,1.8,1.81h6.29c0,2.43.07,4.88,0,7.31a4.49,4.49,0,0,1-4.25,4.18C109.72,43.21,108.1,43.17,106.49,43.17Z"/><path class="cls-4" d="M115.56,31.68h-6.29c-1.38,0-1.83-.45-1.8-1.81a9.75,9.75,0,0,1,.17-2.9,3.43,3.43,0,0,1,3.42-2.52c.9,0,1.8,0,2.7,0C115.52,26.56,115.77,29.06,115.56,31.68Z"/><path class="cls-4" d="M64.69,21.71c-5.45,0-10.91,0-16.36,0-.83,0-1.17-.13-1.16-1.08,0-4.63,0-9.26,0-13.88,0-.8.23-1,1-1,3.6.07,7.22-.14,10.82.2a19.39,19.39,0,0,1,8.84,3.37c4.35,2.89,8.59,5.94,13,8.67a3.54,3.54,0,0,1,1.62,2.08c.32,1.12-.05,1.64-1.23,1.65H64.69Z"/><path class="cls-4" d="M30.12,21.71H17.82A3.51,3.51,0,0,1,15.39,21a2.65,2.65,0,0,1,.15-4.2c.88-.63,1.85-1.15,2.78-1.71,2.54-1.52,4.46-3.79,6.81-5.55A17.74,17.74,0,0,1,35.59,5.91c2.4,0,4.81,0,7.22,0,.77,0,.95.26.94,1,0,4.63,0,9.26,0,13.88,0,.92-.35,1-1.12,1C38.47,21.7,34.29,21.71,30.12,21.71Z"/><path class="cls-5" d="M19,37.75a4.08,4.08,0,1,1-4.11,4.06A4.1,4.1,0,0,1,19,37.75Z"/><path class="cls-5" d="M96.93,45.9a4.08,4.08,0,1,1,4.16-4A4.09,4.09,0,0,1,96.93,45.9Z"/><path class="cls-6" d="M133.6,74.16c-8.29-.06-16.59,0-24.88,0-5.55,0-10.19-2.65-10.75-6-.72-4.37,4-7.84,10.8-7.86,7.85,0,15.71,0,23.57,0s14-3.46,15.21-8.53a16.72,16.72,0,0,0,.28-3.27c-.72-.23-1.42-.48-2.11-.74q-.87.1-1.74.18a19.54,19.54,0,0,1-.64,4.4c-1.24,3.32-5.69,5.38-11.27,5.39-8.08,0-16.16-.06-24.23,0-8.76.1-15.4,5.65-13.67,11.25,1.41,4.57,7.28,7.73,14.52,7.76,8.25,0,16.5,0,24.76,0,5.69,0,10.3,3.14,10.35,6.84.06,3.89-4.67,7-10.75,7-10.58,0-21.16,0-31.74,0H83a2.79,2.79,0,0,1-.87-.11c.14.79.23,1.58.29,2.37,0,.13,0,.26,0,.39a7.38,7.38,0,0,1,1.39-.1q24.57,0,49.12,0c9.9,0,16.82-5.9,14.28-12.06C145.59,77.15,139.94,74.2,133.6,74.16Z"/><path class="cls-7" d="M156.75,43.44H127.94c.15-3.2-.4-6.38.53-9.47a11.64,11.64,0,0,1,8.24-8.17,2.17,2.17,0,0,1,1.31,0,11.51,11.51,0,0,0,8.76,0,2.14,2.14,0,0,1,1.23-.06,11.87,11.87,0,0,1,8.72,10.56C156.85,38.66,156.75,41,156.75,43.44Z"/><path class="cls-8" d="M142.34,23.72a8,8,0,1,1,8.13-7.92A8,8,0,0,1,142.34,23.72Z"/><path class="cls-9" d="M67,106.52a20.32,20.32,0,0,1-7.09-1.2,9.08,9.08,0,0,1-2.11-1.17c-.86-.65-.85-1.33,0-2a9.89,9.89,0,0,1,4.6-1.86c.17,0,.44.18.6.34,1,1,1.94,2,2.92,3s1.36.9,2.23,0,2-2,2.9-3a.82.82,0,0,1,1-.31,32.64,32.64,0,0,1,3.91,1.59c1.31.73,1.25,1.64,0,2.51a12.16,12.16,0,0,1-5.35,1.8C69.35,106.39,68.16,106.43,67,106.52Z"/><path class="cls-9" d="M73.57,71.61a15,15,0,0,0-13.69.26,9,9,0,0,0-5.06,6.89,12.69,12.69,0,0,0,.49,5.64c2.13,6.88,6.79,12,11.66,17.15a59.19,59.19,0,0,0,9-11.06A23.83,23.83,0,0,0,79,82.79C80,77.84,78.08,73.7,73.57,71.61ZM67,88.92a7.11,7.11,0,1,1,7.06-7.14A7.1,7.1,0,0,1,67,88.92Z"/><path class="cls-10" d="M67,74.71a7.11,7.11,0,1,1-7.1,7.1A7.09,7.09,0,0,1,67,74.71Z"/></g></g></svg>