<svg xmlns="http://www.w3.org/2000/svg" viewBox="0 0 228.75 115.9"><defs><style>.cls-1{fill:#fec751;}.cls-2{fill:#f84730;}.cls-3{fill:#2c3b4d;}.cls-4{fill:#5b5d6e;}.cls-5{fill:#b5e6fb;}.cls-6{fill:#ef4b37;}.cls-7{fill:#a4c2db;}.cls-8{fill:#23a9e5;}.cls-9{fill:#87a474;}</style></defs><g id="Layer_2" data-name="Layer 2"><g id="Layer_1-2" data-name="Layer 1"><path class="cls-1" d="M0,83a14.09,14.09,0,0,1,1.3-2.57,6.63,6.63,0,0,1,4.21-2.38A26.08,26.08,0,0,0,19.73,70.9,23.4,23.4,0,0,1,36.1,64.23h21A24.28,24.28,0,0,1,71,68.8c3,2.09,6.17,4,9.13,6.21a33.17,33.17,0,0,0,15.11,6c3,.46,6,1.2,9,1.82.09.74.19,1.48.26,2.22a42.71,42.71,0,0,1-.11,10.17A3.44,3.44,0,0,1,102.22,98,9.79,9.79,0,0,0,91,98.62q-32.39,0-64.75,0c-.34,0-.68,0-1,0a9.74,9.74,0,0,0-12.25,0L0,98.61V95.68H4.28c1.3,0,1.56-.27,1.57-1.61s0-2.55,0-3.83-.41-1.54-1.57-1.55c-1.42,0-2.85,0-4.28,0ZM64.69,86h0c5.53,0,11.06,0,16.59,0,1.18,0,1.55-.53,1.23-1.65a3.49,3.49,0,0,0-1.62-2.07c-4.45-2.74-8.69-5.79-13-8.68A19.26,19.26,0,0,0,59,70.2c-3.6-.35-7.22-.14-10.82-.21-.79,0-1,.21-1,1,0,4.63,0,9.25,0,13.88,0,1,.33,1.09,1.16,1.08C53.78,85.93,59.24,86,64.69,86ZM30.12,86c4.17,0,8.35,0,12.52,0,.77,0,1.13-.1,1.12-1,0-4.62,0-9.25,0-13.87,0-.72-.17-1-.94-1-2.41.05-4.82,0-7.22.05a17.73,17.73,0,0,0-10.46,3.64c-2.35,1.76-4.27,4-6.81,5.56-.93.56-1.9,1.07-2.78,1.71a2.64,2.64,0,0,0-.15,4.19,3.52,3.52,0,0,0,2.43.7Z"/><path class="cls-1" d="M0,98.61l13,.07A10.05,10.05,0,0,0,9.51,107c-2.53-1.11-5.06-2.23-7.59-3.33A4.5,4.5,0,0,1,0,101.55Z"/><path class="cls-2" d="M0,88.68c1.43,0,2.86,0,4.28,0,1.16,0,1.56.4,1.57,1.55s0,2.56,0,3.83-.27,1.6-1.57,1.61H0Z"/><path class="cls-1" d="M25.21,98.66c.34,0,.68,0,1,0q32.37,0,64.75,0a9.74,9.74,0,0,0-3.45,8.79h-59a11.05,11.05,0,0,0,.06-2.23A10.32,10.32,0,0,0,25.21,98.66Z"/><path class="cls-3" d="M25.21,98.66a10.32,10.32,0,0,1,3.37,6.52,11.05,11.05,0,0,1-.06,2.23,9.53,9.53,0,0,1-18.87,0,3.45,3.45,0,0,0-.14-.42A10.05,10.05,0,0,1,13,98.68,9.74,9.74,0,0,1,25.21,98.66ZM19,102a4.08,4.08,0,1,0,4.13,4A4.08,4.08,0,0,0,19,102Z"/><path class="cls-3" d="M87.53,107.41A9.61,9.61,0,0,1,102.22,98a10,10,0,0,1,4.27,9.43c-.81,3.9-3,6.66-6.86,7.85C94.2,116.91,88.59,113.25,87.53,107.41Zm9.4,2.73a4.08,4.08,0,1,0-4.09-4.09A4.1,4.1,0,0,0,96.93,110.14Z"/><path class="cls-1" d="M106.49,107.4A10,10,0,0,0,102.22,98a3.44,3.44,0,0,0,2.24-2.74,42.71,42.71,0,0,0,.11-10.17c-.07-.74-.17-1.48-.26-2.22a12,12,0,0,1,9.45,5.83h-2.7a3.44,3.44,0,0,0-3.42,2.53,9.68,9.68,0,0,0-.17,2.89c0,1.37.42,1.8,1.8,1.81,2.09,0,4.19,0,6.29,0,0,2.44.07,4.88,0,7.32a4.48,4.48,0,0,1-4.25,4.17C109.72,107.45,108.1,107.41,106.49,107.4Z"/><path class="cls-4" d="M115.56,95.91c-2.1,0-4.2,0-6.29,0-1.38,0-1.83-.44-1.8-1.81a9.68,9.68,0,0,1,.17-2.89,3.44,3.44,0,0,1,3.42-2.53h2.7C115.52,90.79,115.77,93.29,115.56,95.91Z"/><path class="cls-4" d="M64.69,86c-5.45,0-10.91,0-16.36,0-.83,0-1.17-.12-1.16-1.08,0-4.63,0-9.25,0-13.88,0-.8.23-1,1-1,3.6.07,7.22-.14,10.82.21a19.26,19.26,0,0,1,8.84,3.36c4.35,2.89,8.59,5.94,13,8.68a3.49,3.49,0,0,1,1.62,2.07c.32,1.12-.05,1.65-1.23,1.65-5.53,0-11.06,0-16.59,0Z"/><path class="cls-4" d="M30.12,86H17.82a3.52,3.52,0,0,1-2.43-.7,2.64,2.64,0,0,1,.15-4.19c.88-.64,1.85-1.15,2.78-1.71,2.54-1.52,4.46-3.8,6.81-5.56a17.73,17.73,0,0,1,10.46-3.64c2.4-.05,4.81,0,7.22-.05.77,0,.95.25.94,1,0,4.62,0,9.25,0,13.87,0,.92-.35,1-1.12,1C38.47,85.93,34.29,86,30.12,86Z"/><path class="cls-5" d="M19,102A4.08,4.08,0,1,1,14.92,106,4.11,4.11,0,0,1,19,102Z"/><path class="cls-5" d="M96.93,110.14a4.08,4.08,0,1,1,4.16-4A4.11,4.11,0,0,1,96.93,110.14Z"/><path class="cls-4" d="M153.12,4.8a19.83,19.83,0,0,0-20,17.68c-.19,1.68-1.25,2.73-2.64,2.62s-2.33-1.31-2.19-3.07A24.71,24.71,0,0,1,148.72.28,42.14,42.14,0,0,1,155,0a2.36,2.36,0,0,1,2.46,2.46,2.41,2.41,0,0,1-2.69,2.34Z"/><path class="cls-4" d="M153.15,14.63A9.93,9.93,0,0,0,143,23.26a2.7,2.7,0,0,1-1.56,2.38,2.35,2.35,0,0,1-3.29-2.39,13.79,13.79,0,0,1,4.43-9.32,14.37,14.37,0,0,1,10.84-4.14c1.91.06,3,1,2.92,2.53s-1.09,2.34-3,2.31Z"/><path class="cls-4" d="M155.58,19.1c.79.46,1.83.74,2.31,1.41a3.33,3.33,0,0,1,.18,2.44c-.27,1-1.22,1.27-2.21,1.33-2.4.13-3.31.9-3.83,3.17a2.42,2.42,0,1,1-4.79-.69C147.47,22.81,151.27,19.39,155.58,19.1Z"/><path class="cls-6" d="M144.69,101.08a90.75,90.75,0,0,0,8.8-14.33c1.25-2.75,2.13-5.57,1.58-8.65-1.1-6.13-7.39-12-15.16-10.93-8.41,1.2-13.68,10.06-10.82,17.14.51,1.25,1,2.52,1.6,3.72A108.52,108.52,0,0,0,141,104.11c.19.25.38.52.63.87h.25Zm-7.91-20.7a5,5,0,1,1,5,4.91A5,5,0,0,1,136.78,80.38Z"/><path class="cls-7" d="M190.88,111v-1.75q0-34.29,0-68.58c0-.5,0-1,0-1.51a2.35,2.35,0,0,0-2.52-2.4c-2.73,0-5.45,0-8.18,0h-1.42V31.93c0-2.31-.8-3.14-3.08-3.15q-5.85,0-11.7,0c-2.39,0-3.16.79-3.17,3.18v4.78h-9.14c-2.13,0-3,.82-3,3,0,7.76,0,15.52,0,23.28a2.43,2.43,0,0,0,.82,1.63c7.61,6.08,10,14.43,6.76,23.6a57.25,57.25,0,0,1-6.49,12.31,6.4,6.4,0,0,0-1.15,4c.1,2.13,0,4.26,0,6.41h-12l0,0h-.3a1.1,1.1,0,0,0,.09.14h-21a8.66,8.66,0,0,0-1.25,0,2.48,2.48,0,0,0-2.19,2.51,2.42,2.42,0,0,0,2.26,2.29c.46,0,.92,0,1.38,0h77V111ZM178.82,71.9a16.83,16.83,0,0,1-2,0h0a19.25,19.25,0,0,1-2,0,2.45,2.45,0,0,1-2.31-2.38,2.36,2.36,0,0,1,2.24-2.42,27.24,27.24,0,0,1,4.14,0A2.25,2.25,0,0,1,181,69.46,2.35,2.35,0,0,1,178.82,71.9ZM181,81.29a2.36,2.36,0,0,1-2.17,2.48c-.71.07-1.42,0-2.14,0a19.25,19.25,0,0,1-2,0,2.45,2.45,0,0,1-2.22-2.46,2.32,2.32,0,0,1,2.2-2.32,35.91,35.91,0,0,1,4.15,0A2.25,2.25,0,0,1,181,81.29ZM179.11,60a20.74,20.74,0,0,1-2.33.16c-.8,0-1.56,0-2.3-.15a2.35,2.35,0,0,1-2-2.26,2.22,2.22,0,0,1,1.83-2.37,24.77,24.77,0,0,1,4.87,0A2.15,2.15,0,0,1,181,57.67,2.24,2.24,0,0,1,179.11,60Zm-4.47-16.59a29,29,0,0,1,4.27,0,2.39,2.39,0,0,1-.13,4.77c-.66.06-1.33,0-2,0s-1.35.05-2,0a2.39,2.39,0,0,1-.13-4.77Zm-13.8,0c.67,0,1.34,0,2,0s1.18,0,1.76,0a2.48,2.48,0,0,1,2.44,2.39,2.39,2.39,0,0,1-2.37,2.43,33.65,33.65,0,0,1-3.89,0,2.27,2.27,0,0,1-2.28-2.35A2.38,2.38,0,0,1,160.84,43.33Zm3.92,28.58a19.25,19.25,0,0,1-2,0h0c-.63,0-1.26,0-1.89,0a2.38,2.38,0,0,1-2.35-2.44,2.28,2.28,0,0,1,2.26-2.38,26.84,26.84,0,0,1,4,0,2.37,2.37,0,0,1,2.27,2.41A2.45,2.45,0,0,1,164.76,71.91Zm2.29,9.39a2.46,2.46,0,0,1-2.22,2.47c-.7.07-1.42,0-2.13,0a19.24,19.24,0,0,1-2,0,2.36,2.36,0,0,1-2.18-2.47A2.25,2.25,0,0,1,160.69,79a35.74,35.74,0,0,1,4.14,0A2.33,2.33,0,0,1,167.05,81.3Zm-8.54-23.6a2.31,2.31,0,0,1,2-2.45,15.47,15.47,0,0,1,2.26,0v0a19.25,19.25,0,0,1,2,0,2.45,2.45,0,0,1,2.23,2.46,2.34,2.34,0,0,1-2.2,2.33,27.67,27.67,0,0,1-4.27,0A2.21,2.21,0,0,1,158.51,57.7Zm2.18,33.15c.71,0,1.42,0,2.13,0h0c.63,0,1.26,0,1.89,0a2.39,2.39,0,0,1,2.34,2.32A2.36,2.36,0,0,1,165,95.6a30.63,30.63,0,0,1-4.39,0,2.4,2.4,0,0,1,.12-4.76Zm4.83,16.63c-.7.06-1.42,0-2.13,0s-1.43.05-2.14,0a2.4,2.4,0,0,1-2.15-2.39,2.36,2.36,0,0,1,2.16-2.37,38,38,0,0,1,4.27,0,2.29,2.29,0,0,1,2.12,2.38A2.33,2.33,0,0,1,165.52,107.48Zm9.37-16.64c1.25,0,2.51,0,3.77,0A2.32,2.32,0,0,1,181,93.23a2.38,2.38,0,0,1-2.37,2.42c-.63,0-1.26,0-1.88,0s-1.26,0-1.89,0a2.46,2.46,0,0,1-2.4-2.42A2.38,2.38,0,0,1,174.89,90.84Zm4.57,16.64c-.7.06-1.42,0-2.13,0s-1.35.05-2,0a2.33,2.33,0,0,1-2.17-2.47,2.31,2.31,0,0,1,2.21-2.3,41,41,0,0,1,4.15,0,2.39,2.39,0,0,1,0,4.77Z"/><path class="cls-8" d="M226.52,111.06c-.35-.06-.71-.08-1.13-.12V63.4c0-.46,0-.92,0-1.38a2.33,2.33,0,0,0-2.53-2.38c-2,0-4,0-6,0h-3.07c0-1.68,0-3.19,0-4.69,0-2.49-.75-3.26-3.2-3.26H195.71V111h-3v4.91h32.46c.42,0,.85,0,1.26,0a2.42,2.42,0,0,0,2.34-2.34A2.48,2.48,0,0,0,226.52,111.06ZM203.53,66a21.32,21.32,0,0,1,3.39,0,2.39,2.39,0,0,1-.13,4.77c-.5,0-1,0-1.51,0s-1.09,0-1.63,0a2.39,2.39,0,0,1-.12-4.77Zm.23,12.06c.5,0,1,0,1.51,0h0c.5,0,1,0,1.51,0a2.47,2.47,0,0,1,2.29,2.4,2.36,2.36,0,0,1-2.26,2.4,20.57,20.57,0,0,1-3.14,0,2.36,2.36,0,0,1-2.29-2.37A2.46,2.46,0,0,1,203.76,78.06Zm-2.38,14.58a2.46,2.46,0,0,1,2.35-2.47c.5,0,1,0,1.51,0h0a14.77,14.77,0,0,1,1.63,0,2.44,2.44,0,0,1,2.19,2.49,2.34,2.34,0,0,1-2.22,2.3,19.37,19.37,0,0,1-3.14,0A2.39,2.39,0,0,1,201.38,92.64Zm6.94,14.4a16.44,16.44,0,0,1-1.93.15,14.68,14.68,0,0,1-1.94-.17,2.21,2.21,0,0,1-1.84-2.23,2,2,0,0,1,1.67-2.33,15.69,15.69,0,0,1,4.22,0,2.11,2.11,0,0,1,1.72,2.42A2.23,2.23,0,0,1,208.32,107ZM214.22,66a21.31,21.31,0,0,1,3.39,0,2.39,2.39,0,0,1-.16,4.77c-.54,0-1.08,0-1.63,0s-1,0-1.5,0a2.31,2.31,0,0,1-2.23-2.27A2.35,2.35,0,0,1,214.22,66Zm.13,12.08c.54,0,1.09,0,1.63,0v0a12.64,12.64,0,0,1,1.63,0,2.41,2.41,0,0,1,2.12,2.42,2.31,2.31,0,0,1-2.16,2.34,20.86,20.86,0,0,1-3.26,0,2.3,2.3,0,0,1-2.23-2.4A2.4,2.4,0,0,1,214.35,78.07ZM212.09,92.7a2.3,2.3,0,0,1,2-2.48,17.06,17.06,0,0,1,3.5,0,2.33,2.33,0,0,1,2.12,2.4A2.37,2.37,0,0,1,217.57,95c-.58.08-1.17.06-1.75.09s-1.1,0-1.63-.09A2.3,2.3,0,0,1,212.09,92.7Zm6.8,14.36a17.3,17.3,0,0,1-1.87.12,14.6,14.6,0,0,1-1.88-.16,2.3,2.3,0,0,1-1.88-2.34,2.16,2.16,0,0,1,1.8-2.27,16.56,16.56,0,0,1,4,0,2.26,2.26,0,0,1,1.9,2.33A2.4,2.4,0,0,1,218.89,107.06Z"/><path class="cls-9" d="M108.17,64H90.45c-1.74,0-2.16-.42-2.16-2.13q0-3.49,0-7c0-1.46.49-2,2-2h17.91c0-1.3,0-2.51,0-3.71a1.72,1.72,0,0,1,.88-1.8,1.68,1.68,0,0,1,1.88.4q6.07,4.57,12.16,9.12c1.38,1,1.38,2,0,3Q117,64.56,110.93,69.1a1.68,1.68,0,0,1-1.88.41,1.71,1.71,0,0,1-.88-1.8C108.18,66.51,108.17,65.31,108.17,64Z"/></g></g></svg>