<svg xmlns="http://www.w3.org/2000/svg" viewBox="0 0 115.62 85.48"><defs><style>.cls-1{fill:#fec751;}.cls-2{fill:#f84730;}.cls-3{fill:#2c3b4d;}.cls-4{fill:#5b5d6e;}.cls-5{fill:#b5e6fb;}.cls-6{fill:#ef4b37;}.cls-7{fill:#87a474;}.cls-8{fill:#23a9e5;}.cls-9{fill:#555a6e;}.cls-10{fill:#4b4b60;}</style></defs><g id="Layer_2" data-name="Layer 2"><g id="Layer_1-2" data-name="Layer 1"><path class="cls-1" d="M0,52.86a14.09,14.09,0,0,1,1.3-2.57A6.6,6.6,0,0,1,5.51,47.9a26,26,0,0,0,14.22-7.18A23.39,23.39,0,0,1,36.1,34.06h21A24.28,24.28,0,0,1,71,38.62c3,2.1,6.17,4,9.13,6.22a33.17,33.17,0,0,0,15.11,6c3,.46,6,1.2,9,1.81.09.74.19,1.48.26,2.22a42.8,42.8,0,0,1-.11,10.18,3.46,3.46,0,0,1-2.24,2.74A9.79,9.79,0,0,0,91,68.44H26.23c-.34,0-.68,0-1,0A9.76,9.76,0,0,0,13,68.5L0,68.44V65.5H4.28c1.3,0,1.56-.26,1.57-1.6s0-2.56,0-3.84-.41-1.54-1.57-1.55c-1.42,0-2.85,0-4.28,0Zm64.69,2.91v0H81.28c1.18,0,1.55-.52,1.23-1.64a3.54,3.54,0,0,0-1.62-2.08c-4.45-2.73-8.69-5.79-13-8.67A19.28,19.28,0,0,0,59,40c-3.6-.34-7.22-.14-10.82-.2-.79,0-1,.21-1,1,0,4.63,0,9.26,0,13.88,0,1,.33,1.09,1.16,1.09C53.78,55.76,59.24,55.77,64.69,55.77Zm-34.57,0c4.17,0,8.35,0,12.52,0,.77,0,1.13-.1,1.12-1,0-4.63,0-9.25,0-13.88,0-.71-.17-1-.94-1-2.41.06-4.82,0-7.22,0a17.67,17.67,0,0,0-10.46,3.65c-2.35,1.75-4.27,4-6.81,5.55-.93.56-1.9,1.08-2.78,1.71a2.64,2.64,0,0,0-.15,4.19,3.52,3.52,0,0,0,2.43.7Z"/><path class="cls-1" d="M0,68.44l13,.06a10.05,10.05,0,0,0-3.45,8.3C7,75.69,4.45,74.57,1.92,73.47A4.45,4.45,0,0,1,0,71.37Z"/><path class="cls-2" d="M0,58.5c1.43,0,2.86,0,4.28,0,1.16,0,1.56.41,1.57,1.55s0,2.56,0,3.84-.27,1.6-1.57,1.6H0Z"/><path class="cls-1" d="M25.21,68.48c.34,0,.68,0,1,0H91a9.74,9.74,0,0,0-3.45,8.79h-59A11.05,11.05,0,0,0,28.58,75,10.37,10.37,0,0,0,25.21,68.48Z"/><path class="cls-3" d="M25.21,68.48A10.37,10.37,0,0,1,28.58,75a11.05,11.05,0,0,1-.06,2.23,9.53,9.53,0,0,1-18.87,0,3.09,3.09,0,0,0-.14-.43A10.05,10.05,0,0,1,13,68.5,9.76,9.76,0,0,1,25.21,68.48ZM19,71.81a4.08,4.08,0,1,0,4.13,4A4.07,4.07,0,0,0,19,71.81Z"/><path class="cls-3" d="M87.53,77.23a9.61,9.61,0,0,1,14.69-9.44,10,10,0,0,1,4.27,9.43c-.81,3.91-3,6.67-6.86,7.85C94.2,86.74,88.59,83.07,87.53,77.23ZM96.93,80a4.08,4.08,0,1,0-4.09-4.09A4.09,4.09,0,0,0,96.93,80Z"/><path class="cls-1" d="M106.49,77.22a10,10,0,0,0-4.27-9.43,3.43,3.43,0,0,0,2.24-2.73,42.8,42.8,0,0,0,.11-10.18c-.07-.74-.17-1.48-.26-2.22a12,12,0,0,1,9.45,5.83h-2.7A3.43,3.43,0,0,0,107.64,61a9.75,9.75,0,0,0-.17,2.9c0,1.36.42,1.8,1.8,1.8,2.09,0,4.19,0,6.29,0,0,2.44.07,4.88,0,7.32a4.49,4.49,0,0,1-4.25,4.18C109.72,77.27,108.1,77.23,106.49,77.22Z"/><path class="cls-4" d="M115.56,65.73c-2.1,0-4.2,0-6.29,0-1.38,0-1.83-.44-1.8-1.8a9.75,9.75,0,0,1,.17-2.9,3.43,3.43,0,0,1,3.42-2.52h2.7C115.52,60.62,115.77,63.12,115.56,65.73Z"/><path class="cls-4" d="M64.69,55.77c-5.45,0-10.91,0-16.36,0-.83,0-1.17-.13-1.16-1.09,0-4.62,0-9.25,0-13.88,0-.79.23-1,1-1,3.6.06,7.22-.14,10.82.2a19.28,19.28,0,0,1,8.84,3.37c4.35,2.88,8.59,5.94,13,8.67a3.54,3.54,0,0,1,1.62,2.08c.32,1.12-.05,1.64-1.23,1.64H64.69Z"/><path class="cls-4" d="M30.12,55.77H17.82a3.52,3.52,0,0,1-2.43-.7,2.64,2.64,0,0,1,.15-4.19c.88-.63,1.85-1.15,2.78-1.71,2.54-1.52,4.46-3.8,6.81-5.55A17.67,17.67,0,0,1,35.59,40c2.4,0,4.81,0,7.22,0,.77,0,.95.26.94,1,0,4.63,0,9.25,0,13.88,0,.92-.35,1-1.12,1C38.47,55.75,34.29,55.77,30.12,55.77Z"/><path class="cls-5" d="M19,71.81a4.08,4.08,0,1,1-4.11,4A4.1,4.1,0,0,1,19,71.81Z"/><path class="cls-5" d="M96.93,80a4.08,4.08,0,1,1,4.16-4A4.1,4.1,0,0,1,96.93,80Z"/><path class="cls-6" d="M31.22,14.77c0-2.88,0-5.77,0-8.66A5.75,5.75,0,0,1,37.28,0q9.28,0,18.57,0a5.66,5.66,0,0,1,6,6c0,3.23,0,6.45,0,9.68-1-1.56-2-2.12-3.4-1.8s-2,1.37-2.14,3.11c-3.08.17-6.15.12-9.23.06-.14-2-1-3.15-2.65-3.21s-2.69.85-3,2.75A85.51,85.51,0,0,1,31.22,14.77Z"/><path class="cls-7" d="M28.79,37a15.73,15.73,0,0,0-8.72,5.88,17.45,17.45,0,0,1-1.35,1.37,27.86,27.86,0,0,1-6.11-.43,12.75,12.75,0,0,1,.88-24.94A12.61,12.61,0,0,1,22,20.32l4.18,2.3a49.18,49.18,0,0,0,.08,9.63C26.41,34.17,26.54,36.18,28.79,37Zm-5.36-5.08A7.25,7.25,0,0,0,23,29a7.69,7.69,0,0,0-7.1-5.19A7.57,7.57,0,0,0,8.16,28a6.29,6.29,0,0,0-.07,6.62,5.78,5.78,0,0,0,5.49,2.81,4.94,4.94,0,0,0,4.19-3.66,3.86,3.86,0,0,0-1.51-4.32c-.63-.5-1.25-.61-1.8,0a1.09,1.09,0,0,0,.29,1.75,1.74,1.74,0,0,1,.55,2.32,2.42,2.42,0,0,1-2.54,1.51c-2.51-.53-3.63-2.42-2.9-5,.8-2.81,3.31-4.31,6.5-3.88A5.37,5.37,0,0,1,21,31.59a9.36,9.36,0,0,1-.35,3,1.17,1.17,0,0,0,.75,1.57c.75.29,1.25-.17,1.49-.85A9.17,9.17,0,0,0,23.43,31.94Z"/><path class="cls-8" d="M28.79,37c-2.25-.84-2.38-2.85-2.57-4.77a49.18,49.18,0,0,1-.08-9.63c.18-1.47.31-2.94.54-4.4.32-2.1,1.93-3.3,4.54-3.45A85.51,85.51,0,0,0,41.4,16.62c0,.23.06.45.06.68q0,9.72-.05,19.45c-2.54,0-5.08,0-7.63,0A43.77,43.77,0,0,0,28.79,37Z"/><path class="cls-8" d="M66,37.26a25.56,25.56,0,0,0-4.09-.52l0-20.5a40.37,40.37,0,0,0,8.21-1.79c3.11-.92,4.8.3,5,3.58.16,3,.41,5.91.62,8.86A36,36,0,0,1,75.48,33a3.73,3.73,0,0,1-2,2.54,10.51,10.51,0,0,1-5.37,1.64C67.43,37.26,66.7,37.24,66,37.26Z"/><path class="cls-9" d="M61.86,16.24l0,20.5H56.27c0-2.24,0-4.49,0-6.73q0-6.49-.05-13c.13-1.74.87-2.81,2.14-3.11s2.42.24,3.4,1.8Z"/><path class="cls-8" d="M56.26,17q0,6.5.05,13c0,2.24,0,4.49,0,6.73H47c0-2.24,0-4.47,0-6.71,0-4.32,0-8.64.05-13C50.11,17.14,53.18,17.19,56.26,17Z"/><path class="cls-9" d="M47,17.08C47,21.4,47,25.72,47,30c0,2.24,0,4.47,0,6.71h-5.6q0-9.72.05-19.45c0-.23,0-.45-.06-.68.29-1.9,1.29-2.83,3-2.75S46.89,15,47,17.08Z"/><path class="cls-10" d="M23.43,31.94a9.17,9.17,0,0,1-.56,3.4c-.24.68-.74,1.14-1.49.85a1.17,1.17,0,0,1-.75-1.57,9.36,9.36,0,0,0,.35-3,5.37,5.37,0,0,0-4.62-5.36c-3.19-.43-5.7,1.07-6.5,3.88-.73,2.53.39,4.42,2.9,5a2.42,2.42,0,0,0,2.54-1.51,1.74,1.74,0,0,0-.55-2.32,1.09,1.09,0,0,1-.29-1.75c.55-.65,1.17-.54,1.8,0a3.86,3.86,0,0,1,1.51,4.32,4.94,4.94,0,0,1-4.19,3.66,5.78,5.78,0,0,1-5.49-2.81A6.29,6.29,0,0,1,8.16,28a7.57,7.57,0,0,1,7.72-4.2A7.69,7.69,0,0,1,23,29,7.25,7.25,0,0,1,23.43,31.94Z"/></g></g></svg>