<svg xmlns="http://www.w3.org/2000/svg" viewBox="0 0 143.12 91.65"><defs><style>.cls-1{fill:#fec751;}.cls-2{fill:#f84730;}.cls-3{fill:#2c3b4d;}.cls-4{fill:#5b5d6e;}.cls-5{fill:#b5e6fb;}.cls-6{fill:#4ca8ed;}.cls-7{fill:#326595;}.cls-8{fill:#ef4b37;}</style></defs><g id="Layer_2" data-name="Layer 2"><g id="Layer_1-2" data-name="Layer 1"><path class="cls-1" d="M0,59a14.09,14.09,0,0,1,1.3-2.57,6.59,6.59,0,0,1,4.21-2.38,26,26,0,0,0,14.22-7.19A23.43,23.43,0,0,1,36.1,40.23h21A24.21,24.21,0,0,1,71,44.8c3,2.09,6.17,4,9.13,6.21a33.17,33.17,0,0,0,15.11,6c3,.46,6,1.2,9,1.82.09.74.19,1.47.26,2.21a42.79,42.79,0,0,1-.11,10.18A3.44,3.44,0,0,1,102.22,74,9.79,9.79,0,0,0,91,74.62H26.23c-.34,0-.68,0-1,0a9.73,9.73,0,0,0-12.25,0L0,74.61V71.68H4.28c1.3,0,1.56-.26,1.57-1.6s0-2.55,0-3.83-.41-1.54-1.57-1.56H0ZM64.69,62H81.28c1.18,0,1.55-.53,1.23-1.65a3.49,3.49,0,0,0-1.62-2.07c-4.45-2.74-8.69-5.79-13-8.68A19.26,19.26,0,0,0,59,46.2c-3.6-.35-7.22-.14-10.82-.21-.79,0-1,.21-1,1,0,4.62,0,9.25,0,13.88,0,1,.33,1.09,1.16,1.08C53.78,61.93,59.24,62,64.69,62ZM30.12,62c4.17,0,8.35,0,12.52,0,.77,0,1.13-.1,1.12-1,0-4.62,0-9.25,0-13.87,0-.72-.17-1-.94-1-2.41.06-4.82,0-7.22.06a17.66,17.66,0,0,0-10.46,3.64c-2.35,1.76-4.27,4-6.81,5.56-.93.56-1.9,1.07-2.78,1.7a2.65,2.65,0,0,0-.15,4.2,3.52,3.52,0,0,0,2.43.7Z"/><path class="cls-1" d="M0,74.61l13,.07A10,10,0,0,0,9.51,83L1.92,79.65A4.5,4.5,0,0,1,0,77.55Z"/><path class="cls-2" d="M0,64.68H4.28c1.16,0,1.56.41,1.57,1.56s0,2.55,0,3.83-.27,1.6-1.57,1.6H0Z"/><path class="cls-1" d="M25.21,74.66c.34,0,.68,0,1,0H91a9.73,9.73,0,0,0-3.45,8.78h-59a11.05,11.05,0,0,0,.06-2.23A10.32,10.32,0,0,0,25.21,74.66Z"/><path class="cls-3" d="M25.21,74.66a10.32,10.32,0,0,1,3.37,6.52,11.05,11.05,0,0,1-.06,2.23,9.53,9.53,0,0,1-18.87,0A3.59,3.59,0,0,0,9.51,83,10,10,0,0,1,13,74.68,9.73,9.73,0,0,1,25.21,74.66ZM19,78a4.08,4.08,0,1,0,4.13,4A4.08,4.08,0,0,0,19,78Z"/><path class="cls-3" d="M87.53,83.4A9.61,9.61,0,0,1,102.22,74a10,10,0,0,1,4.27,9.43c-.81,3.9-3,6.66-6.86,7.85C94.2,92.91,88.59,89.24,87.53,83.4Zm9.4,2.74a4.08,4.08,0,1,0-4.09-4.09A4.11,4.11,0,0,0,96.93,86.14Z"/><path class="cls-1" d="M106.49,83.4A10,10,0,0,0,102.22,74a3.44,3.44,0,0,0,2.24-2.74,42.79,42.79,0,0,0,.11-10.18c-.07-.74-.17-1.47-.26-2.21a12,12,0,0,1,9.45,5.83c-.9,0-1.8,0-2.7,0a3.43,3.43,0,0,0-3.42,2.52,9.77,9.77,0,0,0-.17,2.9c0,1.37.42,1.8,1.8,1.81h6.29c0,2.44.07,4.88,0,7.32a4.49,4.49,0,0,1-4.25,4.17C109.72,83.45,108.1,83.4,106.49,83.4Z"/><path class="cls-4" d="M115.56,71.91h-6.29c-1.38,0-1.83-.44-1.8-1.81a9.77,9.77,0,0,1,.17-2.9,3.43,3.43,0,0,1,3.42-2.52c.9,0,1.8,0,2.7,0C115.52,66.79,115.77,69.29,115.56,71.91Z"/><path class="cls-4" d="M64.69,62c-5.45,0-10.91,0-16.36,0-.83,0-1.17-.12-1.16-1.08,0-4.63,0-9.26,0-13.88,0-.8.23-1,1-1,3.6.07,7.22-.14,10.82.21a19.26,19.26,0,0,1,8.84,3.36c4.35,2.89,8.59,5.94,13,8.68a3.49,3.49,0,0,1,1.62,2.07c.32,1.12-.05,1.65-1.23,1.65H64.69Z"/><path class="cls-4" d="M30.12,62H17.82a3.52,3.52,0,0,1-2.43-.7,2.65,2.65,0,0,1,.15-4.2c.88-.63,1.85-1.14,2.78-1.7,2.54-1.52,4.46-3.8,6.81-5.56a17.66,17.66,0,0,1,10.46-3.64c2.4,0,4.81,0,7.22-.06.77,0,.95.26.94,1,0,4.62,0,9.25,0,13.87,0,.92-.35,1-1.12,1C38.47,61.93,34.29,62,30.12,62Z"/><path class="cls-5" d="M19,78A4.08,4.08,0,1,1,14.92,82,4.11,4.11,0,0,1,19,78Z"/><path class="cls-5" d="M96.93,86.14a4.08,4.08,0,1,1,4.16-4A4.11,4.11,0,0,1,96.93,86.14Z"/><path class="cls-6" d="M99.32,22.09h30.35v.56c0,4.25,0,8.5,0,12.76a3.74,3.74,0,0,1-4,4h-22.4a3.71,3.71,0,0,1-4-3.94c0-4.29,0-8.57,0-12.86Zm11.93,6.58h0c.39,0,.78,0,1.18,0a.8.8,0,0,0,0-1.59,23.22,23.22,0,0,0-2.36,0,.74.74,0,0,0-.71.79.76.76,0,0,0,.76.8C110.53,28.69,110.89,28.67,111.25,28.67Zm0,5.73c.39,0,.78,0,1.17,0a.8.8,0,0,0,.07-1.58,22.24,22.24,0,0,0-2.45,0,.69.69,0,0,0-.64.79.73.73,0,0,0,.72.78C110.51,34.42,110.89,34.41,111.27,34.4Zm12.81-5.73c.38,0,.75,0,1.13,0a.72.72,0,0,0,.74-.75c0-.45-.19-.81-.66-.83a21.35,21.35,0,0,0-2.4,0,.71.71,0,0,0-.67.82.73.73,0,0,0,.73.77C123.33,28.68,123.7,28.67,124.08,28.67Zm-19.21,5.74c.38,0,.75,0,1.13,0a.74.74,0,0,0,.75-.75.72.72,0,0,0-.69-.85,20.46,20.46,0,0,0-2.35,0,.72.72,0,0,0-.68.86.73.73,0,0,0,.77.73C104.15,34.42,104.51,34.41,104.87,34.41Zm0-5.75c.39,0,.78,0,1.17,0a.72.72,0,0,0,.73-.77.71.71,0,0,0-.67-.82,23,23,0,0,0-2.35,0,.8.8,0,0,0,0,1.59C104.13,28.68,104.49,28.67,104.85,28.66Zm12.8,5.75h1.12a.76.76,0,0,0,.78-.78.73.73,0,0,0-.72-.82,22.06,22.06,0,0,0-2.3,0,.72.72,0,0,0-.7.84.71.71,0,0,0,.74.75C116.93,34.42,117.29,34.41,117.65,34.41Zm6.42,0h0c.38,0,.75,0,1.13,0a.8.8,0,0,0,0-1.6c-.77,0-1.54,0-2.3,0a.77.77,0,0,0-.74.83.78.78,0,0,0,.79.78C123.35,34.43,123.71,34.41,124.07,34.41Zm-6.42-5.74h0c.39,0,.78,0,1.17,0a.73.73,0,0,0,.73-.77.71.71,0,0,0-.67-.82,23,23,0,0,0-2.35,0,.8.8,0,0,0,0,1.59C116.93,28.68,117.29,28.67,117.65,28.67Z"/><path class="cls-7" d="M116.26,14.62c0,.71,0,1.33,0,1.94s.31,1,.82,1,.81-.34.81-1c0-1.1,0-2.19,0-3.28a3,3,0,0,1,4-2.77A2.82,2.82,0,0,1,123.85,13c0,.51,0,1,0,1.62.39,0,.72,0,1.06,0a10.67,10.67,0,0,1,1.88.11,3.64,3.64,0,0,1,2.86,3.39c0,.73,0,1.46,0,2.24H99.31a12.06,12.06,0,0,1,.2-3.23,3.76,3.76,0,0,1,3.94-2.48v1.82c0,.64.3,1,.8,1s.84-.38.84-1.06c0-1,0-2,0-3.07a3,3,0,1,1,6-.06c0,.41,0,.81,0,1.28Zm-6.85,0c0-.51,0-.95,0-1.39A1.31,1.31,0,0,0,108.22,12a1.27,1.27,0,0,0-1.41,1,10.2,10.2,0,0,0,0,1.66Zm12.81,0c0-.51,0-1,0-1.42A1.32,1.32,0,0,0,121,12a1.3,1.3,0,0,0-1.37,1.12,13.14,13.14,0,0,0,0,1.54Z"/><path class="cls-8" d="M129.79,4.81c.68.58,1.39,1.15,2.05,1.76a24.46,24.46,0,0,1,7.28,12.23,3,3,0,0,0,.09.32s0,.05.08.12c.26-.32.5-.63.74-.94l.79-1,2.3,1.78-4.7,6.07-6.06-4.7,1.78-2.31,2.24,1.73A21.52,21.52,0,0,0,131.19,10a21.92,21.92,0,1,0-32.25,29.7,21.31,21.31,0,0,0,14.11,6.93,21.79,21.79,0,0,0,15.14-4.24l1.74,2.31a22.73,22.73,0,0,1-5.08,3,24.32,24.32,0,0,1-19.74-.06A24.84,24.84,0,0,1,119.21.35,24.32,24.32,0,0,1,126.78,3c.12.06.26.1.4.16Z"/></g></g></svg>