<svg xmlns="http://www.w3.org/2000/svg" viewBox="0 0 144.38 97.82"><defs><style>.cls-1{fill:#fff;}.cls-2{fill:#ef4b37;}.cls-3{fill:#d5e5ef;}.cls-4{fill:#555a6e;}.cls-5{fill:#a4c2db;}.cls-6{fill:#23a9e5;}.cls-7{fill:#fec751;}.cls-8{fill:#5b5d6e;}.cls-9{fill:#fefefe;}</style></defs><g id="Layer_2" data-name="Layer 2"><g id="Layer_1-2" data-name="Layer 1"><path class="cls-1" d="M100.73,81.46l1.61,2.13h-1.61Z"/><path class="cls-2" d="M92.6,40.83c0,1.18,0,2.37,0,3.54,0,.71.07,1.08.46,1a1.61,1.61,0,0,1,.49,0h49c1.39,0,1.68.6,1.68,3.41,0,1,0,2,0,3,0,1.86-.41,2.66-1.33,2.7l-.91,0c-.3,0-.61,0-.91,0q-23.19,0-46.38,0c-.69,0-1.63-.63-2,.29s-.11,2.8-.09,4.25q0,15.84,0,31.69l-13.46,0q0-5.8,0-11.61,0-19.14,0-38.27Z"/><path class="cls-3" d="M92.61,90.66q0-15.84,0-31.69l34.3,0,15.08,0V90.75l-6.73-.08V67.3c0-2.27-.35-3-1.44-3h-8.35c-1.09,0-1.44.73-1.44,3V90.67H121.8V67.3c0-2.27-.35-3-1.44-3H112c-1.09,0-1.44.73-1.44,3V90.67h-2.24q0-11.69,0-23.37c0-2.27-.34-3-1.44-3H98.54c-1.1,0-1.44.73-1.45,3V90.67Z"/><path class="cls-4" d="M108.33,90.67h27l6.73.08c0,1.18,0,2.36,0,3.54,0,.71-.07,1.08-.46,1a1.48,1.48,0,0,0-.42,0q-30.57,0-61.16,0c-.69,0-1-.27-.87-1.74.07-.93,0-1.88,0-2.83l13.46,0h15.72Z"/><path class="cls-5" d="M142,58.93l-15.08,0-34.3,0c0-1.45-.3-3.3.09-4.25s1.32-.29,2-.29q23.19,0,46.38,0c.3,0,.61,0,.91,0C142,56,142,57.44,142,58.93Z"/><path class="cls-4" d="M79.84,13.26c-.52-1.66-1-3.31-1.57-5-.6-1.95-.12-3.72,1-3.76,1.44,0,2.89,0,4.33,0h4.46c1.43,0,2.85,0,4.27,0,.53,0,1,.26,1.23,1.26a4.45,4.45,0,0,1-.17,2.64c-.52,1.61-1,3.24-1.54,4.86-.2.44-.46.34-.71.34H80.56C80.31,13.6,80,13.69,79.84,13.26Z"/><path class="cls-5" d="M92.6,40.83H79.13L77,36.26c2.59,0,5.17,0,7.76,0,.57,0,.74-.36.7-1.45s0-2.07,0-3.11l9.38,0c.27,3.05-.12,5.57-1.42,7.42A12.42,12.42,0,0,0,92.6,40.83Z"/><path class="cls-6" d="M94.83,18.14v4.49l-9.38,0-8.54-.08V18.19l8.54-.08Z"/><path class="cls-6" d="M94.83,31.7l-9.38,0-8.54-.07v-4.4l8.54-.07,9.38,0Z"/><path class="cls-3" d="M85.45,18.11l-8.54.08c-.13-3.72-.06-4.86,2.15-4.62.26,0,.56.22.78-.31.2.43.47.34.72.34H91.17c.25,0,.51.1.71-.34.54.67,1.13.24,1.69.3.82.1,1.15.64,1.27,2.31-2.9,0-5.8,0-8.7,0-.56,0-.77.34-.7,1.44C85.46,17.54,85.45,17.83,85.45,18.11Z"/><path class="cls-5" d="M94.83,27.22l-9.38,0V22.66l9.38,0Z"/><path class="cls-3" d="M85.45,22.66v4.53l-8.54.07c0-1.56,0-3.12,0-4.68Z"/><path class="cls-3" d="M76.91,31.66l8.54.07c0,1,0,2.08,0,3.11s-.13,1.47-.7,1.45c-2.59-.06-5.17,0-7.76,0A29.43,29.43,0,0,1,76.91,31.66Z"/><path class="cls-5" d="M85.45,18.11c0-.28,0-.57,0-.85-.07-1.1.14-1.45.7-1.44,2.9.07,5.8,0,8.7,0,0,.76,0,1.52,0,2.27Z"/><path class="cls-6" d="M88.09,4.48H83.63C83.69.08,83.72.07,85.9,0,87.75,0,88.17.09,88.09,4.48Z"/><path class="cls-6" d="M108.33,90.67H97.09V67.3c0-2.28.35-3,1.45-3h8.34c1.1,0,1.44.74,1.44,3Q108.34,79,108.33,90.67Z"/><path class="cls-6" d="M121.8,90.67H110.57V67.3c0-2.28.35-3,1.44-3h8.35c1.09,0,1.44.74,1.44,3Z"/><path class="cls-6" d="M135.28,90.67H124.05V67.3c0-2.28.35-3,1.44-3h8.35c1.09,0,1.44.74,1.44,3Z"/><path class="cls-7" d="M66.73,63a2.41,2.41,0,0,0-2.41-2.19H62.89a2.19,2.19,0,0,0-2.14,1.6c-.16.88-.62.94-1.3.86a1.7,1.7,0,0,0-.39,0c-.46.06-.69-.12-.85-.57-.91-2.6-1.87-5.18-2.81-7.77a3.79,3.79,0,0,0-3.19-2.77H14.56a3.77,3.77,0,0,0-3.22,2.78c-.83,2.3-1.67,4.61-2.51,6.91-.55,1.48-.56,1.48-2.14,1.42H6.63c-.32,0-.46-.1-.5-.43A2.27,2.27,0,0,0,5,61.11a4.88,4.88,0,0,0-4,.09,3.9,3.9,0,0,0-1,1.4v1.18a2.75,2.75,0,0,0,2.77,1.94H7.33c-.19.26-.29.42-.41.57l-3.3,4.11A4.37,4.37,0,0,0,2.5,73.11c0,4.79,0,9.59,0,14.39A3.78,3.78,0,0,0,6,90.37c.67,0,1.34,0,2,0l.71,0c.28,0,.56,0,.84,0h9c0-1.19,0-2.39,0-3.58a1.29,1.29,0,0,1,1.27-1.37,5.61,5.61,0,0,1,.58,0h26c1.49,0,1.87.38,1.86,1.84,0,1,0,2.08,0,3.12h1.42l8.42,0c.77,0,1.55,0,2.33,0a3.65,3.65,0,0,0,3.76-2.74c0-.06.08-.1.11-.15q0-6.87,0-13.75a5.17,5.17,0,0,0-1.17-3.36l-1.8-2.23-1.94-2.45c.74,0,1.32,0,1.89,0a20.56,20.56,0,0,0,3.51-.09A2.43,2.43,0,0,0,66.73,63ZM11.16,86.7a1.87,1.87,0,1,1,0-3.73,1.87,1.87,0,0,1,0,3.73Zm-.7-6.79a3.79,3.79,0,0,1-3.67-3.74,3.72,3.72,0,0,1,7.43.06A3.74,3.74,0,0,1,10.46,79.91Zm37.25-3.64c-.15.61-.29,1.23-.45,1.83a1.33,1.33,0,0,1-1.54,1.18H21.09c-1,0-1.37-.27-1.62-1.24-.17-.65-.32-1.3-.48-2a1.26,1.26,0,0,1,1.35-1.75H46.21C47.59,74.33,48,74.92,47.71,76.27ZM35.54,65.69h-18c-2.3,0-4.6,0-6.9-.06-.41,0-.58,0-.39-.52,1.18-3.14,2.32-6.3,3.47-9.45.34-.93.64-1.13,1.65-1.13l36.08,0a1.42,1.42,0,0,1,1.65,1.15c1.14,3.13,2.27,6.28,3.43,9.4.2.53.08.6-.43.6C49.22,65.68,42.38,65.69,35.54,65.69Zm20.07,21a1.87,1.87,0,0,1,0-3.73,1.91,1.91,0,0,1,1.88,1.86A1.89,1.89,0,0,1,55.61,86.7ZM60,76.19a3.72,3.72,0,1,1-7.43,0,3.72,3.72,0,0,1,7.43,0Z"/><path class="cls-8" d="M18.54,90.38c0-1.19,0-2.38,0-3.58a1.29,1.29,0,0,1,1.27-1.37c.19,0,.39,0,.58,0h26c1.49,0,1.87.37,1.86,1.83,0,1,0,2.08,0,3.12-.2,0-.39,0-.59,0H19.12Z"/><path class="cls-8" d="M2.49,87.5A3.8,3.8,0,0,0,6,90.38c.67,0,1.34,0,2,0,.23,0,.47,0,.71,0,0,2,0,4-.06,6A1.2,1.2,0,0,1,7.29,97.8q-1.75,0-3.51,0a1.17,1.17,0,0,1-1.29-1.24C2.48,93.54,2.49,90.52,2.49,87.5Z"/><path class="cls-8" d="M58.05,90.43l2.33,0a3.64,3.64,0,0,0,3.76-2.74,1.43,1.43,0,0,1,.11-.15c0,3,0,6,0,9A1.18,1.18,0,0,1,63,97.8c-1.23,0-2.47,0-3.71,0a1.19,1.19,0,0,1-1.21-1.32C58.08,94.46,58.07,92.44,58.05,90.43Z"/><path class="cls-8" d="M35.54,65.7h-18c-2.3,0-4.6,0-6.9-.07-.41,0-.58,0-.39-.52,1.18-3.14,2.32-6.3,3.47-9.45.34-.92.64-1.13,1.65-1.13l36.08,0a1.42,1.42,0,0,1,1.65,1.15c1.14,3.14,2.27,6.28,3.43,9.41.2.52.08.59-.43.59H35.54Z"/><path class="cls-8" d="M33.44,74.33H46.21c1.38,0,1.83.58,1.5,1.94-.15.61-.29,1.22-.45,1.83a1.32,1.32,0,0,1-1.54,1.17H21.09c-1,0-1.37-.27-1.62-1.24-.17-.65-.32-1.3-.48-2-.26-1.09.24-1.75,1.35-1.75Z"/><path class="cls-8" d="M10.54,72.5a3.66,3.66,0,0,1,3.68,3.73,3.73,3.73,0,0,1-3.76,3.68,3.78,3.78,0,0,1-3.67-3.73A3.69,3.69,0,0,1,10.54,72.5Z"/><path class="cls-8" d="M52.53,76.15a3.72,3.72,0,0,1,7.43,0,3.72,3.72,0,1,1-7.43,0Z"/><path class="cls-9" d="M11.16,86.7a1.87,1.87,0,0,1-1.89-1.84A1.91,1.91,0,0,1,11.12,83,1.94,1.94,0,0,1,13,84.79,1.92,1.92,0,0,1,11.16,86.7Z"/><path class="cls-9" d="M57.48,84.83a1.89,1.89,0,0,1-1.87,1.87,1.94,1.94,0,0,1-1.86-1.89A2,2,0,0,1,55.6,83,1.91,1.91,0,0,1,57.48,84.83Z"/><path class="cls-3" d="M116,19.86l6.6-2.21,7-2.34c.15-.05.34-.05.44-.22a1.27,1.27,0,0,0,.63-.12c2.66-.89,5.31-1.79,8-2.66a2.85,2.85,0,0,1,2.72.46.67.67,0,0,1,.11.14c-1,.33-1.94.67-2.92,1-.37.12-.64.32-.66.73a.73.73,0,0,0,.59.77c-.1.2-.31.2-.47.25l-5.52,1.87-6.67,2.22-.57.18-8.75,2.91c.35-.5.36-.85,0-1.16a.87.87,0,0,0-.95-.1l-7.57,2.52c-.44-1.39-.43-1.4,1-1.88Z"/><path class="cls-6" d="M125.85,19.74l6.67-2.22c.77.36.85.52.51,1.31s-.6,1.28-.9,1.91c-.14.26-.29.51-.42.78-.9,1.8-1.82,3.6-2.7,5.41a3.41,3.41,0,0,1-2.17,1.89c-.9.27-1.8.58-2.69.89a.82.82,0,0,1-.91-.11.81.81,0,0,1-.18-.9c.45-1.63.89-3.26,1.34-4.89,0-.16.06-.33.1-.49.21-.76.45-1.5.64-2.26A2.48,2.48,0,0,1,125.85,19.74Z"/><path class="cls-5" d="M125.85,19.74a2.48,2.48,0,0,0-.71,1.32c-.19.76-.43,1.5-.64,2.26-3,1-6,2-8.94,3a2,2,0,0,1-.91.08c-1.8-.27-3.61-.52-5.41-.78a1,1,0,0,1-.53-.15l7.82-2.63,8.75-2.91Z"/><path class="cls-6" d="M130.06,15.09c-.1.17-.29.17-.44.22l-7,2.34-4.16-3.27-.33-.25a.72.72,0,0,1,.21-1.29c1.11-.39,2.23-.77,3.35-1.11a3.07,3.07,0,0,1,2.29.33C126,13.08,128,14.08,130.06,15.09Z"/><path class="cls-6" d="M116,19.86l-7,2.35q-1-3.12-2.09-6.25a.75.75,0,0,1,.55-1.08c2-.7,2-.7,3.54.65Z"/><path class="cls-5" d="M132.13,20.74c.3-.63.62-1.26.9-1.91s.26-.95-.51-1.31L138,15.65c.16-.05.37-.05.47-.25a1.64,1.64,0,0,0,.58-.09l3.32-1.12a1.49,1.49,0,1,1,.86,2.85l-10.78,3.61C132.37,20.69,132.25,20.71,132.13,20.74Z"/><path class="cls-6" d="M116.53,22.83l-7.82,2.63-2.17.71c-.52.17-.92,0-1.06-.43s.08-.8.59-1l2-.67,7.57-2.52a.87.87,0,0,1,.95.1C116.89,22,116.88,22.33,116.53,22.83Z"/><path class="cls-4" d="M142.41,14.19l-3.32,1.12a1.64,1.64,0,0,1-.58.09.73.73,0,0,1-.59-.77c0-.41.29-.61.66-.73,1-.32,1.95-.66,2.92-1A2.35,2.35,0,0,1,142.41,14.19Z"/></g></g></svg>