<?xml version="1.0" encoding="utf-8"?>
<!-- Generator: Adobe Illustrator 26.0.1, SVG Export Plug-In . SVG Version: 6.00 Build 0)  -->
<svg version="1.0" id="Layer_1" xmlns="http://www.w3.org/2000/svg" xmlns:xlink="http://www.w3.org/1999/xlink" x="0px" y="0px"
	 viewBox="0 0 30 30" style="enable-background:new 0 0 30 30;" xml:space="preserve">
<style type="text/css">
	.st0{fill:#004876;}
	.st1{fill:none;stroke:#FFCD17;stroke-width:0.502;stroke-miterlimit:22.9256;}
	.st2{fill-rule:evenodd;clip-rule:evenodd;fill:#004876;}
	.st3{fill:#FDD000;}
</style>
<path class="st0" d="M8.47,26.52c0.5-1.88,0.99-3.71,1.48-5.54c0.11,0.04,0.12,0.14,0.16,0.21c0.55,1.02,1.39,1.57,2.55,1.52
	c0.62-0.03,1.07,0.26,1.55,0.53c0.11,0.06,0.04,0.13,0.02,0.2c-0.34,1.28-0.68,2.55-1.02,3.83c-0.04,0.15-0.08,0.3-0.13,0.48
	c-0.11-0.17-0.21-0.31-0.29-0.45c-0.44-0.69-0.88-1.38-1.31-2.08c-0.1-0.16-0.17-0.2-0.36-0.1c-0.81,0.44-1.62,0.86-2.44,1.29
	C8.63,26.44,8.57,26.47,8.47,26.52z"/>
<path class="st0" d="M20.68,20.98c0.49,1.84,0.98,3.67,1.48,5.54c-0.88-0.46-1.72-0.9-2.57-1.35c-0.31-0.16-0.31-0.16-0.5,0.14
	c-0.51,0.8-1.01,1.6-1.55,2.44c-0.14-0.52-0.27-0.99-0.4-1.47c-0.25-0.95-0.5-1.91-0.77-2.86c-0.04-0.13-0.01-0.18,0.1-0.23
	c0.14-0.06,0.28-0.14,0.4-0.23c0.25-0.17,0.52-0.26,0.83-0.25c1.32,0.08,2.28-0.46,2.87-1.65c0.01-0.02,0.03-0.04,0.04-0.06
	C20.63,21,20.64,20.99,20.68,20.98z"/>
<path class="st0" d="M22.93,6.48c-0.51,0.09-0.95,0.17-1.39,0.24c-0.14,0.02-0.22,0.09-0.25,0.23c-0.11,0.43-0.24,0.86-0.38,1.35
	c-0.22-0.41-0.42-0.77-0.61-1.14c-0.1-0.2-0.2-0.29-0.45-0.27c-0.41,0.03-0.83,0.01-1.27,0.01c0.31-0.32,0.6-0.64,0.91-0.95
	c0.13-0.13,0.16-0.23,0.09-0.4c-0.16-0.4-0.29-0.8-0.45-1.24c0.27,0.06,0.46,0.2,0.67,0.29c0.26,0.11,0.51,0.36,0.77,0.32
	C20.8,4.88,21,4.61,21.22,4.44c0.18-0.14,0.36-0.28,0.59-0.46c-0.07,0.51-0.12,0.96-0.19,1.42c-0.02,0.14,0.02,0.2,0.13,0.27
	C22.13,5.92,22.5,6.18,22.93,6.48z"/>
<path class="st0" d="M6.97,11.98c-0.32-0.31-0.64-0.6-0.95-0.92c-0.12-0.12-0.21-0.15-0.38-0.08c-0.42,0.17-0.85,0.31-1.31,0.47
	c0.22-0.45,0.41-0.86,0.62-1.27c0.07-0.14,0.05-0.22-0.04-0.34C4.63,9.49,4.36,9.13,4.06,8.73c0.49,0.07,0.93,0.13,1.38,0.2
	c0.15,0.02,0.25-0.01,0.34-0.15c0.24-0.38,0.5-0.74,0.78-1.15c0.09,0.5,0.19,0.95,0.26,1.41c0.02,0.14,0.08,0.18,0.2,0.21
	c0.44,0.12,0.87,0.25,1.36,0.4c-0.42,0.23-0.79,0.44-1.17,0.62c-0.19,0.09-0.25,0.21-0.24,0.41C6.98,11.11,6.97,11.53,6.97,11.98z"
	/>
<path class="st0" d="M8.82,3.98c0.4,0.31,0.76,0.58,1.1,0.86c0.11,0.09,0.2,0.11,0.34,0.04c0.39-0.2,0.79-0.38,1.2-0.58
	c0,0.24-0.11,0.42-0.17,0.61c-0.09,0.3-0.34,0.6-0.26,0.87c0.07,0.26,0.38,0.45,0.59,0.67c0.14,0.15,0.28,0.3,0.43,0.46
	c-0.47,0-0.91,0.01-1.36-0.01c-0.16-0.01-0.24,0.04-0.32,0.19c-0.2,0.4-0.42,0.79-0.65,1.22C9.6,7.83,9.46,7.4,9.36,6.97
	C9.31,6.8,9.22,6.74,9.06,6.71C8.63,6.64,8.2,6.56,7.71,6.47c0.31-0.21,0.56-0.43,0.85-0.58c0.38-0.2,0.53-0.44,0.4-0.88
	C8.87,4.71,8.87,4.37,8.82,3.98z"/>
<path class="st0" d="M13.96,6.43c0.12-0.49,0.22-0.94,0.34-1.39c0.04-0.13,0.01-0.2-0.09-0.28c-0.35-0.29-0.7-0.59-1.09-0.92
	c0.43-0.03,0.8-0.08,1.18-0.08c0.3,0,0.48-0.08,0.58-0.4c0.11-0.36,0.28-0.71,0.45-1.12c0.18,0.44,0.36,0.82,0.49,1.21
	c0.08,0.24,0.22,0.29,0.43,0.3c0.41,0.02,0.82,0.05,1.29,0.08c-0.39,0.33-0.73,0.64-1.09,0.92c-0.12,0.09-0.13,0.17-0.09,0.3
	c0.12,0.44,0.22,0.88,0.33,1.37c-0.42-0.26-0.8-0.48-1.17-0.73c-0.14-0.09-0.23-0.09-0.37,0C14.76,5.95,14.38,6.17,13.96,6.43z"/>
<path class="st0" d="M24.08,7.63c0.28,0.41,0.53,0.76,0.76,1.13c0.1,0.16,0.21,0.2,0.38,0.17c0.43-0.07,0.87-0.13,1.35-0.19
	c-0.3,0.39-0.57,0.76-0.86,1.11c-0.1,0.12-0.1,0.21-0.04,0.34c0.2,0.4,0.39,0.8,0.61,1.26c-0.46-0.16-0.88-0.3-1.28-0.46
	c-0.16-0.06-0.27-0.06-0.4,0.08c-0.3,0.32-0.63,0.61-0.95,0.92c0-0.41-0.03-0.81,0.01-1.21c0.03-0.29-0.08-0.43-0.33-0.54
	c-0.35-0.16-0.68-0.36-1.07-0.57c0.43-0.13,0.8-0.27,1.19-0.34c0.29-0.06,0.38-0.21,0.42-0.48C23.92,8.45,24,8.07,24.08,7.63z"/>
<path class="st0" d="M22.5,13.95c-0.24-0.36-0.34-0.75-0.31-1.18c0.06-1.02-0.34-1.77-1.26-2.23c-0.41-0.2-0.71-0.51-0.91-0.91
	c-0.44-0.87-1.14-1.31-2.12-1.26c-0.52,0.03-0.97-0.12-1.41-0.4c-0.76-0.48-1.55-0.48-2.31,0c-0.44,0.28-0.89,0.45-1.4,0.39
	c-0.99-0.03-1.7,0.38-2.14,1.26c-0.22,0.43-0.55,0.74-0.98,0.96c-0.85,0.44-1.25,1.15-1.21,2.11c0.02,0.48-0.08,0.92-0.35,1.32
	c-0.54,0.82-0.54,1.65,0,2.47c0.26,0.4,0.37,0.82,0.34,1.3c-0.05,0.97,0.36,1.7,1.23,2.14c0.43,0.22,0.75,0.53,0.97,0.97
	c0.44,0.88,1.16,1.28,2.14,1.22c0.45-0.03,0.87,0.07,1.25,0.33c0.85,0.57,1.7,0.57,2.56,0.01c0.39-0.26,0.81-0.36,1.27-0.33
	c0.96,0.06,1.67-0.34,2.11-1.19c0.23-0.45,0.55-0.78,1-1c0.87-0.45,1.27-1.18,1.22-2.15c-0.02-0.44,0.06-0.86,0.31-1.23
	C23.08,15.67,23.08,14.81,22.5,13.95z M15.32,12.3c1.14,0,2.02,0.9,2.02,2.04c0,1.12-0.9,2.01-2.02,2.01c-1.13,0-2.02-0.9-2.02-2.04
	C13.3,13.19,14.19,12.3,15.32,12.3z M18.75,17.81c-0.82,1.08-2.06,1.71-3.68,1.71c-1.17-0.02-2.32-0.59-3.19-1.71
	c-0.11-0.14-0.13-0.24-0.01-0.39c0.41-0.53,0.97-0.84,1.58-1.06c0.09-0.03,0.16-0.01,0.24,0.05c1.07,0.75,2.18,0.76,3.23,0.01
	c0.08-0.05,0.14-0.09,0.23-0.06c0.62,0.22,1.17,0.53,1.59,1.06C18.86,17.56,18.87,17.66,18.75,17.81z"/>
</svg>
