<?xml version="1.0" encoding="utf-8"?>
<!-- Generator: Adobe Illustrator 26.0.1, SVG Export Plug-In . SVG Version: 6.00 Build 0)  -->
<svg version="1.0" id="Layer_1" xmlns="http://www.w3.org/2000/svg" xmlns:xlink="http://www.w3.org/1999/xlink" x="0px" y="0px"
	 viewBox="0 0 30 30" style="enable-background:new 0 0 30 30;" xml:space="preserve">
<style type="text/css">
	.st0{fill:#004876;}
	.st1{fill:none;stroke:#FFCD17;stroke-width:0.502;stroke-miterlimit:22.9256;}
	.st2{fill-rule:evenodd;clip-rule:evenodd;fill:#004876;}
	.st3{fill:#FDD000;}
</style>
<path class="st0" d="M18.72,4.15c0.42,0.06,0.85,0.09,1.27,0.18c2.97,0.59,5.32,3.01,5.83,6c0.67,3.87-1.66,7.51-5.46,8.51
	c-0.19,0.05-0.38,0.09-0.59,0.13c0-0.22,0.02-0.41-0.01-0.6c-0.03-0.19-0.1-0.37-0.16-0.57c1.99-0.41,3.51-1.5,4.46-3.33
	c0.7-1.34,0.86-2.76,0.53-4.22c-0.67-2.99-3.38-5.04-6.46-4.86c-1.67,0.1-3.1,0.77-4.23,2c-1.13,1.23-1.67,2.69-1.67,4.37
	c-0.17-0.05-1.1,0.38-1.14,0.47c-0.11-0.98-0.01-1.95,0.32-2.88c0.89-2.57,2.65-4.22,5.27-4.94c0.42-0.12,0.87-0.14,1.3-0.21
	c0.09-0.01,0.18-0.03,0.28-0.04C18.4,4.15,18.56,4.15,18.72,4.15z"/>
<path class="st0" d="M11.75,12.29c1.4,0.32,2.21,1.67,1.85,3.03c-0.17,0.65-0.37,1.29-0.55,1.94c-0.11,0.37,0.01,0.52,0.39,0.52
	c1.62,0,3.24,0,4.85,0c0.63,0,1,0.5,0.81,1.1c-0.1,0.33-0.37,0.54-0.73,0.54c-0.59,0-1.19,0-1.78,0c-0.08,0-0.16,0-0.25,0
	c0,0.21,0,0.41,0,0.64c0.07,0,0.15,0.01,0.23,0.01c0.58,0,1.16,0,1.74,0c0.63,0.01,0.99,0.51,0.8,1.11
	c-0.11,0.35-0.39,0.53-0.83,0.53c-0.56,0.01-1.12,0-1.68,0c-0.08,0-0.16,0-0.26,0c0,0.21,0,0.41,0,0.63c0.47,0,0.93,0,1.39,0
	c0.64,0,1.01,0.53,0.81,1.13c-0.11,0.32-0.37,0.51-0.73,0.52c-0.49,0.01-0.97,0-1.47,0c0,0.21,0,0.41,0,0.64c0.29,0,0.57,0,0.86,0
	c0.11,0,0.22,0,0.33,0c0.49,0.02,0.79,0.3,0.81,0.78c0.02,0.49-0.26,0.81-0.75,0.86c-0.08,0.01-0.16,0.01-0.24,0.01
	c-2.24,0-4.48,0-6.73,0c-0.15,0-0.27-0.04-0.39-0.14c-0.39-0.35-0.87-0.52-1.38-0.58c-0.16-0.02-0.23-0.05-0.22-0.23
	c0.01-1.92,0.01-3.85,0-5.77c0-0.14,0.03-0.2,0.18-0.23c0.2-0.04,0.39-0.12,0.57-0.21c0.31-0.16,0.52-0.4,0.62-0.76
	c0.56-1.98,1.14-3.96,1.71-5.94C11.72,12.38,11.74,12.34,11.75,12.29z"/>
<path class="st0" d="M7.99,26.42c-1.24,0-2.46,0-3.7,0c0-2.61,0-5.22,0-7.84c1.23,0,2.45,0,3.7,0C7.99,21.18,7.99,23.78,7.99,26.42z
	"/>
<path class="st0" d="M20.53,15.38c-0.42,0-0.85,0-1.27,0c-0.03,0-0.07-0.02-0.09-0.05c-0.86-0.86-1.72-1.71-2.57-2.57
	c-0.02-0.02-0.05-0.06-0.05-0.09c0-0.37,0-0.73,0-1.11c0.05,0,0.09,0,0.13,0c0.51,0,1.01,0.01,1.52,0c0.6-0.01,1.04-0.29,1.31-0.83
	c0.02-0.03,0.03-0.07,0.05-0.12c-1.01,0-2,0-3,0c0-0.32,0-0.64,0-0.96c0.99,0,1.99,0,3,0c-0.02-0.05-0.03-0.09-0.05-0.13
	c-0.27-0.54-0.7-0.82-1.3-0.83c-0.51-0.01-1.01,0-1.52,0c-0.04,0-0.08,0-0.13,0c0-0.32,0-0.63,0-0.95c1.74,0,3.49,0,5.24,0
	c0,0.31,0,0.62,0,0.95c-0.55,0-1.1,0-1.68,0c0.22,0.3,0.37,0.61,0.44,0.96c0.41,0,0.82,0,1.24,0c0,0.32,0,0.63,0,0.95
	c-0.41,0-0.82,0-1.22,0c-0.43,1.43-1.41,2.01-2.86,1.92c0.96,0.96,1.9,1.9,2.84,2.84C20.54,15.36,20.53,15.37,20.53,15.38z"/>
</svg>
