<?xml version="1.0" encoding="utf-8"?>
<!-- Generator: Adobe Illustrator 26.0.1, SVG Export Plug-In . SVG Version: 6.00 Build 0)  -->
<svg version="1.0" id="Layer_1" xmlns="http://www.w3.org/2000/svg" xmlns:xlink="http://www.w3.org/1999/xlink" x="0px" y="0px"
	 viewBox="0 0 527.49 123.57" style="enable-background:new 0 0 527.49 123.57;" xml:space="preserve">
<style type="text/css">
	.st0{fill-rule:evenodd;clip-rule:evenodd;fill:#FFFFFF;}
	.st1{fill:#FFFFFF;}
</style>
<polygon class="st0" points="390.31,81.05 393.43,90.73 403.6,90.71 395.37,96.67 398.53,106.33 390.31,100.34 382.09,106.33 
	385.26,96.67 377.02,90.71 387.19,90.73 "/>
<polygon class="st0" points="418.16,85.34 420.75,93.37 429.2,93.36 422.36,98.31 424.98,106.33 418.16,101.36 411.34,106.33 
	413.96,98.31 407.12,93.36 415.56,93.37 "/>
<polygon class="st0" points="443.96,88.9 446.12,95.57 453.13,95.56 447.45,99.67 449.63,106.33 443.96,102.2 438.29,106.33 
	440.48,99.67 434.8,95.56 441.81,95.57 "/>
<polygon class="st0" points="128.24,81.05 125.12,90.73 114.95,90.71 123.19,96.67 120.03,106.33 128.24,100.34 136.46,106.33 
	133.3,96.67 141.54,90.71 131.37,90.73 "/>
<polygon class="st0" points="100.4,85.34 97.8,93.37 89.36,93.36 96.2,98.31 93.58,106.33 100.4,101.36 107.22,106.33 104.6,98.31 
	111.44,93.36 102.99,93.37 "/>
<polygon class="st0" points="74.59,88.9 72.44,95.57 65.43,95.56 71.11,99.67 68.93,106.33 74.59,102.2 80.26,106.33 78.08,99.67 
	83.76,95.56 76.75,95.57 "/>
<path class="st1" d="M164.76,92.82c0.66-1.19,1.27-2.31,1.87-3.42c1.05-1.93,2.01-3.89,3.14-5.73c0.11-0.2,0.19-0.3,0.28-0.3
	c0.11,0,0.19,0.08,0.33,0.22c0.94,1.1,1.41,2.51,1.41,3.89c0,1.57-0.58,3.14-1.76,4.27c-1.02,0.99-2.32,1.21-3.67,1.21
	C165.86,92.96,165.34,92.88,164.76,92.82 M164.15,88.88c0.05-0.33,0.14-0.63,0.14-0.96v-0.19c-0.19-1.24-1.32-2.15-2.78-2.21h-0.25
	c-0.28,0-0.58,0.03-0.85,0.14c-0.17,0.06-0.28,0.14-0.28,0.25c0,0.08,0.08,0.16,0.22,0.25c0.69,0.41,1.07,0.96,1.07,1.65
	c0,0.17-0.03,0.33-0.05,0.5c-0.22,1.05-0.96,1.66-1.96,1.93c-0.08,0.03-0.16,0.03-0.28,0.03c-0.63,0-1.3-0.69-1.41-1.49
	c-0.03-0.14-0.03-0.27-0.03-0.41c0-0.69,0.16-1.32,0.44-1.93c1.38-2.98,4.44-4.88,7.64-4.88c0.61,0,1.24,0.08,1.85,0.22
	c0.33,0.05,0.63,0.19,0.97,0.36c0.08,0.03,0.16,0.08,0.16,0.14c0,0.05-0.03,0.11-0.11,0.16c-1.82,1.74-2.98,3.97-4.25,6.09
	c-0.06,0.11-0.11,0.19-0.17,0.31C164.23,88.82,164.18,88.85,164.15,88.88z M163.82,89.57c-0.03,0.05-0.05,0.11-0.08,0.14
	c-1.57,2.73-2.98,5.52-4.63,8.19c-0.75,1.16-1.46,2.35-2.37,3.39c-0.58,0.66-1.24,1.27-2.13,1.57c-0.14,0.06-0.27,0.08-0.41,0.08
	c-0.39,0-0.72-0.25-0.88-0.72c-0.06-0.14-0.08-0.28-0.08-0.42c0-0.47,0.28-0.83,0.8-1.05c0.11-0.03,0.25-0.03,0.25-0.17
	c0-0.11-0.11-0.14-0.19-0.14h-0.11c-0.69,0.03-1.32,0.22-1.85,0.72c-0.39,0.38-0.58,0.8-0.58,1.19c0,0.55,0.38,1.07,1.13,1.29
	c0.61,0.19,1.21,0.3,1.82,0.3c0.91,0,1.82-0.22,2.7-0.63c1.35-0.63,2.23-1.74,3.06-2.87c1.46-1.93,2.51-4.11,3.67-6.23
	c0.17-0.3,0.33-0.47,0.66-0.47h0.14c0.47,0.08,0.91,0.08,1.38,0.11c1.19,0.08,1.9,0.8,2.26,1.87c0.11,0.39,0.16,0.8,0.16,1.22
	c0,1.68-0.83,3.61-2.1,4.58c-0.66,0.53-1.32,0.77-1.98,0.77c-0.72,0-1.43-0.3-2.13-0.94c-0.36-0.33-0.8-0.47-1.24-0.47
	c-0.22,0-0.5,0.06-0.74,0.14c-0.39,0.11-0.61,0.44-0.61,0.75c0,0.17,0.06,0.3,0.17,0.41c0.33,0.36,0.72,0.69,1.16,0.91
	c0.85,0.44,1.71,0.69,2.64,0.8c0.39,0.03,0.75,0.06,1.11,0.06c2.18,0,4.11-0.75,5.54-2.62c0.69-0.91,1.13-2.12,1.13-3.31
	c0-1.49-0.69-3.01-2.37-4.05c-0.19-0.11-0.41-0.22-0.69-0.41c0.41-0.05,0.72-0.11,1.02-0.17c2.81-0.52,4.96-3.14,4.96-6.01
	c-0.03-2.04-0.96-3.58-2.51-4.82c-0.22-0.17-0.61-0.3-0.61-0.5v-0.03c0.05-0.31,0.5-0.39,0.8-0.52c0.03,0,0.08-0.03,0.11-0.06
	c0.19-0.05,0.36-0.08,0.5-0.08c0.41,0,0.61,0.25,0.63,0.88c0.03,0.28,0.11,0.5,0.39,0.58c0.19,0.08,0.39,0.14,0.6,0.14
	c0.25,0,0.53-0.08,0.77-0.25c0.3-0.19,0.44-0.47,0.44-0.74c0-0.19-0.08-0.41-0.22-0.61c-0.28-0.33-0.61-0.55-1.02-0.66
	c-0.47-0.16-0.94-0.22-1.38-0.22c-0.88,0-1.71,0.25-2.54,0.69c-0.14,0.08-0.28,0.17-0.44,0.17c-0.05,0-0.11-0.03-0.19-0.05
	c-1.35-0.53-2.78-0.69-4.22-0.74c-0.25,0-0.47-0.03-0.71-0.03c-2.48,0-4.86,0.55-6.98,1.93c-1.38,0.89-2.59,2.01-3.17,3.61
	c-0.22,0.63-0.36,1.27-0.36,1.82c0,1.63,0.94,2.87,2.87,3.53c0.58,0.19,1.16,0.28,1.74,0.28c0.47,0,0.91-0.03,1.38-0.14
	C161.67,91.28,162.86,90.64,163.82,89.57z"/>
<path class="st1" d="M176.84,98.01c0.74-1.38,1.65-2.43,3.06-2.95c0.14-0.05,0.25-0.08,0.33-0.08c0.11,0,0.17,0.05,0.17,0.22
	c0,0.08,0,0.17-0.03,0.28c-0.05,0.36-0.19,0.69-0.44,0.97C179.15,97.4,178.13,97.81,176.84,98.01 M177.94,98.83
	c0.38,0,0.74-0.03,1.13-0.11c1.43-0.3,2.62-0.97,3.11-2.45c0.11-0.27,0.14-0.55,0.14-0.8c0-0.8-0.55-1.38-1.57-1.54
	c-0.3-0.05-0.61-0.08-0.91-0.08c-3.31,0-6.7,3.09-6.76,6.45v0.05c0,1.93,1.38,3.31,3.22,3.31c0.17,0,0.33,0,0.5-0.03
	c1.43-0.16,2.59-0.88,3.69-1.76c1.1-0.91,2.13-1.93,3.14-2.95c0.05-0.05,0.17-0.11,0.17-0.19c0-0.03,0-0.06-0.03-0.08
	c-0.08-0.08-0.19-0.14-0.27-0.14c-0.05,0-0.08,0-0.11,0.03c-0.11,0.06-0.2,0.17-0.3,0.25c-1.1,1.02-2.23,2.07-3.61,2.76
	c-0.72,0.36-1.46,0.55-2.26,0.55h-0.16c-0.75,0-1.24-0.55-1.24-1.24c0-0.08,0-0.16,0.03-0.25c0.11-0.55,0.3-1.05,0.47-1.57
	c0.08-0.22,0.2-0.33,0.39-0.33c0.08,0,0.14,0,0.22,0.03C177.25,98.78,177.58,98.78,177.94,98.83z"/>
<path class="st1" d="M186.51,104.7c-1.02,2.1-1.85,4.22-3,6.15c-0.5,0.83-1.19,1.41-2.1,1.71c-0.33,0.11-0.66,0.16-0.96,0.16
	c-0.53,0-0.99-0.16-1.41-0.58c-0.5-0.44-0.72-1.02-0.72-1.62c0-0.25,0.03-0.5,0.11-0.77c0.53-1.79,1.77-2.92,3.39-3.72
	c0.88-0.41,1.85-0.58,2.78-0.83C185.22,105.06,185.82,104.9,186.51,104.7 M190.59,102.42c-0.03-0.05-0.03-0.08-0.03-0.11
	c0-0.06,0.03-0.11,0.06-0.17c0.63-1.49,1.27-2.98,1.93-4.47c0.3-0.77,0.69-1.52,0.91-2.32c0.03-0.11,0.05-0.25,0.05-0.36
	c0-0.14-0.05-0.3-0.22-0.39c-0.19-0.11-0.47-0.17-0.77-0.17c-0.5,0-1.05,0.17-1.32,0.61c-0.55,0.91-1.07,1.85-1.51,2.81
	c-0.66,1.41-1.29,2.84-2.34,4.03c-0.41,0.49-0.88,0.94-1.54,1.1c-0.11,0.03-0.19,0.03-0.3,0.03c-0.52,0-0.88-0.36-0.88-0.94v-0.05
	c0-0.17,0.03-0.36,0.08-0.53c0.36-1.35,0.85-2.65,1.38-3.97c0.3-0.77,0.74-1.52,0.86-2.37v-0.11c0-0.22-0.06-0.39-0.3-0.5
	c-0.25-0.14-0.53-0.22-0.8-0.22c-0.52,0-1.02,0.28-1.32,0.77c-0.85,1.41-1.46,2.95-1.82,4.58c-0.11,0.53-0.22,1.05-0.22,1.57
	c0,0.52,0.11,1.05,0.33,1.57c0.36,0.8,1.02,1.16,1.85,1.19h0.11c0.44,0,0.83-0.14,1.21-0.33c0.55-0.28,0.99-0.69,1.44-1.1
	c-0.3,0.83-0.47,1.76-1.63,1.88c-0.3,0.05-0.61,0.19-0.91,0.27c-1.05,0.28-2.15,0.52-3.17,0.94c-1.9,0.74-3.34,1.95-3.94,3.97
	c-0.11,0.38-0.16,0.74-0.16,1.07c0,1.32,0.85,2.32,2.37,2.65c0.33,0.08,0.63,0.11,0.96,0.11c0.99,0,1.93-0.33,2.84-0.77
	c1.6-0.8,2.51-2.21,3.36-3.64c1.02-1.79,1.98-3.59,2.81-5.49c0.11-0.3,0.33-0.49,0.63-0.63c1.66-0.83,2.9-2.18,4.19-3.5
	c0.03-0.05,0.14-0.11,0.14-0.2c0-0.03-0.03-0.08-0.05-0.11c-0.05-0.08-0.14-0.11-0.22-0.11c-0.05,0-0.14,0.03-0.19,0.05
	c-0.11,0.08-0.19,0.16-0.28,0.28C193.05,100.46,191.95,101.56,190.59,102.42z"/>
<path class="st1" d="M202.78,96.16c0.03,0.17,0.05,0.33,0.05,0.5c0,0.5-0.17,0.96-0.3,1.41c-0.05,0.14-0.19,0.14-0.3,0.16
	c-1.16,0.28-2.21,1.46-2.21,2.65c0,0.17,0,0.33,0.05,0.5c0,0.03,0.03,0.05,0.03,0.11c0,0.11-0.11,0.22-0.19,0.28
	c-0.63,0.53-1.32,0.91-2.13,1.08c-0.14,0.03-0.25,0.05-0.36,0.05c-0.52,0-0.85-0.33-0.99-0.91c-0.06-0.22-0.08-0.47-0.08-0.69
	c0-0.33,0.05-0.69,0.14-1.02c0.5-1.74,1.41-3.17,2.76-4.33c0.5-0.41,1.08-0.72,1.71-0.86c0.11-0.03,0.25-0.05,0.36-0.05
	c0.25,0,0.47,0.08,0.63,0.3c0.08,0.14,0.14,0.25,0.14,0.38c0,0.19-0.11,0.41-0.25,0.61c-0.03,0.03-0.11,0.08-0.11,0.13
	c0,0.03,0.03,0.06,0.05,0.08c0.03,0.05,0.08,0.08,0.14,0.08c0.03,0,0.08-0.03,0.11-0.03C202.31,96.54,202.51,96.38,202.78,96.16
	 M201.02,93.84c-4.03,0.03-6.76,3.34-6.92,5.87v0.33c0,1.93,1.02,3.42,3.06,3.42c0.19,0,0.39,0,0.61-0.03
	c0.94-0.14,1.74-0.55,2.51-1.1c0.11-0.08,0.22-0.17,0.36-0.17c0.05,0,0.11,0.03,0.19,0.06c0.38,0.22,0.77,0.3,1.16,0.3
	c0.47,0,0.91-0.14,1.38-0.38c1.44-0.74,2.37-2.04,3.42-3.2c0.05-0.05,0.11-0.11,0.11-0.17c0-0.03-0.03-0.05-0.03-0.08
	c-0.05-0.06-0.11-0.06-0.16-0.06h-0.11c-0.19,0-0.3,0.17-0.41,0.28c-0.58,0.58-1.16,1.19-1.82,1.68c-0.55,0.44-1.16,0.74-1.85,0.91
	c-0.06,0.03-0.11,0.03-0.17,0.03c-0.19,0-0.36-0.11-0.5-0.3c-0.05-0.08-0.08-0.14-0.08-0.19c0-0.14,0.17-0.22,0.25-0.33
	c0.85-1.04,1.54-2.18,1.85-3.53c0.08-0.3,0.11-0.58,0.11-0.88c0-0.61-0.19-1.16-0.72-1.66C202.56,94.01,201.71,93.87,201.02,93.84z"
	/>
<path class="st1" d="M209.45,96.02c0.17-0.36,0.3-0.72,0.47-1.08c0.03-0.08,0.05-0.16,0.05-0.25c0-0.19-0.08-0.36-0.25-0.53
	c-0.25-0.22-0.63-0.33-1.02-0.33c-0.66,0-1.38,0.33-1.6,0.88c-1.05,2.37-2.07,4.74-3.09,7.11c-0.14,0.31-0.25,0.61-0.3,0.94
	c0,0.05-0.03,0.11-0.03,0.14c0,0.25,0.14,0.44,0.33,0.58c0.25,0.16,0.58,0.25,0.88,0.25c0.55,0,1.13-0.25,1.41-0.72
	c0.19-0.3,0.36-0.63,0.5-0.96c0.47-1.02,0.96-2.04,1.35-3.12c0.36-0.96,0.99-1.68,1.74-2.32c0.88-0.74,1.79-1.38,2.89-1.74
	c0.22-0.08,0.47-0.22,0.69-0.22c0.11,0,0.22,0.05,0.33,0.14c0.11,0.11,0.14,0.22,0.14,0.36c0,0.22-0.11,0.47-0.16,0.66
	c-0.14,0.38-0.27,0.77-0.44,1.13c-0.58,1.38-1.16,2.76-1.49,4.19c-0.06,0.22-0.08,0.42-0.08,0.61c0,1.16,0.83,1.96,2.1,1.96
	c0.91,0,1.68-0.41,2.34-1.02c1.41-1.24,2.7-2.62,3.92-4.05c0.05-0.08,0.16-0.16,0.16-0.28c0-0.03-0.03-0.08-0.08-0.14
	c-0.08-0.08-0.17-0.11-0.25-0.11c-0.08,0-0.16,0.03-0.22,0.08c-0.19,0.16-0.38,0.38-0.55,0.58c-0.88,0.97-1.76,1.93-2.81,2.76
	c-0.33,0.27-0.72,0.44-1.13,0.52c-0.08,0.03-0.17,0.03-0.25,0.03c-0.25,0-0.38-0.14-0.38-0.39c0-0.08,0-0.16,0.03-0.25
	c0.08-0.25,0.19-0.47,0.3-0.72c0.58-1.13,1.13-2.31,1.49-3.56c0.08-0.33,0.14-0.66,0.14-0.97c0-1.43-1.02-2.29-2.51-2.29
	c-0.91,0-1.71,0.3-2.48,0.72C210.83,95.03,210.2,95.55,209.45,96.02"/>
<path class="st1" d="M220.48,100.82c0.08-2.23,0.83-4.16,2.67-5.54c0.44-0.3,0.91-0.52,1.43-0.52c0.19,0,0.41,0.03,0.64,0.11
	c0.44,0.17,0.66,0.39,0.66,0.69c0,0.14-0.05,0.3-0.14,0.49c-0.44,1.02-0.83,2.07-1.07,3.2c-0.17,0.66-0.63,1.19-1.05,1.74
	c-0.53,0.69-1.08,1.33-1.85,1.71c-0.14,0.08-0.28,0.11-0.39,0.11c-0.19,0-0.33-0.11-0.47-0.33
	C220.57,101.97,220.51,101.42,220.48,100.82 M232.09,98.72c-0.17-0.11-0.3-0.14-0.41-0.14c-0.17,0-0.33,0.08-0.47,0.25
	c-0.5,0.58-1.05,1.13-1.6,1.66c-0.44,0.47-0.94,0.85-1.55,1.16c-0.25,0.14-0.53,0.28-0.8,0.28c-0.16,0-0.3-0.03-0.44-0.17
	c-0.2-0.16-0.25-0.36-0.25-0.55c0-0.25,0.11-0.5,0.19-0.74c1.71-3.94,3.39-7.88,5.1-11.83c0.39-0.96,0.8-1.9,1.16-2.87
	c0.05-0.17,0.08-0.31,0.08-0.41c0-0.28-0.16-0.44-0.55-0.58c-0.28-0.11-0.55-0.14-0.77-0.14c-0.69,0-1.16,0.39-1.52,1.19
	c-1.27,2.87-2.54,5.74-3.8,8.63c-0.08,0.14-0.11,0.19-0.22,0.19c-0.03,0-0.08,0-0.17-0.05c-0.63-0.44-1.35-0.63-2.07-0.63
	c-0.36,0-0.74,0.06-1.1,0.14c-2.51,0.55-3.92,2.32-4.66,4.66c-0.14,0.44-0.22,0.88-0.22,1.32c0,0.52,0.11,1.05,0.33,1.57
	c0.5,1.16,1.49,1.79,2.51,1.79c0.69,0,1.41-0.3,2.04-0.88c0.47-0.47,0.94-0.96,1.32-1.52c0.05-0.08,0.08-0.19,0.16-0.19h0.06
	c0.11,0.05,0.08,0.19,0.11,0.3c0.03,0.22,0.03,0.44,0.11,0.64c0.33,1.13,1.07,1.65,1.87,1.65c0.42,0,0.83-0.14,1.21-0.41
	C229.47,101.86,230.74,100.29,232.09,98.72z"/>
<path class="st1" d="M255.89,82.23c-0.3,0.3-0.55,0.5-0.77,0.74c-1.21,1.32-2.1,2.84-3.01,4.38c-2.01,3.36-3.75,6.87-5.79,10.2
	c-0.94,1.52-1.82,3.01-3.09,4.27c-0.5,0.47-1.05,0.86-1.74,1.07c-0.08,0.03-0.17,0.05-0.25,0.05c-0.22,0-0.41-0.11-0.61-0.27
	c-0.25-0.25-0.39-0.55-0.39-0.86c0-0.41,0.28-0.85,0.77-1.05c0.11-0.05,0.28-0.05,0.28-0.17v-0.03c-0.03-0.11-0.11-0.14-0.19-0.14
	h-0.16c-0.47,0.03-0.94,0.14-1.35,0.38c-0.58,0.33-1.02,0.83-1.02,1.54v0.11c0.08,0.8,0.71,1.1,1.38,1.24
	c0.58,0.14,1.13,0.19,1.65,0.19c1.71,0,3.23-0.69,4.52-2.07c1.05-1.1,1.93-2.37,2.65-3.7c2.01-3.64,4.08-7.22,6.01-10.89
	c0.69-1.32,1.38-2.62,2.15-3.86c0.11-0.14,0.19-0.22,0.28-0.22c0.05,0,0.14,0.05,0.25,0.17c0.5,0.5,0.97,1.02,1.24,1.68
	c0.5,1.21,0.71,2.45,0.83,3.75c0,0.22,0.03,0.44,0.03,0.66c0,1.63-0.36,3.23-0.8,4.8c-0.72,2.43-1.71,4.72-3.47,6.59
	c-0.91,1.02-2.01,1.71-3.36,1.88c-0.17,0.03-0.3,0.03-0.47,0.03c-0.72,0-1.41-0.22-1.96-0.8c-0.41-0.44-0.91-0.63-1.43-0.63
	c-0.28,0-0.55,0.05-0.85,0.14c-0.3,0.11-0.58,0.27-0.63,0.63v0.05c0,0.3,0.22,0.47,0.47,0.63c1.32,0.91,2.98,1.38,4.6,1.38
	c1.57,0,3.17-0.44,4.47-1.3c2.23-1.46,3.7-3.53,4.6-5.95c0.83-2.18,1.41-4.38,1.41-6.62c0-0.96-0.11-1.93-0.33-2.89
	c-0.44-1.9-1.24-3.58-2.86-4.77c-0.25-0.16-0.69-0.27-0.69-0.52v-0.03c0.08-0.3,0.55-0.41,0.88-0.55c0.05-0.03,0.08-0.03,0.14-0.05
	c0.19-0.05,0.36-0.08,0.5-0.08c0.41,0,0.58,0.25,0.61,0.86c0.03,0.27,0.08,0.5,0.36,0.61c0.22,0.08,0.41,0.14,0.63,0.14
	c0.25,0,0.49-0.08,0.74-0.25c0.3-0.19,0.47-0.47,0.47-0.77c0-0.19-0.08-0.41-0.25-0.61c-0.25-0.3-0.58-0.53-0.97-0.63
	c-0.5-0.17-0.96-0.22-1.41-0.22c-0.88,0-1.74,0.25-2.59,0.69c-0.14,0.05-0.25,0.19-0.41,0.19c-0.03,0-0.08,0-0.14-0.03
	c-1.35-0.55-2.79-0.72-4.22-0.77c-0.3-0.03-0.61-0.03-0.91-0.03c-2.45,0-4.77,0.53-6.9,1.9c-1.46,0.91-2.67,2.07-3.22,3.75
	c-0.19,0.58-0.33,1.16-0.33,1.74c0,0.83,0.28,1.63,0.97,2.34c0.85,0.88,1.96,1.3,3.17,1.38c0.19,0,0.39,0.03,0.58,0.03
	c1.82,0,3.39-0.61,4.63-2.07c0.41-0.47,0.63-1.02,0.63-1.65c0-0.11,0-0.25-0.03-0.39c-0.17-1.38-1.74-2.1-2.98-2.1
	c-0.33,0-0.66,0.06-0.91,0.17c-0.16,0.08-0.22,0.17-0.22,0.25c0,0.08,0.08,0.17,0.22,0.25c0.44,0.28,0.77,0.61,0.94,1.07
	c0.08,0.22,0.11,0.44,0.11,0.69c0,0.88-0.61,1.77-1.6,2.18c-0.25,0.11-0.47,0.17-0.66,0.17c-0.36,0-0.66-0.17-0.96-0.53
	c-0.28-0.3-0.41-0.66-0.44-1.05c-0.03-0.16-0.03-0.3-0.03-0.47c0-0.66,0.17-1.27,0.47-1.85c1.46-2.9,3.83-4.5,7.06-4.8
	c0.25-0.03,0.47-0.03,0.72-0.03C253.87,81.54,254.89,81.74,255.89,82.23"/>
<path class="st1" d="M265.4,98.01c0.74-1.38,1.65-2.43,3.06-2.95c0.14-0.05,0.25-0.08,0.33-0.08c0.11,0,0.17,0.05,0.17,0.22
	c0,0.08,0,0.17-0.03,0.28c-0.05,0.36-0.19,0.69-0.44,0.97C267.72,97.4,266.69,97.81,265.4,98.01 M266.5,98.83
	c0.39,0,0.74-0.03,1.13-0.11c1.43-0.3,2.62-0.97,3.12-2.45c0.11-0.27,0.14-0.55,0.14-0.8c0-0.8-0.55-1.38-1.57-1.54
	c-0.3-0.05-0.61-0.08-0.91-0.08c-3.31,0-6.7,3.09-6.76,6.45v0.05c0,1.93,1.38,3.31,3.22,3.31c0.17,0,0.33,0,0.5-0.03
	c1.44-0.16,2.59-0.88,3.7-1.76c1.1-0.91,2.12-1.93,3.14-2.95c0.05-0.05,0.17-0.11,0.17-0.19c0-0.03,0-0.06-0.03-0.08
	c-0.08-0.08-0.19-0.14-0.28-0.14c-0.05,0-0.08,0-0.11,0.03c-0.11,0.06-0.19,0.17-0.3,0.25c-1.1,1.02-2.23,2.07-3.61,2.76
	c-0.72,0.36-1.46,0.55-2.26,0.55h-0.16c-0.75,0-1.24-0.55-1.24-1.24c0-0.08,0-0.16,0.03-0.25c0.11-0.55,0.3-1.05,0.47-1.57
	c0.08-0.22,0.2-0.33,0.39-0.33c0.08,0,0.14,0,0.22,0.03C265.81,98.78,266.14,98.78,266.5,98.83z"/>
<path class="st1" d="M276.57,98.97v-0.19c0-0.88-0.63-1.19-1.46-1.38c0.69-0.44,1.32-0.85,2.07-1.32
	C276.81,97.1,276.84,98.03,276.57,98.97 M275.13,99.85c0.14,0.08,0.25,0.14,0.38,0.14c0.27,0,0.55-0.25,0.99-0.77
	c-0.03,0.88-0.91,2.65-1.63,3.14c-0.19,0.17-0.44,0.25-0.66,0.25c-0.33,0-0.69-0.2-0.99-0.53c-0.36-0.38-0.5-0.85-0.5-1.32
	c0-0.14,0-0.28,0.03-0.41c0.16-0.91,0.61-1.65,1.38-2.15c0.22-0.14,0.44-0.22,0.66-0.25h0.08c0.44,0,0.74,0.19,0.88,0.58
	c0.06,0.11,0.08,0.22,0.08,0.33c0,0.3-0.16,0.58-0.41,0.74C275.33,99.69,275.19,99.71,275.13,99.85z M280.4,95.14
	c0.03,0.08,0.05,0.14,0.05,0.22c0,0.19-0.14,0.33-0.16,0.47c-0.03,0.08-0.06,0.17-0.06,0.25c0,0.17,0.11,0.3,0.36,0.36
	c0.06,0,0.11,0.03,0.19,0.03c0.36,0,0.75-0.19,0.94-0.55c0.08-0.14,0.11-0.28,0.11-0.41c0-0.22-0.11-0.47-0.3-0.66
	c-0.41-0.39-0.88-0.55-1.38-0.55c-0.25,0-0.5,0.05-0.75,0.11c-0.85,0.22-1.57,0.66-2.29,1.1c-1.27,0.77-2.45,1.65-3.8,2.31
	c-0.75,0.36-1.24,0.99-1.57,1.77c-0.16,0.41-0.25,0.83-0.25,1.21c0,1.38,0.94,2.56,2.23,2.87c0.47,0.11,0.94,0.16,1.38,0.16
	c1.05,0,2.01-0.3,2.95-0.88c1.62-1.02,2.92-2.43,4.96-4.16c0.06-0.05,0.14-0.11,0.14-0.19c0-0.03-0.03-0.03-0.03-0.06
	c-0.05-0.11-0.17-0.11-0.28-0.11c-0.3,0-0.44,0.19-0.63,0.36c-1.6,1.27-2.45,2.2-3.42,3.03c-0.25,0.19-0.52,0.39-0.8,0.61v-0.05
	c0-0.14,0.08-0.19,0.14-0.28c0.63-0.74,1.05-1.65,1.21-2.65c0.08-0.63,0.08-1.27,0.08-1.9C279.43,96.62,279.66,95.8,280.4,95.14z"/>
<path class="st1" d="M289.5,99.14c-0.11-0.08-0.22-0.11-0.3-0.11c-0.14,0-0.25,0.08-0.38,0.22c-0.66,0.66-1.3,1.32-1.99,1.93
	c-0.52,0.47-1.07,0.88-1.76,1.05c-0.06,0.03-0.14,0.03-0.19,0.03c-0.25,0-0.42-0.14-0.53-0.39c-0.08-0.19-0.11-0.39-0.11-0.61
	c0-0.25,0.05-0.5,0.16-0.77c1.16-2.68,2.32-5.38,3.48-8.05c0.11-0.28,0.27-0.33,0.55-0.33c0.66,0,1.32,0,1.95-0.03
	c0.22,0,0.5-0.05,0.5-0.33c0-0.25-0.28-0.28-0.47-0.3c-0.25-0.05-0.5-0.08-0.77-0.08c-0.25,0-0.5,0.03-0.77,0.03
	c-0.28,0-0.41-0.03-0.41-0.17c0-0.08,0.03-0.16,0.08-0.3c0.41-0.91,0.8-1.85,1.18-2.76c0.05-0.16,0.11-0.33,0.11-0.47
	c0-0.16-0.05-0.33-0.19-0.47c-0.25-0.25-0.61-0.36-0.99-0.36c-0.55,0-1.16,0.25-1.4,0.66c-0.69,1.07-1.08,2.29-1.6,3.44
	c-0.14,0.25-0.25,0.41-0.55,0.41h-1.96c-0.36,0-0.83,0-0.83,0.39c0,0.3,0.39,0.33,0.66,0.33h2.12c-0.08,0.22-0.14,0.36-0.19,0.52
	c-0.8,1.88-1.68,3.72-2.37,5.63c-0.33,0.88-0.61,1.74-0.61,2.67c0,0.28,0.03,0.58,0.08,0.86c0.22,1.13,0.77,1.87,1.65,2.04
	c0.14,0.03,0.27,0.05,0.41,0.05c0.72,0,1.29-0.41,1.82-0.88c1.19-0.99,2.18-2.18,3.23-3.34C289.25,99.49,289.44,99.36,289.5,99.14"
	/>
<path class="st1" d="M291.26,90.67c0,0.86,0.55,1.41,1.4,1.41c0.85,0,1.49-0.61,1.49-1.41c0-0.83-0.58-1.41-1.41-1.41h-0.05
	C291.87,89.26,291.26,89.87,291.26,90.67 M295.48,98.69c-0.11-0.08-0.22-0.11-0.33-0.11c-0.14,0-0.28,0.08-0.41,0.25
	c-0.94,0.94-1.82,1.96-2.98,2.65c-0.28,0.14-0.55,0.33-0.85,0.33c-0.14,0-0.28-0.03-0.41-0.14c-0.25-0.22-0.3-0.47-0.3-0.74
	c0-0.19,0.03-0.41,0.05-0.61c0.03-0.11,0.05-0.19,0.11-0.27c0.22-0.58,0.47-1.16,0.71-1.74c0.44-1.08,0.91-2.15,1.32-3.23
	c0.08-0.2,0.14-0.39,0.14-0.53c0-0.41-0.3-0.66-0.83-0.77c-0.14-0.03-0.25-0.05-0.36-0.05c-0.61,0-1.16,0.36-1.49,0.99
	c-0.58,1.05-1.08,2.12-1.44,3.28c-0.28,0.83-0.55,1.65-0.55,2.53c0,0.25,0.03,0.53,0.08,0.8c0.25,1.19,0.88,1.96,1.79,2.07
	c0.08,0,0.19,0.03,0.28,0.03c0.69,0,1.21-0.39,1.77-0.83c0.74-0.61,1.44-1.32,2.07-2.04C294.41,99.96,294.98,99.38,295.48,98.69z"/>
<path class="st1" d="M297.77,96.02c0.17-0.36,0.3-0.72,0.47-1.08c0.03-0.08,0.06-0.16,0.06-0.25c0-0.19-0.08-0.36-0.25-0.53
	c-0.25-0.22-0.63-0.33-1.02-0.33c-0.66,0-1.38,0.33-1.6,0.88c-1.04,2.37-2.07,4.74-3.09,7.11c-0.14,0.31-0.25,0.61-0.3,0.94
	c0,0.05-0.03,0.11-0.03,0.14c0,0.25,0.14,0.44,0.33,0.58c0.25,0.16,0.58,0.25,0.88,0.25c0.55,0,1.13-0.25,1.41-0.72
	c0.19-0.3,0.36-0.63,0.5-0.96c0.47-1.02,0.97-2.04,1.35-3.12c0.36-0.96,0.99-1.68,1.74-2.32c0.88-0.74,1.79-1.38,2.89-1.74
	c0.22-0.08,0.47-0.22,0.69-0.22c0.11,0,0.22,0.05,0.33,0.14c0.11,0.11,0.14,0.22,0.14,0.36c0,0.22-0.11,0.47-0.16,0.66
	c-0.14,0.38-0.27,0.77-0.44,1.13c-0.58,1.38-1.16,2.76-1.49,4.19c-0.05,0.22-0.08,0.42-0.08,0.61c0,1.16,0.83,1.96,2.1,1.96
	c0.91,0,1.68-0.41,2.34-1.02c1.41-1.24,2.7-2.62,3.92-4.05c0.05-0.08,0.16-0.16,0.16-0.28c0-0.03-0.03-0.08-0.08-0.14
	c-0.08-0.08-0.17-0.11-0.25-0.11c-0.08,0-0.16,0.03-0.22,0.08c-0.19,0.16-0.39,0.38-0.55,0.58c-0.88,0.97-1.76,1.93-2.81,2.76
	c-0.33,0.27-0.72,0.44-1.13,0.52c-0.08,0.03-0.17,0.03-0.25,0.03c-0.25,0-0.38-0.14-0.38-0.39c0-0.08,0-0.16,0.03-0.25
	c0.08-0.25,0.19-0.47,0.3-0.72c0.58-1.13,1.13-2.31,1.49-3.56c0.08-0.33,0.14-0.66,0.14-0.97c0-1.43-1.02-2.29-2.51-2.29
	c-0.91,0-1.71,0.3-2.48,0.72C299.15,95.03,298.51,95.55,297.77,96.02"/>
<path class="st1" d="M308.85,101.59v-0.25c0.22-1.79,0.75-3.5,1.88-4.99c0.69-0.94,1.57-1.63,2.84-1.68c0.3,0,0.58,0.08,0.83,0.28
	c0.22,0.19,0.36,0.41,0.36,0.66c0,0.11-0.03,0.25-0.11,0.41c-0.91,2.01-1.85,4.03-3.5,5.62c-0.41,0.38-0.83,0.8-1.38,1.05
	c-0.14,0.05-0.25,0.08-0.36,0.08c-0.22,0-0.38-0.14-0.47-0.5C308.88,102.06,308.85,101.81,308.85,101.59 M320.66,98.78
	c-0.11-0.03-0.19-0.05-0.28-0.05c-0.22,0-0.38,0.11-0.55,0.3c-0.28,0.36-0.58,0.66-0.88,0.97c-0.8,0.74-1.52,1.54-2.57,1.96
	c-0.14,0.05-0.3,0.11-0.44,0.11c-0.08,0-0.19-0.03-0.28-0.11c-0.11-0.11-0.14-0.25-0.14-0.39c0-0.08,0.03-0.19,0.03-0.3l0.08-0.25
	c0.53-1.68,1.32-3.31,1.96-4.96c0.14-0.36,0.22-0.72,0.28-1.07c0.03-0.08,0.03-0.17,0.03-0.25c0-0.5-0.33-0.77-0.88-0.8
	c-0.69,0-1.24,0.19-1.65,0.75c-0.08,0.08-0.14,0.14-0.22,0.14c-0.05,0-0.11-0.05-0.22-0.14c-0.38-0.41-0.88-0.61-1.43-0.66
	c-0.22-0.03-0.44-0.05-0.66-0.05c-0.97,0-1.85,0.3-2.7,0.72c-2.29,1.1-3.8,3.39-3.8,5.74c0,0.14,0.03,0.28,0.03,0.41
	c0.08,1.05,0.61,1.88,1.57,2.32c0.41,0.19,0.8,0.3,1.19,0.3c0.5,0,0.99-0.17,1.49-0.52c0.36-0.25,0.69-0.55,0.99-0.86
	c0.5-0.47,0.91-0.96,1.41-1.54c0.05,0.5,0.03,0.91,0.11,1.3c0.28,1.08,1.13,1.76,2.12,1.76c0.33,0,0.69-0.08,1.02-0.25
	c0.22-0.14,0.47-0.28,0.66-0.44C318.34,101.73,319.41,100.21,320.66,98.78z"/>
<path class="st1" d="M326.28,99.14c-0.11-0.08-0.22-0.11-0.3-0.11c-0.14,0-0.25,0.08-0.38,0.22c-0.66,0.66-1.29,1.32-1.99,1.93
	c-0.52,0.47-1.07,0.88-1.76,1.05c-0.06,0.03-0.14,0.03-0.19,0.03c-0.25,0-0.42-0.14-0.53-0.39c-0.08-0.19-0.11-0.39-0.11-0.61
	c0-0.25,0.05-0.5,0.16-0.77c1.16-2.68,2.32-5.38,3.48-8.05c0.11-0.28,0.27-0.33,0.55-0.33c0.66,0,1.32,0,1.95-0.03
	c0.22,0,0.5-0.05,0.5-0.33c0-0.25-0.27-0.28-0.47-0.3c-0.25-0.05-0.5-0.08-0.77-0.08c-0.25,0-0.5,0.03-0.77,0.03
	c-0.27,0-0.41-0.03-0.41-0.17c0-0.08,0.03-0.16,0.08-0.3c0.41-0.91,0.8-1.85,1.19-2.76c0.05-0.16,0.11-0.33,0.11-0.47
	c0-0.16-0.05-0.33-0.19-0.47c-0.25-0.25-0.61-0.36-0.99-0.36c-0.55,0-1.16,0.25-1.4,0.66c-0.69,1.07-1.08,2.29-1.6,3.44
	c-0.13,0.25-0.25,0.41-0.55,0.41h-1.96c-0.36,0-0.83,0-0.83,0.39c0,0.3,0.39,0.33,0.66,0.33h2.12c-0.08,0.22-0.14,0.36-0.19,0.52
	c-0.8,1.88-1.68,3.72-2.37,5.63c-0.33,0.88-0.61,1.74-0.61,2.67c0,0.28,0.03,0.58,0.08,0.86c0.22,1.13,0.77,1.87,1.65,2.04
	c0.14,0.03,0.27,0.05,0.41,0.05c0.72,0,1.29-0.41,1.82-0.88c1.19-0.99,2.18-2.18,3.23-3.34C326.03,99.49,326.23,99.36,326.28,99.14"
	/>
<path class="st1" d="M328.05,90.67c0,0.86,0.55,1.41,1.4,1.41c0.85,0,1.49-0.61,1.49-1.41c0-0.83-0.58-1.41-1.41-1.41h-0.05
	C328.65,89.26,328.05,89.87,328.05,90.67 M332.26,98.69c-0.11-0.08-0.22-0.11-0.33-0.11c-0.14,0-0.27,0.08-0.41,0.25
	c-0.94,0.94-1.82,1.96-2.98,2.65c-0.27,0.14-0.55,0.33-0.85,0.33c-0.14,0-0.28-0.03-0.41-0.14c-0.25-0.22-0.3-0.47-0.3-0.74
	c0-0.19,0.03-0.41,0.05-0.61c0.03-0.11,0.05-0.19,0.11-0.27c0.22-0.58,0.47-1.16,0.72-1.74c0.44-1.08,0.91-2.15,1.32-3.23
	c0.08-0.2,0.14-0.39,0.14-0.53c0-0.41-0.3-0.66-0.83-0.77c-0.14-0.03-0.25-0.05-0.36-0.05c-0.61,0-1.16,0.36-1.49,0.99
	c-0.58,1.05-1.08,2.12-1.44,3.28c-0.27,0.83-0.55,1.65-0.55,2.53c0,0.25,0.03,0.53,0.08,0.8c0.25,1.19,0.88,1.96,1.79,2.07
	c0.08,0,0.19,0.03,0.28,0.03c0.69,0,1.21-0.39,1.77-0.83c0.74-0.61,1.44-1.32,2.07-2.04C331.19,99.96,331.77,99.38,332.26,98.69z"/>
<path class="st1" d="M338.96,96.16c0.03,0.17,0.05,0.33,0.05,0.5c0,0.5-0.17,0.96-0.3,1.41c-0.05,0.14-0.19,0.14-0.3,0.16
	c-1.16,0.28-2.21,1.46-2.21,2.65c0,0.17,0,0.33,0.05,0.5c0,0.03,0.03,0.05,0.03,0.11c0,0.11-0.11,0.22-0.19,0.28
	c-0.63,0.53-1.32,0.91-2.13,1.08c-0.14,0.03-0.25,0.05-0.36,0.05c-0.52,0-0.85-0.33-0.99-0.91c-0.06-0.22-0.08-0.47-0.08-0.69
	c0-0.33,0.05-0.69,0.14-1.02c0.5-1.74,1.41-3.17,2.76-4.33c0.5-0.41,1.08-0.72,1.71-0.86c0.11-0.03,0.25-0.05,0.36-0.05
	c0.25,0,0.47,0.08,0.63,0.3c0.08,0.14,0.14,0.25,0.14,0.38c0,0.19-0.11,0.41-0.25,0.61c-0.03,0.03-0.11,0.08-0.11,0.13
	c0,0.03,0.03,0.06,0.05,0.08c0.03,0.05,0.08,0.08,0.14,0.08c0.03,0,0.08-0.03,0.11-0.03C338.49,96.54,338.69,96.38,338.96,96.16
	 M337.2,93.84c-4.03,0.03-6.76,3.34-6.92,5.87v0.33c0,1.93,1.02,3.42,3.06,3.42c0.2,0,0.39,0,0.61-0.03
	c0.94-0.14,1.74-0.55,2.51-1.1c0.11-0.08,0.22-0.17,0.36-0.17c0.05,0,0.11,0.03,0.19,0.06c0.38,0.22,0.77,0.3,1.16,0.3
	c0.47,0,0.91-0.14,1.38-0.38c1.44-0.74,2.37-2.04,3.42-3.2c0.05-0.05,0.11-0.11,0.11-0.17c0-0.03-0.03-0.05-0.03-0.08
	c-0.05-0.06-0.11-0.06-0.16-0.06h-0.11c-0.19,0-0.3,0.17-0.41,0.28c-0.58,0.58-1.16,1.19-1.82,1.68c-0.55,0.44-1.16,0.74-1.85,0.91
	c-0.06,0.03-0.11,0.03-0.17,0.03c-0.19,0-0.36-0.11-0.5-0.3c-0.05-0.08-0.08-0.14-0.08-0.19c0-0.14,0.17-0.22,0.25-0.33
	c0.85-1.04,1.54-2.18,1.85-3.53c0.08-0.3,0.11-0.58,0.11-0.88c0-0.61-0.19-1.16-0.72-1.66C338.74,94.01,337.89,93.87,337.2,93.84z"
	/>
<path class="st1" d="M345.64,96.02c0.17-0.36,0.3-0.72,0.47-1.08c0.03-0.08,0.05-0.16,0.05-0.25c0-0.19-0.08-0.36-0.25-0.53
	c-0.25-0.22-0.63-0.33-1.02-0.33c-0.66,0-1.38,0.33-1.6,0.88c-1.05,2.37-2.07,4.74-3.09,7.11c-0.14,0.31-0.25,0.61-0.3,0.94
	c0,0.05-0.03,0.11-0.03,0.14c0,0.25,0.14,0.44,0.33,0.58c0.25,0.16,0.58,0.25,0.88,0.25c0.55,0,1.13-0.25,1.41-0.72
	c0.19-0.3,0.36-0.63,0.5-0.96c0.47-1.02,0.96-2.04,1.35-3.12c0.36-0.96,0.99-1.68,1.74-2.32c0.88-0.74,1.79-1.38,2.89-1.74
	c0.22-0.08,0.47-0.22,0.69-0.22c0.11,0,0.22,0.05,0.33,0.14c0.11,0.11,0.14,0.22,0.14,0.36c0,0.22-0.11,0.47-0.16,0.66
	c-0.14,0.38-0.28,0.77-0.44,1.13c-0.58,1.38-1.16,2.76-1.49,4.19c-0.06,0.22-0.08,0.42-0.08,0.61c0,1.16,0.83,1.96,2.1,1.96
	c0.91,0,1.68-0.41,2.34-1.02c1.41-1.24,2.7-2.62,3.92-4.05c0.05-0.08,0.16-0.16,0.16-0.28c0-0.03-0.03-0.08-0.08-0.14
	c-0.08-0.08-0.17-0.11-0.25-0.11c-0.08,0-0.16,0.03-0.22,0.08c-0.19,0.16-0.38,0.38-0.55,0.58c-0.88,0.97-1.76,1.93-2.81,2.76
	c-0.33,0.27-0.72,0.44-1.13,0.52c-0.08,0.03-0.17,0.03-0.25,0.03c-0.25,0-0.38-0.14-0.38-0.39c0-0.08,0-0.16,0.03-0.25
	c0.08-0.25,0.19-0.47,0.3-0.72c0.58-1.13,1.13-2.31,1.49-3.56c0.08-0.33,0.14-0.66,0.14-0.97c0-1.43-1.02-2.29-2.51-2.29
	c-0.91,0-1.71,0.3-2.48,0.72C347.01,95.03,346.38,95.55,345.64,96.02"/>
<path class="st1" d="M359.53,98.97v-0.19c0-0.88-0.63-1.19-1.46-1.38c0.69-0.44,1.32-0.85,2.07-1.32
	C359.78,97.1,359.81,98.03,359.53,98.97 M358.1,99.85c0.14,0.08,0.25,0.14,0.38,0.14c0.28,0,0.55-0.25,0.99-0.77
	c-0.03,0.88-0.91,2.65-1.63,3.14c-0.19,0.17-0.44,0.25-0.66,0.25c-0.33,0-0.69-0.2-0.99-0.53c-0.36-0.38-0.5-0.85-0.5-1.32
	c0-0.14,0-0.28,0.03-0.41c0.16-0.91,0.61-1.65,1.38-2.15c0.22-0.14,0.44-0.22,0.66-0.25h0.08c0.44,0,0.74,0.19,0.89,0.58
	c0.05,0.11,0.08,0.22,0.08,0.33c0,0.3-0.16,0.58-0.41,0.74C358.29,99.69,358.15,99.71,358.1,99.85z M363.37,95.14
	c0.03,0.08,0.05,0.14,0.05,0.22c0,0.19-0.14,0.33-0.16,0.47c-0.03,0.08-0.06,0.17-0.06,0.25c0,0.17,0.11,0.3,0.36,0.36
	c0.06,0,0.11,0.03,0.19,0.03c0.36,0,0.74-0.19,0.94-0.55c0.08-0.14,0.11-0.28,0.11-0.41c0-0.22-0.11-0.47-0.3-0.66
	c-0.41-0.39-0.88-0.55-1.38-0.55c-0.25,0-0.5,0.05-0.75,0.11c-0.85,0.22-1.57,0.66-2.29,1.1c-1.27,0.77-2.46,1.65-3.8,2.31
	c-0.75,0.36-1.24,0.99-1.57,1.77c-0.16,0.41-0.25,0.83-0.25,1.21c0,1.38,0.94,2.56,2.23,2.87c0.47,0.11,0.94,0.16,1.38,0.16
	c1.05,0,2.01-0.3,2.95-0.88c1.63-1.02,2.92-2.43,4.96-4.16c0.06-0.05,0.14-0.11,0.14-0.19c0-0.03-0.03-0.03-0.03-0.06
	c-0.05-0.11-0.17-0.11-0.28-0.11c-0.3,0-0.44,0.19-0.63,0.36c-1.6,1.27-2.46,2.2-3.42,3.03c-0.25,0.19-0.52,0.39-0.8,0.61v-0.05
	c0-0.14,0.08-0.19,0.14-0.28c0.63-0.74,1.04-1.65,1.21-2.65c0.08-0.63,0.08-1.27,0.08-1.9C362.4,96.62,362.62,95.8,363.37,95.14z"/>
<path class="st1" d="M34.84,60.31l2.35-10.87h7.45c4.41,0,6.61,1.59,6.61,4.33c0,4.64-2.58,6.54-8.28,6.54H34.84z M38.79,41.77
	L41,31.66h5.47c4.02,0,6,1.44,6.08,4.03c0,4.1-2.74,6.08-7.52,6.08H38.79z M27.24,70.57h16.41c16.95,0,22.8-6.15,22.8-15.58
	c0-4.86-2.89-8.59-8.89-10.18c7.75-1.97,10.64-6.15,10.64-12.38c0-7.22-5.77-11.02-16.57-11.02H35.9c-4.94,0-8.13,2.2-9.27,7.52
	l-6.84,32.07C18.43,67.6,21.16,70.57,27.24,70.57z"/>
<path class="st1" d="M103.38,71.48c7.37,0,8.81-5.09,8.59-5.17c-1.97-0.46-2.96-1.37-2.96-3.57c0-1.52,0.76-4.48,1.75-8.13
	c1.37-4.86,2.13-8.13,2.13-10.79c0-7.07-4.18-11.85-11.25-11.85c-5.32,0-9.88,2.96-12.69,7.29l3.27-15.2
	c1.14-5.4-2.36-6.99-6.31-6.99h-1.52c-3.65,0-5.55,1.75-6.69,6.99l-8.43,39.89c-1.14,5.32,2.43,6.99,6.31,6.99h1.52
	c3.65,0,5.55-1.75,6.69-6.99l3.57-16.87c1.67-2.28,3.27-3.34,5.85-3.34c2.89,0,4.41,1.75,4.41,4.56c0,1.22-0.53,3.72-1.44,6.92
	c-1.21,4.41-1.75,6.61-1.75,8.89C94.41,68.52,97.07,71.48,103.38,71.48"/>
<path class="st1" d="M136.36,60.15c-3.42,0-5.78-2.5-5.78-6.23c0-5.62,3.42-10.94,8.89-10.94c3.5,0,5.4,1.9,6.46,4.79l-0.91,4.56
	C144.03,57.19,140.54,60.15,136.36,60.15 M130.36,71.48c5.85,0,10.56-3.12,13.22-7.75c0.15,1.67,0.53,3.12,1.29,4.33
	c1.37,2.13,3.87,3.42,7.67,3.42c6.61,0,7.75-4.03,7.6-4.1c-2.58-0.84-3.34-2.58-2.36-6.99l5.55-26.06c0.07-0.53-2.13-1.75-4.94-1.75
	c-2.36,0-4.33,0.46-5.93,1.44c-1.6,0.99-2.89,2.51-3.87,4.71c-2.13-4.48-6.84-6.76-11.63-6.76c-12.23,0-20.37,11.93-20.37,24.47
	C116.6,65.63,122.23,71.48,130.36,71.48z"/>
<path class="st1" d="M170.71,70.95h1.52c3.65,0,5.55-1.75,6.69-6.99l1.82-8.66c1.29-6.23,3.8-10.11,7.9-10.11
	c2.74,0,4.33,1.06,5.39,2.28c0.15,0.15,6.61-2.05,6.61-9.12c0-3.72-3.12-6.38-7.37-6.38c-4.86,0-8.74,3.42-10.56,8.06
	c-0.08-1.37-0.3-2.43-0.76-3.42c-1.29-2.89-4.1-4.03-6.92-4.03c-2.35,0-4.1,0.61-4.18,0.99l-6.46,30.4
	C163.26,69.35,166.83,70.95,170.71,70.95"/>
<path class="st1" d="M219.49,60.15c-3.42,0-5.78-2.5-5.78-6.23c0-5.62,3.42-10.94,8.89-10.94c3.5,0,5.4,1.9,6.46,4.79l-0.91,4.56
	C227.17,57.19,223.67,60.15,219.49,60.15 M213.49,71.48c5.85,0,10.56-3.12,13.22-7.75c0.15,1.67,0.53,3.12,1.29,4.33
	c1.37,2.13,3.87,3.42,7.67,3.42c6.61,0,7.75-4.03,7.6-4.1c-2.58-0.84-3.34-2.58-2.36-6.99l5.55-26.06c0.07-0.53-2.13-1.75-4.94-1.75
	c-2.35,0-4.33,0.46-5.92,1.44c-1.6,0.99-2.89,2.51-3.88,4.71c-2.13-4.48-6.84-6.76-11.63-6.76c-12.24,0-20.37,11.93-20.37,24.47
	C199.74,65.63,205.36,71.48,213.49,71.48z"/>
<path class="st1" d="M290.47,66.31c-1.9-0.46-2.96-1.37-2.96-3.57c0-1.52,0.76-4.48,1.82-8.13c1.37-4.86,2.13-8.13,2.13-10.79
	c0-7.07-4.18-11.85-11.55-11.85c-6.08,0-10.26,3.04-13.6,7.75c-0.15-1.14-0.46-2.21-0.84-3.04c-1.37-2.89-4.18-4.1-7.07-4.1
	c-2.28,0-4.1,0.61-4.18,0.99l-6.46,30.39c-1.14,5.32,2.43,6.99,6.31,6.99h1.52c3.72,0,5.62-1.75,6.69-6.99l3.65-16.87
	c1.67-2.28,3.19-3.34,5.77-3.34c2.89,0,4.48,1.75,4.48,4.56c0,1.22-0.61,3.72-1.44,6.92c-1.29,4.41-1.75,6.61-1.75,8.89
	c0,4.41,2.58,7.37,8.97,7.37C289.33,71.48,290.69,66.39,290.47,66.31"/>
<path class="st1" d="M304.45,71.48c6.92,0,8.05-4.03,7.9-4.11c-2.66-0.83-3.42-2.58-2.43-6.99l4.41-20.82
	c1.21-5.4-2.36-6.99-6.31-6.99h-1.52c-3.65,0-5.55,1.74-6.61,6.99l-4.41,20.21C294.11,66.31,295.93,71.48,304.45,71.48
	 M310.45,28.77c5.02,0,8.21-3.27,8.21-7.52c0-4.11-3.19-6.31-7.29-6.31c-5.09,0-8.29,3.34-8.29,7.45
	C303.08,26.42,306.12,28.77,310.45,28.77z"/>
<path class="st1" d="M399.66,60.15c-3.42,0-5.78-2.5-5.78-6.23c0-5.62,3.42-10.94,8.89-10.94c3.5,0,5.4,1.9,6.46,4.79l-0.91,4.56
	C407.33,57.19,403.84,60.15,399.66,60.15 M393.66,71.48c5.85,0,10.56-3.12,13.22-7.75c0.15,1.67,0.53,3.12,1.29,4.33
	c1.37,2.13,3.87,3.42,7.67,3.42c6.61,0,7.75-4.03,7.6-4.1c-2.58-0.84-3.34-2.58-2.36-6.99l5.55-26.06c0.07-0.53-2.13-1.75-4.94-1.75
	c-2.35,0-4.33,0.46-5.92,1.44c-1.6,0.99-2.89,2.51-3.88,4.71c-2.13-4.48-6.84-6.76-11.63-6.76c-12.24,0-20.37,11.93-20.37,24.47
	C379.9,65.63,385.53,71.48,393.66,71.48z"/>
<path class="st1" d="M451.11,60.39c-5.01,0-7.37-3.8-6.23-9.2l0.91-4.1c1.67-2.36,4.33-3.88,7.14-3.88c3.8,0,6.16,2.81,6.16,6.91
	C459.08,55.52,456.27,60.39,451.11,60.39 M453.92,71.48c11.7,0,19.15-11.63,19.15-23.63c0-9.95-6.23-15.88-14.36-15.88
	c-4.64,0-8.21,1.98-10.79,5.17l2.74-13.07c1.14-5.4-2.43-6.99-6.31-6.99h-1.52c-3.72,0-5.55,1.75-6.69,6.99l-9.57,45.06
	c-0.07,0.53,2.2,1.75,5.02,1.75c3.19,0,5.62-0.84,7.37-2.89c1.06-1.06,1.82-2.2,2.51-3.65C443.73,69.05,448.75,71.48,453.92,71.48z"
	/>
<path class="st1" d="M491.3,71.4c11.02,0,16.72-5.09,16.72-12.38c0-6.39-5.39-9.04-11.4-11.4c-3.04-1.21-5.17-2.05-5.17-3.57
	c0-1.37,1.29-2.43,3.72-2.43c4.25,0,8.36,2.81,10.94,6c0.3,0.3,4.78-1.6,4.78-6.15c0-1.75-0.68-3.19-1.9-4.33
	c-3.04-3.04-8.36-5.02-14.74-5.02c-10.64,0-16.11,5.7-16.11,12.61c0,7.07,5.47,9.5,10.64,11.7c2.58,0.91,4.26,1.75,4.26,3.04
	c0,1.59-1.22,2.51-3.57,2.51c-4.41,0-9.35-2.81-12.23-5.93c-0.3-0.38-4.18,1.67-4.18,5.55c0,1.83,0.91,3.5,2.36,4.87
	C478.16,69.27,483.63,71.4,491.3,71.4"/>
<path class="st1" d="M356.35,71.55c6.92,0,12.54-2.58,15.73-5.78c1.97-1.98,3.04-4.02,3.04-6c0-5.77-7.29-7.52-7.6-7.07
	c-2.2,3.34-5.62,5.17-9.96,5.17c-5.7,0-9.65-4.26-9.65-9.96c0-7.6,5.55-13.83,12.84-13.83c4.64,0,7.6,2.43,9.2,6.23
	c0.23,0.46,9.88-0.3,9.88-8.21c0-1.67-0.91-4.26-3.04-6.31c-2.89-2.89-7.75-5.4-16.34-5.4c-16.56,0-28.27,13.68-28.27,29.1
	C332.18,62.97,341.6,71.55,356.35,71.55"/>
</svg>
