<?xml version="1.0" encoding="utf-8"?>
<!-- Generator: Adobe Illustrator 26.0.1, SVG Export Plug-In . SVG Version: 6.00 Build 0)  -->
<svg version="1.0" id="Layer_1" xmlns="http://www.w3.org/2000/svg" xmlns:xlink="http://www.w3.org/1999/xlink" x="0px" y="0px"
	 viewBox="0 0 30 30" style="enable-background:new 0 0 30 30;" xml:space="preserve">
<style type="text/css">
	.st0{fill:#004876;}
	.st1{fill:none;stroke:#FFCD17;stroke-width:0.502;stroke-miterlimit:22.9256;}
	.st2{fill-rule:evenodd;clip-rule:evenodd;fill:#004876;}
	.st3{fill:#FDD000;}
</style>
<path class="st0" d="M20.22,16c0.16,0.45,0.32,0.85,0.43,1.26c0.02,0.08-0.06,0.24-0.14,0.31c-1.22,1.07-2.64,1.74-4.24,1.97
	c-2.46,0.35-4.68-0.25-6.64-1.81c-0.42-0.33-0.42-0.34-0.23-0.83c0.1-0.25,0.2-0.5,0.3-0.75c0.01-0.03,0.03-0.06,0.06-0.12
	c0.22,0.2,0.43,0.39,0.65,0.58c0.73,0.63,1.57,1.08,2.49,1.36c0.41,0.13,0.61,0.01,0.71-0.42c0.81-3.58-1.26-7.21-4.74-8.3
	C8.35,9.09,8.15,9.18,8.09,9.72C8.01,10.39,8,11.07,7.94,11.75c-0.02,0.26-0.06,0.53-0.17,0.77c-0.21,0.47-0.46,0.92-0.71,1.41
	c-0.93-2.1-0.78-6.09,2.12-8.85c2.96-2.82,7.61-3.09,10.89-0.6c3.34,2.53,3.93,6.74,2.85,9.46c-0.18-0.34-0.32-0.65-0.49-0.94
	c-0.32-0.52-0.44-1.06-0.4-1.69c0.04-0.56-0.08-1.14-0.17-1.71c-0.06-0.39-0.29-0.52-0.66-0.4c-2.72,0.92-4.38,2.78-4.93,5.6
	c-0.18,0.91-0.13,1.81,0.07,2.71c0.1,0.46,0.28,0.56,0.75,0.42c1.09-0.33,2.03-0.91,2.85-1.7C20.02,16.18,20.1,16.11,20.22,16z
	 M14.95,4.13c-1.8,0.05-3.42,0.64-4.77,1.9c-0.32,0.3-0.32,0.51,0,0.81c2.6,2.5,6.98,2.51,9.6,0.02c0.35-0.33,0.35-0.54,0-0.86
	C18.41,4.77,16.81,4.17,14.95,4.13z"/>
<path class="st0" d="M23.44,21.45c-0.88,0-1.68,0-2.57,0c0.09-0.7,0.16-1.37,0.27-2.04c0.07-0.4,0.19-0.8,0.3-1.19
	c0.16-0.52,0.13-1.02-0.06-1.53c-0.41-1.07-0.82-2.14-1.23-3.21c-0.03-0.09-0.07-0.18-0.09-0.28c-0.11-0.41,0.05-0.76,0.39-0.89
	c0.33-0.12,0.67,0.02,0.86,0.39c0.26,0.49,0.51,0.98,0.76,1.47c0.17,0.33,0.31,0.67,0.51,0.98c0.09,0.14,0.28,0.29,0.42,0.28
	c0.14,0,0.33-0.17,0.4-0.31c0.62-1.28,0.89-2.64,0.87-4.06c-0.01-1.05-0.19-2.07-0.57-3.05c-0.08-0.21-0.11-0.39,0.08-0.55
	c0.2-0.17,0.43-0.21,0.63-0.07c0.18,0.12,0.37,0.29,0.45,0.49c0.98,2.26,1.49,4.61,1.2,7.09c-0.07,0.57-0.12,1.14-0.22,1.71
	c-0.15,0.88-0.58,1.63-1.17,2.29C24.04,19.68,23.26,20.32,23.44,21.45z"/>
<path class="st0" d="M9.05,21.45c-0.85,0-1.66,0-2.47,0c-0.01-0.06-0.04-0.12-0.04-0.17c0.03-0.73-0.29-1.31-0.79-1.82
	c-0.68-0.69-1.3-1.45-1.53-2.41c-0.32-1.31-0.46-2.65-0.34-4c0.15-1.73,0.53-3.42,1.18-5.04c0.1-0.24,0.3-0.47,0.51-0.63
	C5.75,7.24,5.99,7.3,6.19,7.46c0.2,0.17,0.15,0.34,0.08,0.55c-0.84,2.37-0.75,4.72,0.26,7.02c0.09,0.21,0.19,0.4,0.45,0.41
	c0.25,0.01,0.37-0.18,0.47-0.38c0.38-0.76,0.77-1.53,1.17-2.28c0.08-0.15,0.19-0.3,0.32-0.4c0.22-0.16,0.47-0.16,0.7-0.02
	c0.25,0.16,0.37,0.42,0.29,0.7c-0.12,0.42-0.27,0.82-0.43,1.22c-0.28,0.75-0.56,1.5-0.86,2.24c-0.25,0.61-0.28,1.21-0.07,1.84
	C8.88,19.36,9.01,20.37,9.05,21.45z"/>
<path class="st0" d="M18.59,24.19c-0.05,2.03-1.68,3.61-3.7,3.57c-1.95-0.04-3.55-1.71-3.51-3.65c0.05-2.06,1.68-3.61,3.76-3.56
	C17.04,20.59,18.63,22.27,18.59,24.19z M14.39,24.86c-0.28-0.26-0.53-0.5-0.78-0.74c-0.32-0.31-0.59-0.36-0.78-0.15
	c-0.2,0.22-0.15,0.43,0.18,0.74c0.33,0.32,0.66,0.63,0.99,0.94c0.4,0.38,0.59,0.37,0.91-0.07c0.48-0.64,0.96-1.29,1.43-1.93
	c0.16-0.22,0.33-0.43,0.48-0.66c0.13-0.21,0.1-0.42-0.11-0.57c-0.2-0.14-0.39-0.1-0.55,0.07c-0.07,0.08-0.13,0.17-0.2,0.26
	C15.43,23.45,14.93,24.13,14.39,24.86z"/>
<path class="st0" d="M3.75,25.83c0.39-0.38,0.79-0.77,1.18-1.16c0.48-0.48,0.48-0.59,0.01-1.05c-0.32-0.32-0.64-0.64-0.97-0.97
	c-0.07-0.07-0.14-0.15-0.25-0.27c2.42,0,4.76,0,7.11,0c-0.38,1.72-0.47,1.51,0,3.53c-2.35,0-4.69,0-7.03,0
	C3.79,25.88,3.77,25.86,3.75,25.83z"/>
<path class="st0" d="M26.21,22.46c-0.42,0.41-0.83,0.82-1.25,1.23c-0.38,0.38-0.38,0.53,0,0.91c0.41,0.41,0.83,0.82,1.31,1.3
	c-2.45,0-4.79,0-7.18,0c0.45-1.17,0.45-2.34,0-3.52c2.38,0,4.72,0,7.07,0C26.18,22.41,26.19,22.44,26.21,22.46z"/>
</svg>
